<svg width="1920" height="1080" viewBox="0 0 1920 1080" fill="none" xmlns="http://www.w3.org/2000/svg">
<g clip-path="url(#clip0_489_127477)">
<rect width="1920" height="1080" fill="white"/>
<g clip-path="url(#clip1_489_127477)">
<rect width="1920" height="1080" fill="#F4F4F6"/>
</g>
<rect x="753.5" y="627" width="419" height="110" rx="21" fill="#F4F4F6"/>
<rect x="753.5" y="627" width="419" height="110" rx="21" stroke="#99959D" stroke-width="6"/>
<path d="M797.972 706.504C796.484 706.504 794.612 706.36 792.356 706.072C790.148 705.784 787.964 705.136 785.804 704.128C783.644 703.072 781.748 701.56 780.116 699.592C778.532 697.624 777.596 694.984 777.308 691.672H785.444C785.636 693.352 786.236 694.696 787.244 695.704C788.3 696.664 789.452 697.384 790.7 697.864C791.948 698.344 793.268 698.656 794.66 698.8C796.052 698.944 797.276 699.016 798.332 699.016C799.532 699.016 800.78 698.92 802.076 698.728C803.42 698.488 804.62 698.08 805.676 697.504C806.78 696.928 807.692 696.112 808.412 695.056C809.132 694 809.492 692.632 809.492 690.952C809.492 689.176 809.108 687.808 808.34 686.848C807.572 685.84 806.612 685.12 805.46 684.688C804.356 684.208 803.132 683.92 801.788 683.824C800.492 683.728 799.268 683.68 798.116 683.68H791.636V676.552H797.396C798.548 676.504 799.724 676.36 800.924 676.12C802.124 675.88 803.204 675.496 804.164 674.968C805.124 674.392 805.916 673.648 806.54 672.736C807.164 671.776 807.524 670.576 807.62 669.136C807.62 667.648 807.284 666.448 806.612 665.536C805.988 664.576 805.172 663.832 804.164 663.304C803.204 662.776 802.124 662.416 800.924 662.224C799.724 662.032 798.548 661.936 797.396 661.936C796.1 661.936 794.804 662.08 793.508 662.368C792.26 662.608 791.132 663.016 790.124 663.592C789.116 664.168 788.3 664.888 787.676 665.752C787.052 666.616 786.716 667.648 786.668 668.848H778.532C778.532 666.352 779.036 664.216 780.044 662.44C781.1 660.616 782.492 659.128 784.22 657.976C785.996 656.776 788.036 655.912 790.34 655.384C792.644 654.808 795.068 654.52 797.612 654.52C799.868 654.52 802.076 654.736 804.236 655.168C806.396 655.552 808.316 656.248 809.996 657.256C811.724 658.264 813.116 659.632 814.172 661.36C815.228 663.04 815.756 665.176 815.756 667.768C815.756 668.728 815.636 669.736 815.396 670.792C815.204 671.8 814.844 672.784 814.316 673.744C813.836 674.704 813.14 675.64 812.228 676.552C811.364 677.416 810.284 678.184 808.988 678.856C811.868 679.576 814.052 681.04 815.54 683.248C817.076 685.408 817.844 687.976 817.844 690.952C817.844 693.832 817.268 696.28 816.116 698.296C815.012 700.264 813.524 701.872 811.652 703.12C809.828 704.32 807.716 705.184 805.316 705.712C802.916 706.24 800.468 706.504 797.972 706.504ZM849.991 701.32C848.743 703.096 847.087 704.416 845.023 705.28C842.959 706.096 840.655 706.504 838.111 706.504C836.095 706.504 834.247 706.264 832.567 705.784C830.935 705.304 829.495 704.584 828.247 703.624C826.999 702.616 826.015 701.392 825.295 699.952C824.575 698.464 824.215 696.784 824.215 694.912C824.215 692.848 824.623 691.096 825.439 689.656C826.255 688.168 827.359 686.968 828.751 686.056C830.191 685.144 831.871 684.472 833.791 684.04C835.711 683.56 837.727 683.32 839.839 683.32H849.559C849.559 680.536 848.935 678.376 847.687 676.84C846.439 675.304 844.255 674.512 841.135 674.464C839.311 674.464 837.727 674.776 836.383 675.4C835.087 676.024 834.223 677.056 833.791 678.496H825.367C825.655 676.48 826.303 674.776 827.311 673.384C828.367 671.992 829.615 670.84 831.055 669.928C832.543 669.016 834.175 668.368 835.951 667.984C837.775 667.6 839.599 667.408 841.423 667.408C843.775 667.408 845.959 667.72 847.975 668.344C849.991 668.968 851.743 670.024 853.231 671.512C854.911 673.24 856.039 675.304 856.615 677.704C857.191 680.104 857.479 682.72 857.479 685.552V706H850.351L849.991 701.32ZM849.559 689.152H841.639C840.247 689.152 838.855 689.272 837.463 689.512C836.071 689.704 834.871 690.208 833.863 691.024C832.903 691.792 832.423 692.92 832.423 694.408C832.423 696.232 833.071 697.624 834.367 698.584C835.711 699.496 837.343 699.952 839.263 699.952C840.751 699.952 842.119 699.76 843.367 699.376C844.663 698.992 845.767 698.368 846.679 697.504C847.591 696.592 848.287 695.464 848.767 694.12C849.295 692.728 849.559 691.072 849.559 689.152ZM866.292 706V668.056H893.724V675.184H874.5V706H866.292ZM907.688 720.76H899.48V668.056H907.256L907.688 673.456C909.08 671.488 910.88 670 913.088 668.992C915.344 667.936 917.696 667.408 920.144 667.408C922.736 667.408 925.064 667.888 927.128 668.848C929.192 669.76 930.944 671.056 932.384 672.736C933.872 674.416 934.976 676.456 935.696 678.856C936.464 681.208 936.848 683.896 936.848 686.92C936.848 689.752 936.488 692.368 935.768 694.768C935.048 697.168 933.968 699.256 932.528 701.032C931.136 702.76 929.384 704.104 927.272 705.064C925.208 706.024 922.688 706.504 919.712 706.504C917.408 706.504 915.2 706.144 913.088 705.424C911.024 704.656 909.224 703.408 907.688 701.68V720.76ZM918.416 699.376C920.192 699.376 921.728 699.064 923.024 698.44C924.32 697.768 925.376 696.88 926.192 695.776C927.056 694.672 927.68 693.376 928.064 691.888C928.496 690.4 928.712 688.792 928.712 687.064C928.712 685.336 928.496 683.728 928.064 682.24C927.68 680.704 927.056 679.384 926.192 678.28C925.376 677.176 924.296 676.312 922.952 675.688C921.656 675.064 920.096 674.752 918.272 674.752C916.64 674.752 915.128 675.088 913.736 675.76C912.392 676.432 911.264 677.32 910.352 678.424C909.44 679.528 908.744 680.848 908.264 682.384C907.832 683.872 907.616 685.408 907.616 686.992C907.616 688.72 907.832 690.352 908.264 691.888C908.696 693.376 909.344 694.672 910.208 695.776C911.12 696.832 912.248 697.696 913.592 698.368C914.936 699.04 916.544 699.376 918.416 699.376ZM971.274 668.056H980.274L969.33 699.952C967.938 703.888 966.666 707.368 965.514 710.392C964.41 713.416 963.09 715.936 961.554 717.952C960.018 719.968 958.122 721.48 955.866 722.488C953.658 723.544 950.754 724.072 947.154 724.072H945.93V716.728C946.122 716.728 946.314 716.728 946.506 716.728C947.946 716.728 949.218 716.56 950.322 716.224C951.474 715.888 952.506 715.384 953.418 714.712C954.33 714.04 955.122 713.152 955.794 712.048C956.466 710.992 957.09 709.768 957.666 708.376L940.458 668.056H950.106L961.914 698.08L971.274 668.056ZM1010.17 685.696C1012.19 686.368 1013.68 687.472 1014.64 689.008C1015.6 690.496 1016.08 692.176 1016.08 694.048C1016.08 694.144 1016.08 694.24 1016.08 694.336C1016.08 696.736 1015.6 698.728 1014.64 700.312C1013.68 701.896 1012.38 703.168 1010.75 704.128C1009.16 705.04 1007.44 705.664 1005.56 706C1003.74 706.336 1001.87 706.504 999.949 706.504C998.077 706.504 996.157 706.336 994.189 706C992.269 705.616 990.493 704.968 988.861 704.056C987.277 703.144 985.957 701.944 984.901 700.456C983.845 698.968 983.245 697.096 983.101 694.84H991.021C991.213 695.8 991.621 696.592 992.245 697.216C992.917 697.84 993.685 698.344 994.549 698.728C995.413 699.112 996.325 699.376 997.285 699.52C998.245 699.664 999.133 699.736 999.949 699.736C1000.81 699.736 1001.75 699.688 1002.76 699.592C1003.76 699.448 1004.65 699.208 1005.42 698.872C1006.24 698.488 1006.91 697.984 1007.44 697.36C1007.96 696.688 1008.23 695.824 1008.23 694.768C1008.23 692.944 1007.53 691.72 1006.14 691.096C1004.8 690.472 1003.09 690.16 1001.03 690.16H994.693V683.68H1000.38C1002.16 683.68 1003.67 683.32 1004.92 682.6C1006.16 681.88 1006.79 680.632 1006.79 678.856C1006.79 677.944 1006.55 677.2 1006.07 676.624C1005.64 676 1005.08 675.52 1004.41 675.184C1003.74 674.848 1003 674.632 1002.18 674.536C1001.36 674.392 1000.64 674.32 1000.02 674.32C999.205 674.32 998.365 674.392 997.501 674.536C996.637 674.632 995.821 674.848 995.053 675.184C994.285 675.52 993.637 675.976 993.109 676.552C992.581 677.128 992.269 677.872 992.173 678.784H984.325C984.517 676.528 985.117 674.68 986.125 673.24C987.133 671.752 988.381 670.576 989.869 669.712C991.357 668.848 992.989 668.248 994.765 667.912C996.589 667.576 998.389 667.408 1000.16 667.408C1001.94 667.408 1003.67 667.576 1005.35 667.912C1007.08 668.248 1008.66 668.872 1010.1 669.784C1011.54 670.696 1012.64 671.8 1013.41 673.096C1014.23 674.344 1014.64 675.976 1014.64 677.992C1014.64 679.816 1014.2 681.376 1013.34 682.672C1012.52 683.968 1011.47 684.976 1010.17 685.696ZM1023.37 706V668.056H1031.51V683.536H1037.34L1047.06 668.056H1056.42L1044.39 686.128L1057.35 706H1047.85L1037.84 690.664H1031.51V706H1023.37ZM1085.75 701.32C1084.5 703.096 1082.84 704.416 1080.78 705.28C1078.72 706.096 1076.41 706.504 1073.87 706.504C1071.85 706.504 1070 706.264 1068.32 705.784C1066.69 705.304 1065.25 704.584 1064 703.624C1062.76 702.616 1061.77 701.392 1061.05 699.952C1060.33 698.464 1059.97 696.784 1059.97 694.912C1059.97 692.848 1060.38 691.096 1061.2 689.656C1062.01 688.168 1063.12 686.968 1064.51 686.056C1065.95 685.144 1067.63 684.472 1069.55 684.04C1071.47 683.56 1073.48 683.32 1075.6 683.32H1085.32C1085.32 680.536 1084.69 678.376 1083.44 676.84C1082.2 675.304 1080.01 674.512 1076.89 674.464C1075.07 674.464 1073.48 674.776 1072.14 675.4C1070.84 676.024 1069.98 677.056 1069.55 678.496H1061.12C1061.41 676.48 1062.06 674.776 1063.07 673.384C1064.12 671.992 1065.37 670.84 1066.81 669.928C1068.3 669.016 1069.93 668.368 1071.71 667.984C1073.53 667.6 1075.36 667.408 1077.18 667.408C1079.53 667.408 1081.72 667.72 1083.73 668.344C1085.75 668.968 1087.5 670.024 1088.99 671.512C1090.67 673.24 1091.8 675.304 1092.37 677.704C1092.95 680.104 1093.24 682.72 1093.24 685.552V706H1086.11L1085.75 701.32ZM1085.32 689.152H1077.4C1076 689.152 1074.61 689.272 1073.22 689.512C1071.83 689.704 1070.63 690.208 1069.62 691.024C1068.66 691.792 1068.18 692.92 1068.18 694.408C1068.18 696.232 1068.83 697.624 1070.12 698.584C1071.47 699.496 1073.1 699.952 1075.02 699.952C1076.51 699.952 1077.88 699.76 1079.12 699.376C1080.42 698.992 1081.52 698.368 1082.44 697.504C1083.35 696.592 1084.04 695.464 1084.52 694.12C1085.05 692.728 1085.32 691.072 1085.32 689.152ZM1106.59 695.992C1108.12 695.992 1109.37 696.472 1110.33 697.432C1111.34 698.392 1111.84 699.688 1111.84 701.32C1111.84 703 1111.34 704.296 1110.33 705.208C1109.37 706.12 1108.12 706.576 1106.59 706.576C1105.05 706.576 1103.78 706.12 1102.77 705.208C1101.81 704.296 1101.33 703 1101.33 701.32C1101.33 699.688 1101.81 698.392 1102.77 697.432C1103.78 696.472 1105.05 695.992 1106.59 695.992ZM1124.37 695.992C1125.91 695.992 1127.15 696.472 1128.11 697.432C1129.12 698.392 1129.63 699.688 1129.63 701.32C1129.63 703 1129.12 704.296 1128.11 705.208C1127.15 706.12 1125.91 706.576 1124.37 706.576C1122.83 706.576 1121.56 706.12 1120.55 705.208C1119.59 704.296 1119.11 703 1119.11 701.32C1119.11 699.688 1119.59 698.392 1120.55 697.432C1121.56 696.472 1122.83 695.992 1124.37 695.992ZM1142.08 695.992C1143.62 695.992 1144.87 696.472 1145.83 697.432C1146.83 698.392 1147.34 699.688 1147.34 701.32C1147.34 703 1146.83 704.296 1145.83 705.208C1144.87 706.12 1143.62 706.576 1142.08 706.576C1140.55 706.576 1139.27 706.12 1138.27 705.208C1137.31 704.296 1136.83 703 1136.83 701.32C1136.83 699.688 1137.31 698.392 1138.27 697.432C1139.27 696.472 1140.55 695.992 1142.08 695.992Z" fill="black"/>
<mask id="mask0_489_127477" style="mask-type:luminance" maskUnits="userSpaceOnUse" x="597" y="340" width="727" height="39">
<path d="M597 340H1323.89V378.619H597V340Z" fill="white"/>
</mask>
<g mask="url(#mask0_489_127477)">
<path d="M597 340H1323.89V378.619H597V340Z" fill="white"/>
<path d="M571.141 349.087L550.698 369.532H604.95L625.394 349.087H571.141Z" fill="#DE0103"/>
<path d="M664.275 349.087L643.831 369.532H698.084L718.527 349.087H664.275Z" fill="#DE0103"/>
<path d="M757.406 349.087L736.963 369.532H791.215L811.659 349.087H757.406Z" fill="#DE0103"/>
<path d="M850.538 349.087L830.095 369.532H884.348L904.792 349.087H850.538Z" fill="#DE0103"/>
<path d="M943.672 349.087L923.228 369.532H977.481L997.925 349.087H943.672Z" fill="#DE0103"/>
<path d="M1036.8 349.087L1016.36 369.532H1070.61L1091.06 349.087H1036.8Z" fill="#DE0103"/>
<path d="M1129.94 349.087L1109.49 369.532H1163.75L1184.19 349.087H1129.94Z" fill="#DE0103"/>
<path d="M1223.07 349.087L1202.63 369.532H1256.88L1277.32 349.087H1223.07Z" fill="#DE0103"/>
<path d="M1316.2 349.087L1295.76 369.532H1350.01L1370.46 349.087H1316.2Z" fill="#DE0103"/>
</g>
<mask id="mask1_489_127477" style="mask-type:luminance" maskUnits="userSpaceOnUse" x="597" y="340" width="727" height="39">
<path d="M597 340H1323.89V378.619H597V340Z" fill="white"/>
</mask>
<g mask="url(#mask1_489_127477)">
<path d="M597 344.543H1323.89V335.457H597V344.543ZM1323.89 374.076H597V383.162H1323.89V374.076Z" fill="#DE0103"/>
</g>
<path d="M597 504.453H803.589L896.376 424.958V403.608H597V504.453Z" fill="black"/>
<path d="M597 522.218V537.638H857.617V483.077L812.986 522.218H597Z" fill="black"/>
<path d="M875.236 456.983V518.66H910.475V456.983H875.236Z" fill="black"/>
<path d="M970.196 487.661H993.602L1023.22 401.749H1003.08L982.276 467.022H981.479L960.715 401.749H940.539L970.196 487.661ZM1051.72 396.506L1033.55 406.993V487.661H1051.72V396.506ZM1065.74 487.661H1131.51L1122.87 472.685H1088.51L1131.42 412.53V401.749H1065.65L1074.29 416.725H1108.6L1065.74 476.88V487.661ZM1184.16 488.835C1206.94 488.835 1224.39 472.811 1224.39 444.705C1224.39 416.599 1206.94 400.575 1184.16 400.575C1161.26 400.575 1143.93 416.599 1143.93 444.705C1143.93 472.685 1161.26 488.835 1184.16 488.835ZM1184.16 416.641C1197.33 416.641 1205.97 426.499 1205.97 444.705C1205.97 462.911 1197.33 472.769 1184.16 472.769C1170.95 472.769 1162.35 462.911 1162.35 444.705C1162.35 426.499 1170.95 416.641 1184.16 416.641ZM1256 487.661V457.206H1269.26L1285.53 487.661H1305.58L1287.34 454.269C1297.11 450.074 1302.52 441.559 1302.52 429.813C1302.52 412.74 1291.24 401.749 1271.73 401.749H1237.84V487.661H1256ZM1268.25 416.599C1278.74 416.599 1283.81 421.256 1283.81 429.813C1283.81 438.329 1278.74 442.607 1268.34 442.607H1256V416.599H1268.25Z" fill="black"/>
<path d="M958.17 508.247H942.228V542.182H947.675V530.537H958.02C964.916 530.537 970.163 526.089 970.163 519.392C970.163 512.695 964.966 508.247 958.17 508.247ZM957.77 525.539H947.675V513.345H957.77C961.468 513.345 964.566 515.794 964.566 519.492C964.566 523.14 961.468 525.539 957.77 525.539ZM987.627 542.931C991.825 542.931 994.573 541.282 996.272 539.533L996.222 542.182H1001.67V516.343H996.322V518.842C994.523 517.043 991.375 515.594 987.627 515.594C979.731 515.594 974.134 521.741 974.134 529.287C974.134 536.834 979.731 542.931 987.627 542.931ZM988.027 538.133C983.179 538.133 979.531 534.135 979.531 529.237C979.531 524.34 983.179 520.391 988.027 520.391C992.824 520.391 996.622 523.64 996.622 529.237C996.622 534.885 992.824 538.133 988.027 538.133ZM1009.71 542.182H1015.11V529.237C1015.21 523.74 1019.16 519.992 1025.7 519.992V515.544C1020.21 515.544 1016.31 518.142 1015.11 521.291V516.293H1009.71V542.182ZM1048.55 542.182H1055.49L1042 525.989L1053.49 516.343H1046.5L1035.6 525.439V507.347L1030.21 508.247V542.182H1035.6V531.337L1038 529.287L1048.55 542.182ZM1062.05 512.645C1063.8 512.645 1065.15 511.296 1065.15 509.596C1065.15 507.847 1063.8 506.498 1062.05 506.498C1060.35 506.498 1059 507.847 1059 509.596C1059 511.296 1060.35 512.645 1062.05 512.645ZM1059.6 542.182H1065V516.293H1059.6V542.182ZM1086.89 515.544C1080.6 515.544 1078.85 519.542 1078.85 519.542V516.343H1073.45V542.182H1078.85V527.638C1078.85 522.79 1082.35 520.341 1086.1 520.341C1089.64 520.341 1091.89 522.69 1091.89 526.839V542.182H1097.29V526.289C1097.29 519.192 1092.69 515.544 1086.89 515.544ZM1115.52 553.427C1126.21 553.427 1130.26 547.029 1130.26 539.483L1130.36 516.343H1124.97V518.842C1123.17 517.043 1120.02 515.594 1116.27 515.594C1108.37 515.594 1102.78 521.741 1102.78 529.287C1102.78 536.834 1108.37 542.931 1116.27 542.931C1120.42 542.931 1123.17 541.332 1124.87 539.583V540.183C1124.87 546.23 1121.17 548.629 1115.32 548.629C1108.97 548.629 1105.18 545.93 1105.18 545.93V550.778C1105.18 550.778 1107.97 553.427 1115.52 553.427ZM1116.67 538.133C1111.82 538.133 1108.17 534.135 1108.17 529.237C1108.17 524.34 1111.82 520.391 1116.67 520.391C1121.47 520.391 1125.27 523.64 1125.27 529.237C1125.27 534.885 1121.47 538.133 1116.67 538.133ZM1159.56 542.981C1167.26 542.981 1172.31 538.833 1172.31 533.236C1172.31 527.288 1168.91 524.989 1162.11 522.191C1157.51 520.292 1155.27 519.342 1155.27 516.343C1155.27 513.844 1157.71 512.495 1161.41 512.445C1165.06 512.445 1168.36 513.844 1170.36 515.694V509.846C1167.91 508.197 1165.06 507.197 1161.91 507.247C1154.77 507.247 1149.67 510.996 1149.67 516.343C1149.67 522.291 1152.97 524.64 1159.66 527.438C1164.26 529.337 1166.71 530.587 1166.71 533.186C1166.71 535.934 1164.76 537.834 1159.56 537.834C1155.52 537.834 1151.27 536.284 1148.22 533.885V539.483C1150.17 541.182 1153.97 542.981 1159.56 542.981ZM1180.15 552.577H1185.9L1203.34 516.343H1197.7L1189.7 533.486L1181.7 516.343H1176.06L1186.9 539.183L1180.15 552.577ZM1212.47 542.931C1219.72 542.931 1222.66 539.033 1222.66 535.085C1222.66 531.187 1220.72 529.487 1217.27 527.488C1212.82 524.889 1211.42 524.34 1211.42 522.69C1211.42 521.341 1212.62 520.391 1215.52 520.391C1218.12 520.391 1220.42 521.491 1221.56 522.59V517.293C1220.32 516.543 1218.02 515.594 1214.87 515.594C1210.17 515.594 1206.32 518.392 1206.32 522.79C1206.32 527.088 1209.42 528.738 1212.82 530.637C1215.87 532.336 1217.62 533.486 1217.62 535.385C1217.62 537.084 1215.87 538.133 1212.42 538.133C1208.22 538.133 1204.82 535.185 1204.82 535.185V540.482C1204.82 540.482 1208.07 542.931 1212.47 542.931ZM1233.32 542.182H1238.72V520.042H1247.56V515.644H1238.72V507.397L1223.38 520.042H1233.32V542.182ZM1262.99 542.931C1270.54 542.931 1273.33 540.282 1273.33 540.282V535.435C1273.29 535.435 1269.44 538.133 1263.09 538.133C1257.24 538.133 1254.44 534.535 1253.85 530.537H1274.48V528.038C1274.48 521.791 1270.14 515.594 1262.64 515.594C1254.64 515.594 1248.7 521.491 1248.7 529.237C1248.7 536.684 1253.9 542.931 1262.99 542.931ZM1254.1 526.339C1254.39 524.34 1256.29 519.992 1261.94 519.992C1267.59 519.992 1268.89 524.34 1269.09 526.339H1254.1ZM1310.35 515.544C1305.45 515.544 1302.75 517.543 1301.55 519.792C1299.91 516.993 1297.06 515.544 1293.41 515.544C1288.21 515.544 1286.46 518.742 1286.16 519.442V516.343H1280.77V542.182H1286.16V526.639C1286.56 522.441 1289.61 520.341 1292.61 520.341C1296.16 520.341 1297.66 522.69 1297.66 526.839V542.182H1303.05V527.638C1303.05 522.79 1306.3 520.341 1309.55 520.341C1313.1 520.341 1314.6 522.69 1314.6 526.839V542.182H1319.99V526.289C1319.99 519.192 1316.15 515.544 1310.35 515.544Z" fill="#898989"/>
</g>
<defs>
<clipPath id="clip0_489_127477">
<rect width="1920" height="1080" fill="white"/>
</clipPath>
<clipPath id="clip1_489_127477">
<rect width="1920" height="1080" fill="white"/>
</clipPath>
</defs>
</svg>
