<svg width="212" height="60" viewBox="0 0 212 60" fill="none" xmlns="http://www.w3.org/2000/svg">
<g clip-path="url(#clip0_1020_149580)">
<path d="M0.5 2.64746V8.60423H3.06087L8.99523 2.64746H0.5Z" fill="#FE0103"/>
<path d="M20.0789 2.64795L14.1445 8.60472H29.8929L35.8273 2.64795H20.0789Z" fill="#FE0103"/>
<path d="M47.2391 2.64795L41.3047 8.60472H57.053L62.9874 2.64795H47.2391Z" fill="#FE0103"/>
<path d="M74.1726 2.64795L68.2383 8.60472H83.9866L89.921 2.64795H74.1726Z" fill="#FE0103"/>
<path d="M101.005 2.64795L95.0703 8.60472H110.819L116.753 2.64795H101.005Z" fill="#FE0103"/>
<path d="M128.012 2.64795L122.078 8.60472H137.826L143.761 2.64795H128.012Z" fill="#FE0103"/>
<path d="M155.098 2.64795L149.164 8.60472H164.912L170.847 2.64795H155.098Z" fill="#FE0103"/>
<path d="M181.93 2.64795L175.996 8.60472H191.744L197.679 2.64795H181.93Z" fill="#FE0103"/>
<path d="M208.786 2.64795L202.852 8.60472H211.377V2.64795H208.786Z" fill="#FE0103"/>
<path d="M0.5 47.0741H60.4683L87.4025 24.0001V17.8031H0.5V47.0741Z" fill="black"/>
<path d="M0.5 52.2306V56.7062H76.1515V40.8695L63.1958 52.2306H0.5Z" fill="black"/>
<path d="M81.2656 33.2955V51.1978H91.4938V33.2955H81.2656Z" fill="black"/>
<path d="M191.882 42.8601V34.0203H195.729L200.453 42.8601H206.274L200.977 33.168C203.814 31.9504 205.385 29.4787 205.385 26.0694C205.385 21.1138 202.109 17.9237 196.448 17.9237H186.609V42.8601H191.882ZM195.437 22.234C198.481 22.234 199.954 23.5855 199.954 26.0694C199.954 28.5411 198.481 29.7831 195.461 29.7831H191.882V22.234H195.437Z" fill="black"/>
<path d="M171.036 43.201C177.648 43.201 182.713 38.5498 182.713 30.3919C182.713 22.234 177.648 17.5828 171.036 17.5828C164.388 17.5828 159.359 22.234 159.359 30.3919C159.359 38.5132 164.388 43.201 171.036 43.201ZM171.036 22.2462C174.859 22.2462 177.368 25.1075 177.368 30.3919C177.368 35.6762 174.859 38.5376 171.036 38.5376C167.201 38.5376 164.705 35.6762 164.705 30.3919C164.705 25.1075 167.201 22.2462 171.036 22.2462Z" fill="black"/>
<path d="M136.802 42.8601H155.894L153.385 38.5133H143.413L155.869 21.0529V17.9237H136.777L139.286 22.2705H149.245L136.802 39.7309V42.8601Z" fill="black"/>
<path d="M132.604 16.4011L127.332 19.4451V42.8595H132.604V16.4011Z" fill="black"/>
<path d="M109.042 42.8593H115.836L124.432 17.923H118.588L112.549 36.8688H112.317L106.29 17.923H100.434L109.042 42.8593Z" fill="black"/>
<path d="M208.213 48.781C209.895 48.781 211.012 49.84 211.012 51.8998V56.5128H209.446V52.0594C209.446 50.8554 209.011 50.1736 207.981 50.1736C207.038 50.1736 206.095 50.8844 206.095 52.2915V56.5128H204.528V52.0594C204.528 50.8554 204.093 50.1736 203.063 50.1736C202.193 50.1736 201.308 50.7829 201.192 52.0014V56.5128H199.625V49.0131H201.192V49.9125C201.279 49.7094 201.786 48.781 203.295 48.781C204.354 48.781 205.181 49.2017 205.66 50.014C206.008 49.3613 206.791 48.781 208.213 48.781Z" fill="#7F7A84"/>
<path d="M194.34 56.7313C191.7 56.7313 190.191 54.918 190.191 52.7566C190.191 50.5081 191.918 48.7964 194.239 48.7964C196.415 48.7964 197.677 50.5952 197.677 52.4084V53.1338H191.686C191.86 54.2943 192.672 55.3387 194.369 55.3387C196.212 55.3387 197.328 54.5554 197.343 54.5554V55.9625C197.343 55.9625 196.531 56.7313 194.34 56.7313ZM191.758 51.9152H196.11C196.052 51.335 195.675 50.0729 194.036 50.0729C192.396 50.0729 191.845 51.335 191.758 51.9152Z" fill="#7F7A84"/>
<path d="M185.762 56.5137V50.0874H182.875L187.328 46.4174V48.8109H189.896V50.0874H187.328V56.5137H185.762Z" fill="#7F7A84"/>
<path d="M179.712 56.7313C178.435 56.7313 177.492 56.0205 177.492 56.0205V54.4828C177.492 54.4828 178.479 55.3387 179.697 55.3387C180.698 55.3387 181.206 55.0341 181.206 54.5409C181.206 53.9896 180.698 53.656 179.813 53.1628C178.827 52.6115 177.927 52.1328 177.927 50.8853C177.927 49.6087 179.044 48.7964 180.408 48.7964C181.322 48.7964 181.989 49.072 182.352 49.2896V50.8273C182.018 50.5081 181.351 50.189 180.597 50.189C179.755 50.189 179.407 50.4646 179.407 50.8563C179.407 51.335 179.813 51.4945 181.104 52.2489C182.105 52.8291 182.671 53.3223 182.671 54.4538C182.671 55.5998 181.815 56.7313 179.712 56.7313Z" fill="#7F7A84"/>
<path d="M170.44 59.5303L172.398 55.6427L169.25 49.0133H170.889L173.21 53.9889L175.531 49.0133H177.17L172.108 59.5303H170.44Z" fill="#7F7A84"/>
<path d="M164.301 56.7447C162.676 56.7447 161.574 56.2225 161.008 55.7292V54.1045C161.893 54.8008 163.126 55.2505 164.301 55.2505C165.809 55.2505 166.375 54.6993 166.375 53.9015C166.375 53.1471 165.664 52.7845 164.33 52.2332C162.386 51.4209 161.428 50.7391 161.428 49.0129C161.428 47.4607 162.908 46.3727 164.983 46.3727C165.896 46.3582 166.723 46.6483 167.434 47.127V48.8243C166.854 48.2875 165.896 47.8814 164.837 47.8814C163.764 47.8959 163.053 48.2875 163.053 49.0129C163.053 49.8832 163.706 50.1588 165.041 50.7101C167.013 51.5224 168 52.1897 168 53.916C168 55.5407 166.535 56.7447 164.301 56.7447Z" fill="#7F7A84"/>
<path d="M151.519 59.7776C149.329 59.7776 148.517 59.0088 148.517 59.0088V57.6017C148.517 57.6017 149.619 58.385 151.461 58.385C153.159 58.385 154.232 57.6887 154.232 55.9335V55.7594C153.739 56.2671 152.941 56.7313 151.737 56.7313C149.445 56.7313 147.82 54.9615 147.82 52.7711C147.82 50.5807 149.445 48.7964 151.737 48.7964C152.825 48.7964 153.739 49.2171 154.261 49.7393V49.014H155.828L155.799 55.7304C155.799 57.9208 154.624 59.7776 151.519 59.7776ZM151.853 55.3387C153.246 55.3387 154.348 54.3958 154.348 52.7566C154.348 51.1319 153.246 50.189 151.853 50.189C150.446 50.189 149.387 51.335 149.387 52.7566C149.387 54.1782 150.446 55.3387 151.853 55.3387Z" fill="#7F7A84"/>
<path d="M143.344 48.781C145.026 48.781 146.361 49.84 146.361 51.8998V56.5128H144.794V52.0594C144.794 50.8554 144.141 50.1736 143.111 50.1736C142.024 50.1736 141.008 50.8844 141.008 52.2915V56.5128H139.441V49.0131H141.008V49.9415C141.008 49.9415 141.516 48.781 143.344 48.781Z" fill="#7F7A84"/>
<path d="M136.092 47.9405C135.599 47.9405 135.207 47.5488 135.207 47.0556C135.207 46.5479 135.599 46.1562 136.092 46.1562C136.6 46.1562 136.991 46.5479 136.991 47.0556C136.991 47.5488 136.6 47.9405 136.092 47.9405ZM135.381 56.5137V48.9995H136.948V56.5137H135.381Z" fill="#7F7A84"/>
<path d="M132.113 56.5138L129.052 52.7712L128.356 53.366V56.5138H126.789V46.6641L128.356 46.403V51.6542L131.518 49.0141H133.549L130.213 51.8138L134.129 56.5138H132.113Z" fill="#7F7A84"/>
<path d="M120.746 56.5128V48.9986H122.313V50.4492C122.661 49.5353 123.792 48.781 125.388 48.781V50.0721C123.488 50.0721 122.342 51.16 122.313 52.7557V56.5128H120.746Z" fill="#7F7A84"/>
<path d="M114.538 56.7313C112.246 56.7313 110.621 54.9615 110.621 52.7711C110.621 50.5807 112.246 48.7964 114.538 48.7964C115.626 48.7964 116.54 49.2171 117.062 49.7393V49.014H118.614V56.5137H117.033L117.047 55.7449C116.554 56.2526 115.756 56.7313 114.538 56.7313ZM114.654 55.3387C116.046 55.3387 117.149 54.3958 117.149 52.7566C117.149 51.1319 116.046 50.189 114.654 50.189C113.247 50.189 112.188 51.335 112.188 52.7566C112.188 54.1782 113.247 55.3387 114.654 55.3387Z" fill="#7F7A84"/>
<path d="M105.885 46.6639C107.858 46.6639 109.367 47.955 109.367 49.8988C109.367 51.8427 107.844 53.1337 105.842 53.1337H102.839V56.5137H101.258V46.6639H105.885ZM105.769 51.6831C106.843 51.6831 107.742 50.9868 107.742 49.9278C107.742 48.8544 106.843 48.1436 105.769 48.1436H102.839V51.6831H105.769Z" fill="#7F7A84"/>
<rect x="0.5" width="211" height="1.31875" fill="#FE0103"/>
<rect x="0.5" y="9.89062" width="211" height="1.31875" fill="#FE0103"/>
</g>
<defs>
<clipPath id="clip0_1020_149580">
<rect width="211" height="60.0031" fill="white" transform="translate(0.5)"/>
</clipPath>
</defs>
</svg>
