<svg width="32" height="20" viewBox="0 0 32 20" fill="none" xmlns="http://www.w3.org/2000/svg">
    <path fill-rule="evenodd" clip-rule="evenodd"
          d="M9.24287 2.44588C9.20236 2.4404 9.16118 2.44242 9.1214 2.45183L2.98629 3.90396C2.9707 3.90765 2.95818 3.91924 2.95331 3.93451C2.95246 3.9372 2.95185 3.93997 2.9515 3.94277L2.39462 8.4391C2.38937 8.48147 2.39231 8.52445 2.40328 8.56571L2.73575 9.81642C2.76687 9.9335 2.85907 10.0245 2.97656 10.054L17.1087 13.6099L16.9909 13.0502C16.8745 12.4974 16.9626 11.9212 17.2388 11.4284L20.6834 5.28398L24.3832 4.49435L9.24287 2.44588ZM25.9308 6.20911L21.9856 7.05111L18.9834 12.4064C18.9439 12.4768 18.9313 12.5591 18.948 12.6381L19.198 13.8257L25.1746 12.8257C25.3016 12.8045 25.405 12.712 25.4402 12.5881L26.4663 8.97976L25.9308 6.20911ZM28.3017 9.83733L29.085 9.61977C29.6775 9.45521 30.181 9.06343 30.4862 8.5296L31.3002 7.10574C31.6048 6.57288 31.6872 5.94144 31.5296 5.34825L31.0042 3.37194L9.51102 0.463939C9.22744 0.425571 8.93922 0.439695 8.66075 0.505607L2.52564 1.95773C1.82694 2.12311 1.26609 2.64269 1.0479 3.32674C1.00942 3.44736 0.98223 3.57129 0.966668 3.69694L0.409783 8.19327C0.373052 8.48984 0.393631 8.79071 0.470404 9.07951L0.802875 10.3302C1.02074 11.1498 1.66613 11.7867 2.48854 11.9936L5.93935 12.8619L5.08914 15.1447C5.06191 15.2178 5.00992 15.279 4.9422 15.3177L3.34148 16.2328C2.85553 16.5106 2.52866 17.0009 2.45912 17.5563C2.30808 18.7625 3.3844 19.7616 4.57607 19.5213L11.0733 18.2112C11.5356 18.1179 11.9589 17.8868 12.2872 17.5481L14.6949 15.0649L18.3758 15.9911L25.5047 14.7983C26.3937 14.6495 27.1175 14.0021 27.364 13.1351L28.3017 9.83733ZM12.4555 14.5014L7.89069 13.3529L6.96337 15.8427C6.7728 16.3544 6.40881 16.7831 5.93477 17.054L5.52123 17.2904L10.6779 16.2506C10.744 16.2373 10.8045 16.2043 10.8514 16.1559L12.4555 14.5014ZM28.2696 7.77055L28.5498 7.69272C28.6344 7.66922 28.7063 7.61325 28.7499 7.53698L29.5639 6.11313C29.6074 6.037 29.6192 5.9468 29.5967 5.86206L29.4872 5.45008L27.8871 5.79158L28.2696 7.77055Z"
          fill="#7F7A84"/>
</svg>
