<svg width="22" height="22" viewBox="0 0 22 22" fill="none" xmlns="http://www.w3.org/2000/svg">
<path fill-rule="evenodd" clip-rule="evenodd" d="M6.37379 0.959519C6.76432 1.35004 6.76432 1.98321 6.37379 2.37373L4.0809 4.66663H20.3334C20.8856 4.66663 21.3334 5.11434 21.3334 5.66663C21.3334 6.21891 20.8856 6.66663 20.3334 6.66663H4.0809L6.37379 8.95952C6.76432 9.35004 6.76432 9.98321 6.37379 10.3737C5.98327 10.7643 5.3501 10.7643 4.95958 10.3737L0.95958 6.37373C0.569056 5.98321 0.569056 5.35004 0.95958 4.95952L4.95958 0.959519C5.3501 0.568995 5.98327 0.568995 6.37379 0.959519ZM15.6262 11.6262C16.0168 11.2357 16.6499 11.2357 17.0405 11.6262L21.0405 15.6262C21.431 16.0167 21.431 16.6499 21.0405 17.0404L17.0405 21.0404C16.6499 21.4309 16.0168 21.4309 15.6262 21.0404C15.2357 20.6499 15.2357 20.0167 15.6262 19.6262L17.9191 17.3333H1.66669C1.1144 17.3333 0.666687 16.8856 0.666687 16.3333C0.666687 15.781 1.1144 15.3333 1.66669 15.3333H17.9191L15.6262 13.0404C15.2357 12.6499 15.2357 12.0167 15.6262 11.6262Z" fill="#FE0103"/>
</svg>