<svg width="26" height="22" viewBox="0 0 26 22" fill="none" xmlns="http://www.w3.org/2000/svg">
<path fill-rule="evenodd" clip-rule="evenodd" d="M18.9095 3.88113C17.0261 3.0739 14.9957 2.66091 12.9465 2.66806C10.8975 2.67521 8.87257 3.10251 6.99461 3.92297C5.11684 4.74335 3.42707 5.93977 2.02954 7.43843C1.65289 7.84235 1.02011 7.86445 0.616193 7.48779C0.212277 7.11113 0.19018 6.47835 0.566837 6.07444C2.1507 4.37596 4.06577 3.02001 6.19392 2.09025C8.32188 1.16056 10.6169 0.67618 12.9395 0.668072C15.2618 0.659966 17.5628 1.12796 19.6974 2.04286C21.8321 2.9578 23.757 4.30116 25.3526 5.98845C25.732 6.38973 25.7143 7.02264 25.3131 7.40211C24.9118 7.78158 24.2789 7.7639 23.8994 7.36263C22.4914 5.87366 20.7929 4.68833 18.9095 3.88113ZM16.8075 8.78316C15.5936 8.26288 14.2868 7.99678 12.9664 8.00139C11.6458 8.006 10.3404 8.28102 9.1303 8.80969C7.92018 9.33838 6.83121 10.1094 5.93059 11.0752C5.55393 11.4791 4.92115 11.5012 4.51723 11.1246C4.11332 10.7479 4.09122 10.1151 4.46788 9.71121C5.55484 8.54559 6.86911 7.61504 8.3296 6.97696C9.79013 6.33887 11.3656 6.00697 12.9594 6.00141C14.5533 5.99584 16.1306 6.31707 17.5954 6.94489C19.0602 7.57269 20.3816 8.49407 21.4768 9.65219C21.8563 10.0535 21.8386 10.6864 21.4373 11.0659C21.036 11.4453 20.4031 11.4276 20.0237 11.0264C19.1164 10.067 18.0214 9.30344 16.8075 8.78316ZM15.2323 13.793C14.5207 13.488 13.7543 13.332 12.9803 13.3347C12.2059 13.3374 11.4399 13.4986 10.7308 13.8084C10.0214 14.1183 9.38302 14.5703 8.85507 15.1365C8.47841 15.5404 7.84563 15.5625 7.44171 15.1858C7.0378 14.8092 7.0157 14.1764 7.39236 13.7725C8.10665 13.0065 8.97031 12.395 9.93006 11.9757C10.8901 11.5562 11.9263 11.3384 12.9733 11.3347C14.0207 11.3311 15.0576 11.5422 16.0202 11.9547C16.9827 12.3673 17.8509 12.9725 18.5706 13.7337C18.9501 14.1349 18.9324 14.7679 18.5311 15.1473C18.1299 15.5268 17.497 15.5091 17.1175 15.1078C16.5857 14.5455 15.944 14.098 15.2323 13.793ZM10.6667 19.0014C10.6667 17.7127 11.7114 16.6681 13 16.6681C14.2887 16.6681 15.3333 17.7127 15.3333 19.0014C15.3333 20.2901 14.2887 21.3347 13 21.3347C11.7114 21.3347 10.6667 20.2901 10.6667 19.0014Z" fill="#FE0103"/>
</svg>