<svg width="30" height="30" viewBox="0 0 30 30" fill="none" xmlns="http://www.w3.org/2000/svg">
<path fill-rule="evenodd" clip-rule="evenodd" d="M15.638 3.0878C15.2296 2.91865 14.7707 2.91865 14.3624 3.0878C14.2595 3.13041 14.1212 3.21314 13.8787 3.42462C13.6295 3.64201 13.3278 3.94295 12.8788 4.3919C12.43 4.84076 12.129 5.14246 11.9116 5.39171C11.7001 5.63421 11.6174 5.77254 11.5748 5.87534C11.4056 6.28372 11.4056 6.74265 11.5748 7.15103C11.6174 7.2539 11.7001 7.39221 11.9116 7.63465C12.129 7.88388 12.4299 8.18558 12.8789 8.63455C13.3276 9.08325 13.6293 9.38422 13.8786 9.6017C14.1212 9.81334 14.2596 9.89611 14.3623 9.93865C14.7707 10.1078 15.2296 10.1078 15.638 9.93865C15.7409 9.89604 15.8792 9.81332 16.1216 9.60184C16.3709 9.38445 16.6726 9.08352 17.1215 8.63455C17.5702 8.18585 17.8708 7.88415 18.0877 7.63515C18.2987 7.39299 18.3815 7.25445 18.4243 7.15103C18.5935 6.74265 18.5935 6.28372 18.4243 5.87534C18.3815 5.77194 18.2987 5.63344 18.0878 5.39129C17.8708 5.1423 17.5702 4.84062 17.1215 4.3919C16.6726 3.94294 16.3709 3.64201 16.1216 3.42461C15.8792 3.21314 15.7409 3.13041 15.638 3.0878ZM13.597 1.24005C14.4954 0.867901 15.5049 0.867901 16.4034 1.24005C16.7906 1.40042 17.1169 1.63885 17.4363 1.91741C17.7431 2.185 18.0929 2.5348 18.5119 2.95381L18.5502 2.99216C18.9736 3.41558 19.3264 3.7683 19.5958 4.07756C19.8742 4.39719 20.1119 4.72332 20.2721 5.10998C20.6442 6.00841 20.6442 7.01796 20.2721 7.9164C20.1119 8.30304 19.8742 8.62918 19.5958 8.94883C19.3263 9.25826 18.9733 9.61117 18.5496 10.0349L18.512 10.0725C18.0929 10.4916 17.7431 10.8414 17.4363 11.109C17.1169 11.3876 16.7906 11.626 16.4034 11.7864C15.5049 12.1586 14.4954 12.1586 13.597 11.7864C13.2097 11.626 12.8832 11.3874 12.5639 11.1089C12.2571 10.8412 11.9073 10.4914 11.4884 10.0725L11.4408 10.0249C11.0218 9.60591 10.672 9.2561 10.4044 8.94932C10.1258 8.62996 9.8874 8.30359 9.72702 7.9164C9.35488 7.01796 9.35488 6.00841 9.72702 5.10998C9.8874 4.72278 10.1259 4.39636 10.4044 4.07702C10.6721 3.77023 11.0219 3.42043 11.4408 3.00149L11.4884 2.95389C11.9075 2.53485 12.2573 2.18502 12.5641 1.91742C12.8834 1.63885 13.2098 1.40042 13.597 1.24005ZM7.15233 11.5728C6.74395 11.4037 6.28506 11.4037 5.87668 11.5728C5.77381 11.6154 5.6355 11.6982 5.39306 11.9096C5.14383 12.127 4.84213 12.428 4.39316 12.8769C3.94433 13.3258 3.64339 13.6275 3.42596 13.8767C3.21442 14.1192 3.13168 14.2576 3.0891 14.3604C2.91995 14.7687 2.91995 15.2277 3.0891 15.6361C3.13171 15.7389 3.21443 15.8772 3.42591 16.1197C3.6433 16.3689 3.94424 16.6706 4.3932 17.1196C4.8419 17.5683 5.14364 17.8692 5.39295 18.0867C5.63556 18.2984 5.77394 18.3811 5.87664 18.4237C6.28502 18.5928 6.74395 18.5928 7.15233 18.4237C7.2552 18.3811 7.39351 18.2983 7.63595 18.0869C7.88518 17.8695 8.18688 17.5685 8.63585 17.1196C9.08455 16.6709 9.38516 16.3692 9.60206 16.1202C9.81301 15.878 9.89581 15.7395 9.93865 15.6361C10.1078 15.2277 10.1078 14.7687 9.93865 14.3604C9.89582 14.257 9.81303 14.1185 9.60208 13.8763C9.38517 13.6273 9.08457 13.3257 8.63585 12.8769C8.18688 12.428 7.88518 12.127 7.63595 11.9096C7.39351 11.6982 7.2552 11.6154 7.15233 11.5728ZM5.11131 9.72507C6.00975 9.35293 7.01926 9.35293 7.9177 9.72507C8.30488 9.88545 8.63125 10.1239 8.95062 10.4024C9.2574 10.67 9.6072 11.0198 10.0262 11.4389L10.0646 11.4772C10.488 11.9006 10.8407 12.2533 11.1101 12.5626C11.3885 12.8822 11.6263 13.2083 11.7864 13.595C12.1586 14.4934 12.1586 15.503 11.7864 16.4014C11.6263 16.7881 11.3886 17.1142 11.1101 17.4339C10.8406 17.7433 10.4877 18.0962 10.064 18.5199L10.0263 18.5576C9.60722 18.9766 9.25741 19.3265 8.95062 19.5941C8.63125 19.8726 8.30488 20.1111 7.9177 20.2714C7.01927 20.6436 6.00972 20.6436 5.11127 20.2714C4.72406 20.111 4.39755 19.8724 4.07823 19.5939C3.7714 19.3262 3.42158 18.9764 3.00276 18.5576L2.95511 18.5099C2.53609 18.0909 2.18629 17.7411 1.91871 17.4343C1.64014 17.115 1.40172 16.7886 1.24134 16.4014C0.869198 15.503 0.869198 14.4934 1.24134 13.595C1.40172 13.2078 1.64023 12.8814 1.91878 12.562C2.1864 12.2552 2.53621 11.9054 2.95515 11.4865L2.97895 11.4627L3.00276 11.4389C3.42179 11.0199 3.7716 10.67 4.07839 10.4024C4.39775 10.1239 4.72412 9.88545 5.11131 9.72507ZM24.1237 11.5728C23.7153 11.4037 23.2564 11.4037 22.848 11.5728C22.7452 11.6154 22.6069 11.6982 22.3644 11.9096C22.1152 12.127 21.8135 12.428 21.3645 12.8769C20.9157 13.3258 20.6147 13.6275 20.3973 13.8767C20.1858 14.1192 20.103 14.2576 20.0605 14.3604C19.8913 14.7687 19.8913 15.2277 20.0605 15.6361C20.1031 15.7389 20.1858 15.8772 20.3973 16.1197C20.6147 16.3689 20.9156 16.6706 21.3646 17.1196C21.8133 17.5683 22.115 17.8692 22.3643 18.0867C22.6069 18.2984 22.7453 18.3811 22.848 18.4237C23.2564 18.5928 23.7153 18.5928 24.1237 18.4237C24.2266 18.3811 24.3649 18.2983 24.6073 18.0869C24.8565 17.8695 25.1582 17.5685 25.6072 17.1196C26.0559 16.6709 26.3565 16.3692 26.5734 16.1202C26.7844 15.878 26.8672 15.7395 26.91 15.6361C27.0792 15.2277 27.0792 14.7687 26.91 14.3604C26.8672 14.257 26.7844 14.1185 26.5734 13.8763C26.3565 13.6273 26.0559 13.3256 25.6072 12.8769C25.1582 12.428 24.8565 12.127 24.6073 11.9096C24.3649 11.6982 24.2266 11.6154 24.1237 11.5728ZM22.0827 9.72507C22.9811 9.35293 23.9906 9.35293 24.8891 9.72507C25.2762 9.88545 25.6026 10.1239 25.922 10.4024C26.2287 10.67 26.5785 11.0198 26.9975 11.4388L27.036 11.4773C27.4594 11.9006 27.812 12.2533 28.0814 12.5626C28.3599 12.8822 28.5976 13.2083 28.7578 13.595C29.1299 14.4934 29.1299 15.503 28.7578 16.4014C28.5976 16.7881 28.3599 17.1142 28.0815 17.4339C27.8119 17.7433 27.459 18.0962 27.0353 18.5199L26.9975 18.5577C26.5785 18.9767 26.2287 19.3265 25.922 19.5941C25.6026 19.8726 25.2762 20.1111 24.8891 20.2714C23.9906 20.6436 22.9811 20.6436 22.0826 20.2714C21.6954 20.111 21.3689 19.8724 21.0496 19.5939C20.7428 19.3262 20.393 18.9764 19.9742 18.5576L19.9266 18.51C19.5075 18.091 19.1577 17.7411 18.8901 17.4343C18.6115 17.115 18.3731 16.7886 18.2127 16.4014C17.8406 15.503 17.8406 14.4934 18.2127 13.595C18.3731 13.2078 18.6116 12.8814 18.8901 12.562C19.1577 12.2553 19.5075 11.9055 19.9265 11.4866L19.9741 11.4389C20.3931 11.0199 20.7429 10.67 21.0497 10.4024C21.3691 10.1239 21.6955 9.88545 22.0827 9.72507ZM15.638 20.0585C15.2296 19.8893 14.7707 19.8893 14.3624 20.0585C14.2595 20.1011 14.1212 20.1838 13.8787 20.3953C13.6295 20.6127 13.3278 20.9136 12.8788 21.3626C12.43 21.8114 12.1291 22.1131 11.9116 22.3624C11.7001 22.6049 11.6174 22.7432 11.5748 22.846C11.4056 23.2544 11.4056 23.7134 11.5748 24.1217C11.6174 24.2246 11.7001 24.3629 11.9116 24.6054C12.129 24.8546 12.4299 25.1563 12.8789 25.6052C13.3276 26.054 13.6293 26.3549 13.8786 26.5724C14.1212 26.784 14.2596 26.8668 14.3623 26.9094C14.7707 27.0785 15.2296 27.0785 15.638 26.9094C15.7409 26.8667 15.8792 26.784 16.1216 26.5725C16.3709 26.3552 16.6726 26.0542 17.1215 25.6053C17.5702 25.1565 17.8708 24.8549 18.0877 24.6059C18.2987 24.3637 18.3815 24.2252 18.4243 24.1217C18.5935 23.7134 18.5935 23.2544 18.4243 22.846C18.3815 22.7426 18.2987 22.6041 18.0878 22.362C17.8708 22.113 17.5702 21.8113 17.1215 21.3626C16.6726 20.9136 16.3709 20.6127 16.1216 20.3953C15.8792 20.1838 15.7409 20.1011 15.638 20.0585ZM13.597 18.2107C14.4954 17.8386 15.5049 17.8386 16.4034 18.2107C16.7906 18.3711 17.1169 18.6095 17.4363 18.8881C17.7431 19.1557 18.0929 19.5056 18.512 19.9246L18.5502 19.9629C18.9736 20.3863 19.3264 20.739 19.5958 21.0483C19.8742 21.3679 20.1119 21.694 20.2721 22.0807C20.6442 22.9791 20.6442 23.9887 20.2721 24.8871C20.1119 25.2737 19.8742 25.5999 19.5958 25.9195C19.3262 26.229 18.9733 26.5819 18.5496 27.0056L18.5119 27.0433C18.0929 27.4623 17.7431 27.8121 17.4363 28.0797C17.1169 28.3583 16.7906 28.5967 16.4034 28.7571C15.5049 29.1292 14.4954 29.1293 13.5969 28.7571C13.2097 28.5967 12.8832 28.3581 12.5639 28.0796C12.2571 27.8119 11.9072 27.462 11.4884 27.0432L11.4408 26.9956C11.0218 26.5766 10.672 26.2268 10.4044 25.92C10.1258 25.6007 9.8874 25.2743 9.72702 24.8871C9.35488 23.9887 9.35488 22.9791 9.72702 22.0807C9.8874 21.6935 10.1259 21.3671 10.4045 21.0477C10.6721 20.7409 11.0219 20.3911 11.4408 19.9722L11.4884 19.9246C11.9075 19.5055 12.2573 19.1557 12.5641 18.8881C12.8834 18.6095 13.2098 18.3711 13.597 18.2107Z" fill="#2F38FB"/>
</svg>