<svg width="26" height="26" viewBox="0 0 26 26" fill="none" xmlns="http://www.w3.org/2000/svg">
<path fill-rule="evenodd" clip-rule="evenodd" d="M4.54673 5.96094C2.95662 7.86844 2 10.3225 2 13C2 19.0751 6.92487 24 13 24C15.6775 24 18.1316 23.0434 20.0391 21.4533L4.54673 5.96094ZM5.96094 4.54673L21.4533 20.0391C23.0434 18.1316 24 15.6775 24 13C24 6.92487 19.0751 2 13 2C10.3225 2 7.86844 2.95662 5.96094 4.54673ZM0 13C0 5.8203 5.8203 0 13 0C20.1797 0 26 5.8203 26 13C26 20.1797 20.1797 26 13 26C5.8203 26 0 20.1797 0 13Z" fill="#2F38FB"/>
</svg>