<svg width="1920" height="1080" viewBox="0 0 1920 1080" fill="none" xmlns="http://www.w3.org/2000/svg">
<g clip-path="url(#clip0_489_127477)">
<rect width="1920" height="1080" fill="white"/>
<g clip-path="url(#clip1_489_127477)">
<rect width="1920" height="1080" fill="#F4F4F6"/>
</g>
<rect x="753.5" y="627" width="419" height="110" rx="21" fill="#F4F4F6"/>
<rect x="753.5" y="627" width="419" height="110" rx="21" stroke="#99959D" stroke-width="6"/>
<path d="M797.972 706.504C796.484 706.504 794.612 706.36 792.356 706.072C790.148 705.784 787.964 705.136 785.804 704.128C783.644 703.072 781.748 701.56 780.116 699.592C778.532 697.624 777.596 694.984 777.308 691.672H785.444C785.636 693.352 786.236 694.696 787.244 695.704C788.3 696.664 789.452 697.384 790.7 697.864C791.948 698.344 793.268 698.656 794.66 698.8C796.052 698.944 797.276 699.016 798.332 699.016C799.532 699.016 800.78 698.92 802.076 698.728C803.42 698.488 804.62 698.08 805.676 697.504C806.78 696.928 807.692 696.112 808.412 695.056C809.132 694 809.492 692.632 809.492 690.952C809.492 689.176 809.108 687.808 808.34 686.848C807.572 685.84 806.612 685.12 805.46 684.688C804.356 684.208 803.132 683.92 801.788 683.824C800.492 683.728 799.268 683.68 798.116 683.68H791.636V676.552H797.396C798.548 676.504 799.724 676.36 800.924 676.12C802.124 675.88 803.204 675.496 804.164 674.968C805.124 674.392 805.916 673.648 806.54 672.736C807.164 671.776 807.524 670.576 807.62 669.136C807.62 667.648 807.284 666.448 806.612 665.536C805.988 664.576 805.172 663.832 804.164 663.304C803.204 662.776 802.124 662.416 800.924 662.224C799.724 662.032 798.548 661.936 797.396 661.936C796.1 661.936 794.804 662.08 793.508 662.368C792.26 662.608 791.132 663.016 790.124 663.592C789.116 664.168 788.3 664.888 787.676 665.752C787.052 666.616 786.716 667.648 786.668 668.848H778.532C778.532 666.352 779.036 664.216 780.044 662.44C781.1 660.616 782.492 659.128 784.22 657.976C785.996 656.776 788.036 655.912 790.34 655.384C792.644 654.808 795.068 654.52 797.612 654.52C799.868 654.52 802.076 654.736 804.236 655.168C806.396 655.552 808.316 656.248 809.996 657.256C811.724 658.264 813.116 659.632 814.172 661.36C815.228 663.04 815.756 665.176 815.756 667.768C815.756 668.728 815.636 669.736 815.396 670.792C815.204 671.8 814.844 672.784 814.316 673.744C813.836 674.704 813.14 675.64 812.228 676.552C811.364 677.416 810.284 678.184 808.988 678.856C811.868 679.576 814.052 681.04 815.54 683.248C817.076 685.408 817.844 687.976 817.844 690.952C817.844 693.832 817.268 696.28 816.116 698.296C815.012 700.264 813.524 701.872 811.652 703.12C809.828 704.32 807.716 705.184 805.316 705.712C802.916 706.24 800.468 706.504 797.972 706.504ZM849.991 701.32C848.743 703.096 847.087 704.416 845.023 705.28C842.959 706.096 840.655 706.504 838.111 706.504C836.095 706.504 834.247 706.264 832.567 705.784C830.935 705.304 829.495 704.584 828.247 703.624C826.999 702.616 826.015 701.392 825.295 699.952C824.575 698.464 824.215 696.784 824.215 694.912C824.215 692.848 824.623 691.096 825.439 689.656C826.255 688.168 827.359 686.968 828.751 686.056C830.191 685.144 831.871 684.472 833.791 684.04C835.711 683.56 837.727 683.32 839.839 683.32H849.559C849.559 680.536 848.935 678.376 847.687 676.84C846.439 675.304 844.255 674.512 841.135 674.464C839.311 674.464 837.727 674.776 836.383 675.4C835.087 676.024 834.223 677.056 833.791 678.496H825.367C825.655 676.48 826.303 674.776 827.311 673.384C828.367 671.992 829.615 670.84 831.055 669.928C832.543 669.016 834.175 668.368 835.951 667.984C837.775 667.6 839.599 667.408 841.423 667.408C843.775 667.408 845.959 667.72 847.975 668.344C849.991 668.968 851.743 670.024 853.231 671.512C854.911 673.24 856.039 675.304 856.615 677.704C857.191 680.104 857.479 682.72 857.479 685.552V706H850.351L849.991 701.32ZM849.559 689.152H841.639C840.247 689.152 838.855 689.272 837.463 689.512C836.071 689.704 834.871 690.208 833.863 691.024C832.903 691.792 832.423 692.92 832.423 694.408C832.423 696.232 833.071 697.624 834.367 698.584C835.711 699.496 837.343 699.952 839.263 699.952C840.751 699.952 842.119 699.76 843.367 699.376C844.663 698.992 845.767 698.368 846.679 697.504C847.591 696.592 848.287 695.464 848.767 694.12C849.295 692.728 849.559 691.072 849.559 689.152ZM866.292 706V668.056H893.724V675.184H874.5V706H866.292ZM907.688 720.76H899.48V668.056H907.256L907.688 673.456C909.08 671.488 910.88 670 913.088 668.992C915.344 667.936 917.696 667.408 920.144 667.408C922.736 667.408 925.064 667.888 927.128 668.848C929.192 669.76 930.944 671.056 932.384 672.736C933.872 674.416 934.976 676.456 935.696 678.856C936.464 681.208 936.848 683.896 936.848 686.92C936.848 689.752 936.488 692.368 935.768 694.768C935.048 697.168 933.968 699.256 932.528 701.032C931.136 702.76 929.384 704.104 927.272 705.064C925.208 706.024 922.688 706.504 919.712 706.504C917.408 706.504 915.2 706.144 913.088 705.424C911.024 704.656 909.224 703.408 907.688 701.68V720.76ZM918.416 699.376C920.192 699.376 921.728 699.064 923.024 698.44C924.32 697.768 925.376 696.88 926.192 695.776C927.056 694.672 927.68 693.376 928.064 691.888C928.496 690.4 928.712 688.792 928.712 687.064C928.712 685.336 928.496 683.728 928.064 682.24C927.68 680.704 927.056 679.384 926.192 678.28C925.376 677.176 924.296 676.312 922.952 675.688C921.656 675.064 920.096 674.752 918.272 674.752C916.64 674.752 915.128 675.088 913.736 675.76C912.392 676.432 911.264 677.32 910.352 678.424C909.44 679.528 908.744 680.848 908.264 682.384C907.832 683.872 907.616 685.408 907.616 686.992C907.616 688.72 907.832 690.352 908.264 691.888C908.696 693.376 909.344 694.672 910.208 695.776C911.12 696.832 912.248 697.696 913.592 698.368C914.936 699.04 916.544 699.376 918.416 699.376ZM971.274 668.056H980.274L969.33 699.952C967.938 703.888 966.666 707.368 965.514 710.392C964.41 713.416 963.09 715.936 961.554 717.952C960.018 719.968 958.122 721.48 955.866 722.488C953.658 723.544 950.754 724.072 947.154 724.072H945.93V716.728C946.122 716.728 946.314 716.728 946.506 716.728C947.946 716.728 949.218 716.56 950.322 716.224C951.474 715.888 952.506 715.384 953.418 714.712C954.33 714.04 955.122 713.152 955.794 712.048C956.466 710.992 957.09 709.768 957.666 708.376L940.458 668.056H950.106L961.914 698.08L971.274 668.056ZM1010.17 685.696C1012.19 686.368 1013.68 687.472 1014.64 689.008C1015.6 690.496 1016.08 692.176 1016.08 694.048C1016.08 694.144 1016.08 694.24 1016.08 694.336C1016.08 696.736 1015.6 698.728 1014.64 700.312C1013.68 701.896 1012.38 703.168 1010.75 704.128C1009.16 705.04 1007.44 705.664 1005.56 706C1003.74 706.336 1001.87 706.504 999.949 706.504C998.077 706.504 996.157 706.336 994.189 706C992.269 705.616 990.493 704.968 988.861 704.056C987.277 703.144 985.957 701.944 984.901 700.456C983.845 698.968 983.245 697.096 983.101 694.84H991.021C991.213 695.8 991.621 696.592 992.245 697.216C992.917 697.84 993.685 698.344 994.549 698.728C995.413 699.112 996.325 699.376 997.285 699.52C998.245 699.664 999.133 699.736 999.949 699.736C1000.81 699.736 1001.75 699.688 1002.76 699.592C1003.76 699.448 1004.65 699.208 1005.42 698.872C1006.24 698.488 1006.91 697.984 1007.44 697.36C1007.96 696.688 1008.23 695.824 1008.23 694.768C1008.23 692.944 1007.53 691.72 1006.14 691.096C1004.8 690.472 1003.09 690.16 1001.03 690.16H994.693V683.68H1000.38C1002.16 683.68 1003.67 683.32 1004.92 682.6C1006.16 681.88 1006.79 680.632 1006.79 678.856C1006.79 677.944 1006.55 677.2 1006.07 676.624C1005.64 676 1005.08 675.52 1004.41 675.184C1003.74 674.848 1003 674.632 1002.18 674.536C1001.36 674.392 1000.64 674.32 1000.02 674.32C999.205 674.32 998.365 674.392 997.501 674.536C996.637 674.632 995.821 674.848 995.053 675.184C994.285 675.52 993.637 675.976 993.109 676.552C992.581 677.128 992.269 677.872 992.173 678.784H984.325C984.517 676.528 985.117 674.68 986.125 673.24C987.133 671.752 988.381 670.576 989.869 669.712C991.357 668.848 992.989 668.248 994.765 667.912C996.589 667.576 998.389 667.408 1000.16 667.408C1001.94 667.408 1003.67 667.576 1005.35 667.912C1007.08 668.248 1008.66 668.872 1010.1 669.784C1011.54 670.696 1012.64 671.8 1013.41 673.096C1014.23 674.344 1014.64 675.976 1014.64 677.992C1014.64 679.816 1014.2 681.376 1013.34 682.672C1012.52 683.968 1011.47 684.976 1010.17 685.696ZM1023.37 706V668.056H1031.51V683.536H1037.34L1047.06 668.056H1056.42L1044.39 686.128L1057.35 706H1047.85L1037.84 690.664H1031.51V706H1023.37ZM1085.75 701.32C1084.5 703.096 1082.84 704.416 1080.78 705.28C1078.72 706.096 1076.41 706.504 1073.87 706.504C1071.85 706.504 1070 706.264 1068.32 705.784C1066.69 705.304 1065.25 704.584 1064 703.624C1062.76 702.616 1061.77 701.392 1061.05 699.952C1060.33 698.464 1059.97 696.784 1059.97 694.912C1059.97 692.848 1060.38 691.096 1061.2 689.656C1062.01 688.168 1063.12 686.968 1064.51 686.056C1065.95 685.144 1067.63 684.472 1069.55 684.04C1071.47 683.56 1073.48 683.32 1075.6 683.32H1085.32C1085.32 680.536 1084.69 678.376 1083.44 676.84C1082.2 675.304 1080.01 674.512 1076.89 674.464C1075.07 674.464 1073.48 674.776 1072.14 675.4C1070.84 676.024 1069.98 677.056 1069.55 678.496H1061.12C1061.41 676.48 1062.06 674.776 1063.07 673.384C1064.12 671.992 1065.37 670.84 1066.81 669.928C1068.3 669.016 1069.93 668.368 1071.71 667.984C1073.53 667.6 1075.36 667.408 1077.18 667.408C1079.53 667.408 1081.72 667.72 1083.73 668.344C1085.75 668.968 1087.5 670.024 1088.99 671.512C1090.67 673.24 1091.8 675.304 1092.37 677.704C1092.95 680.104 1093.24 682.72 1093.24 685.552V706H1086.11L1085.75 701.32ZM1085.32 689.152H1077.4C1076 689.152 1074.61 689.272 1073.22 689.512C1071.83 689.704 1070.63 690.208 1069.62 691.024C1068.66 691.792 1068.18 692.92 1068.18 694.408C1068.18 696.232 1068.83 697.624 1070.12 698.584C1071.47 699.496 1073.1 699.952 1075.02 699.952C1076.51 699.952 1077.88 699.76 1079.12 699.376C1080.42 698.992 1081.52 698.368 1082.44 697.504C1083.35 696.592 1084.04 695.464 1084.52 694.12C1085.05 692.728 1085.32 691.072 1085.32 689.152ZM1106.59 695.992C1108.12 695.992 1109.37 696.472 1110.33 697.432C1111.34 698.392 1111.84 699.688 1111.84 701.32C1111.84 703 1111.34 704.296 1110.33 705.208C1109.37 706.12 1108.12 706.576 1106.59 706.576C1105.05 706.576 1103.78 706.12 1102.77 705.208C1101.81 704.296 1101.33 703 1101.33 701.32C1101.33 699.688 1101.81 698.392 1102.77 697.432C1103.78 696.472 1105.05 695.992 1106.59 695.992ZM1124.37 695.992C1125.91 695.992 1127.15 696.472 1128.11 697.432C1129.12 698.392 1129.63 699.688 1129.63 701.32C1129.63 703 1129.12 704.296 1128.11 705.208C1127.15 706.12 1125.91 706.576 1124.37 706.576C1122.83 706.576 1121.56 706.12 1120.55 705.208C1119.59 704.296 1119.11 703 1119.11 701.32C1119.11 699.688 1119.59 698.392 1120.55 697.432C1121.56 696.472 1122.83 695.992 1124.37 695.992ZM1142.08 695.992C1143.62 695.992 1144.87 696.472 1145.83 697.432C1146.83 698.392 1147.34 699.688 1147.34 701.32C1147.34 703 1146.83 704.296 1145.83 705.208C1144.87 706.12 1143.62 706.576 1142.08 706.576C1140.55 706.576 1139.27 706.12 1138.27 705.208C1137.31 704.296 1136.83 703 1136.83 701.32C1136.83 699.688 1137.31 698.392 1138.27 697.432C1139.27 696.472 1140.55 695.992 1142.08 695.992Z" fill="black"/>
<g clip-path="url(#clip2_489_127477)">
<path d="M851.969 450.365L821.598 371.772H840.691L862.488 432.22L884.166 371.772H903.258L872.948 450.365H851.969Z" fill="#292929"/>
<path d="M908.617 378.372C908.617 376.601 909.142 374.871 910.125 373.399C911.108 371.927 912.506 370.78 914.141 370.102C915.776 369.424 917.576 369.246 919.312 369.591C921.048 369.936 922.643 370.788 923.895 372.039C925.148 373.29 926.001 374.884 926.347 376.62C926.694 378.356 926.518 380.155 925.842 381.791C925.165 383.427 924.019 384.826 922.548 385.81C921.077 386.795 919.347 387.322 917.577 387.323C916.401 387.324 915.236 387.094 914.149 386.644C913.062 386.195 912.074 385.536 911.242 384.704C910.41 383.873 909.75 382.886 909.299 381.799C908.849 380.713 908.617 379.548 908.617 378.372ZM910.151 450.365V393.449H925.116V450.365H910.151Z" fill="#292929"/>
<path d="M935.041 442.938L941.52 432.453C945.647 436.338 954.125 440.207 961.199 440.207C967.678 440.207 970.745 437.622 970.745 434.081C970.745 424.655 936.928 432.358 936.928 409.957C936.928 400.411 945.294 392.045 960.26 392.045C968.582 391.917 976.695 394.655 983.238 399.799L977.207 410.052C973.76 406.399 967.307 403.452 960.354 403.452C954.935 403.452 951.403 405.925 951.403 409.104C951.403 417.59 985.099 410.517 985.099 433.495C985.099 443.834 976.259 451.76 960.475 451.76C950.593 451.752 941.047 448.478 935.041 442.938Z" fill="#292929"/>
<path d="M994.662 378.372C994.662 376.601 995.187 374.87 996.171 373.398C997.155 371.926 998.553 370.779 1000.19 370.101C1001.82 369.424 1003.62 369.246 1005.36 369.592C1007.1 369.937 1008.69 370.79 1009.94 372.042C1011.2 373.294 1012.05 374.889 1012.39 376.625C1012.74 378.362 1012.56 380.162 1011.88 381.797C1011.21 383.433 1010.06 384.831 1008.59 385.815C1007.12 386.798 1005.38 387.323 1003.61 387.323C1001.24 387.323 998.963 386.38 997.284 384.701C995.605 383.023 994.662 380.746 994.662 378.372ZM996.196 450.365V393.449H1011.14V450.365H996.196Z" fill="#292929"/>
<path d="M1022.34 421.847C1022.34 405.701 1033.66 392.036 1052.4 392.036C1071.14 392.036 1082.55 405.701 1082.55 421.847C1082.55 437.992 1071.23 451.752 1052.4 451.752C1033.56 451.752 1022.34 438.113 1022.34 421.847ZM1067 421.847C1067 413.007 1061.69 405.347 1052.35 405.347C1043.01 405.347 1037.85 412.981 1037.85 421.847C1037.85 430.712 1043.02 438.458 1052.34 438.458C1061.67 438.458 1066.99 430.807 1066.99 421.847H1067Z" fill="#292929"/>
<path d="M1132.06 450.365V415.962C1132.06 408.07 1127.93 405.356 1121.57 405.356C1119.04 405.389 1116.56 406.014 1114.31 407.181C1112.07 408.348 1110.13 410.024 1108.65 412.076V450.373H1093.64V393.449H1108.61V400.876C1111.09 398.053 1114.16 395.801 1117.59 394.275C1121.03 392.749 1124.76 391.985 1128.52 392.036C1141.01 392.036 1147.01 399.11 1147.01 410.181V450.365H1132.06Z" fill="#292929"/>
<path d="M1162.22 450.365V371.772H1178.95V435.64H1212.18V450.373L1162.22 450.365Z" fill="#292929"/>
<path d="M1256.84 450.365V444.471C1252.95 449.064 1246.23 451.778 1238.82 451.778C1229.74 451.778 1219 445.652 1219 432.926C1219 419.615 1229.73 414.54 1238.82 414.54C1246.35 414.54 1253.07 417.013 1256.84 421.493V413.843C1256.84 408.07 1251.89 404.296 1244.35 404.296C1238.15 404.296 1232.19 406.706 1227.74 411.017L1222.08 400.988C1229 395.067 1237.84 391.883 1246.95 392.036C1259.87 392.036 1271.81 397.206 1271.81 413.575V450.339L1256.84 450.365ZM1256.84 436.7V429.627C1254.37 426.327 1249.65 424.681 1244.82 424.681C1238.93 424.681 1234.09 427.748 1234.09 433.297C1234.09 438.596 1238.93 441.663 1244.82 441.663C1249.65 441.646 1254.37 440 1256.84 436.7Z" fill="#292929"/>
<path d="M1286.66 450.365V371.772H1301.62V400.755C1303.67 398.036 1306.32 395.832 1309.37 394.319C1312.42 392.805 1315.78 392.023 1319.18 392.036C1333.67 392.036 1344.4 403.349 1344.4 421.967C1344.4 440.922 1333.56 451.778 1319.18 451.778C1315.78 451.772 1312.43 450.983 1309.38 449.471C1306.34 447.959 1303.68 445.764 1301.62 443.059V450.365H1286.66ZM1314.42 438.466C1323.14 438.466 1328.91 431.867 1328.91 421.967C1328.91 412.068 1323.16 405.356 1314.42 405.356C1309.58 405.356 1304.08 408.182 1301.57 411.956V432.108C1304.08 435.752 1309.63 438.466 1314.42 438.466Z" fill="#292929"/>
<path d="M1350.76 442.938L1357.24 432.453C1361.37 436.338 1369.84 440.207 1376.92 440.207C1383.4 440.207 1386.46 437.622 1386.46 434.081C1386.46 424.655 1352.65 432.358 1352.65 409.957C1352.65 400.411 1361.01 392.045 1375.98 392.045C1384.3 391.917 1392.41 394.655 1398.96 399.799L1392.92 410.052C1389.48 406.399 1383.03 403.452 1376.07 403.452C1370.65 403.452 1367.12 405.925 1367.12 409.104C1367.12 417.59 1400.83 410.517 1400.83 433.495C1400.83 443.834 1391.99 451.76 1376.2 451.76C1366.31 451.752 1356.76 448.478 1350.76 442.938Z" fill="#292929"/>
<path d="M868.537 516.37V496.235L860.18 516.37H858.138L849.823 496.192V516.37H845.059V489.222H851.753L859.128 507.117L866.547 489.222H873.293V516.37H868.537Z" fill="#575757"/>
<path d="M909.479 516.37L907.514 511.2H895.065L893.074 516.37H887.655L898.278 489.222H904.232L914.932 516.37H909.479ZM901.242 493.969L896.348 506.893H906.127L901.242 493.969Z" fill="#575757"/>
<path d="M926.71 502.835C926.71 494.477 932.948 488.774 940.978 488.774C943.18 488.72 945.356 489.26 947.278 490.336C949.2 491.412 950.797 492.986 951.903 494.891L947.828 496.967C947.123 495.774 946.122 494.783 944.922 494.09C943.722 493.398 942.364 493.026 940.978 493.013C935.602 493.013 931.604 497.131 931.604 502.835C931.604 508.538 935.602 512.657 940.978 512.657C942.364 512.647 943.725 512.278 944.925 511.584C946.126 510.891 947.126 509.898 947.828 508.702L951.903 510.778C950.791 512.678 949.193 514.247 947.272 515.322C945.351 516.397 943.179 516.941 940.978 516.895C932.931 516.895 926.71 511.2 926.71 502.835Z" fill="#575757"/>
<path d="M986.03 516.37V504.549H971.883V516.37H967.118V489.222H971.883V500.345H986.021V489.222H990.785V516.37H986.03Z" fill="#575757"/>
<path d="M1007.99 516.37V489.222H1012.76V516.37H1007.99Z" fill="#575757"/>
<path d="M1048.91 516.37L1034.73 496.967V516.37H1029.96V489.222H1034.86L1048.75 508.09V489.222H1053.53V516.37H1048.91Z" fill="#575757"/>
<path d="M1070.71 516.37V489.222H1089.34V493.418H1075.48V500.465H1089.05V504.661H1075.48V512.2H1089.33V516.37H1070.71Z" fill="#575757"/>
<path d="M1103.88 512.579L1106.53 508.909C1107.63 510.093 1108.96 511.037 1110.45 511.682C1111.93 512.327 1113.53 512.659 1115.15 512.657C1119.06 512.657 1120.61 510.744 1120.61 508.952C1120.61 503.248 1104.75 506.789 1104.75 496.769C1104.75 492.289 1108.71 488.825 1114.65 488.825C1116.52 488.752 1118.38 489.05 1120.13 489.7C1121.88 490.351 1123.48 491.342 1124.85 492.616L1122.12 496.166C1120.01 494.134 1117.18 493.021 1114.25 493.073C1111.44 493.073 1109.65 494.417 1109.65 496.459C1109.65 501.516 1125.46 498.372 1125.46 508.521C1125.46 513.044 1122.28 516.913 1114.95 516.913C1109.92 516.895 1106.29 515.146 1103.88 512.579Z" fill="#575757"/>
<path d="M1161.92 502.835C1161.92 494.477 1168.16 488.774 1176.19 488.774C1178.39 488.72 1180.57 489.26 1182.49 490.336C1184.41 491.412 1186.01 492.986 1187.11 494.891L1183.04 496.967C1182.33 495.774 1181.33 494.783 1180.13 494.09C1178.93 493.398 1177.57 493.026 1176.19 493.013C1170.81 493.013 1166.81 497.131 1166.81 502.835C1166.81 508.538 1170.81 512.657 1176.19 512.657C1177.57 512.647 1178.93 512.278 1180.13 511.584C1181.34 510.891 1182.34 509.898 1183.04 508.702L1187.11 510.778C1186 512.678 1184.4 514.247 1182.48 515.322C1180.56 516.397 1178.39 516.941 1176.19 516.895C1168.15 516.895 1161.92 511.2 1161.92 502.835Z" fill="#575757"/>
<path d="M1221.17 516.37L1219.17 511.2H1206.72L1204.72 516.37H1199.3L1209.98 489.187H1215.93L1226.54 516.37H1221.17ZM1212.94 493.969L1208.05 506.893H1217.83L1212.94 493.969Z" fill="#575757"/>
<path d="M1259.92 516.37L1245.74 496.967V516.37H1240.98V489.222H1245.87L1259.77 508.09V489.222H1264.53V516.37H1259.92Z" fill="#575757"/>
<path d="M1301.86 512.579L1304.5 508.909C1305.6 510.093 1306.94 511.037 1308.42 511.682C1309.9 512.327 1311.5 512.659 1313.12 512.657C1317.03 512.657 1318.58 510.744 1318.58 508.952C1318.58 503.248 1302.73 506.789 1302.73 496.769C1302.73 492.289 1306.68 488.825 1312.63 488.825C1314.49 488.752 1316.35 489.05 1318.1 489.7C1319.85 490.351 1321.45 491.342 1322.82 492.616L1320.09 496.166C1317.98 494.134 1315.15 493.021 1312.22 493.073C1309.41 493.073 1307.62 494.417 1307.62 496.459C1307.62 501.516 1323.43 498.372 1323.43 508.521C1323.43 513.044 1320.25 516.913 1312.92 516.913C1307.89 516.895 1304.26 515.146 1301.86 512.579Z" fill="#575757"/>
<path d="M1339.23 516.37V489.222H1357.86V493.418H1344V500.465H1357.57V504.661H1344V512.2H1357.85V516.37H1339.23Z" fill="#575757"/>
<path d="M1374.15 516.37V489.222H1392.82V493.418H1378.92V500.465H1392.49V504.661H1378.92V512.2H1392.82V516.37H1374.15Z" fill="#575757"/>
<path d="M760.219 440.086C760.219 472.163 747.477 502.927 724.795 525.609C702.112 548.291 671.349 561.034 639.272 561.034C607.194 561.034 576.431 548.291 553.749 525.609C531.067 502.927 518.324 472.163 518.324 440.086C518.328 440.069 518.337 440.054 518.349 440.042C518.361 440.03 518.376 440.021 518.393 440.017C533.425 423.209 551.805 409.729 572.353 400.441C592.901 391.152 615.163 386.262 637.712 386.083C623.699 386.517 610.405 392.388 600.646 402.454C590.888 412.52 585.43 425.989 585.43 440.009C585.43 454.028 590.888 467.497 600.646 477.563C610.405 487.629 623.699 493.501 637.712 493.934H640.831C663.378 493.748 685.638 488.856 706.186 479.572C726.734 470.287 745.117 456.815 760.159 440.017C760.159 440.017 760.202 440.052 760.219 440.086Z" fill="url(#paint0_linear_489_127477)"/>
<path d="M760.219 439.931L760.159 440.017C745.121 456.82 726.741 470.298 706.195 479.589C685.648 488.879 663.388 493.777 640.84 493.969C654.853 493.535 668.147 487.663 677.905 477.598C687.664 467.532 693.122 454.063 693.122 440.043C693.122 426.023 687.664 412.554 677.905 402.488C668.147 392.423 654.853 386.551 640.84 386.117H637.721C615.178 386.295 592.922 391.181 572.378 400.462C551.833 409.742 533.454 423.212 518.419 440.009L518.35 439.922C518.619 408.025 531.479 377.526 554.129 355.066C576.78 332.606 607.386 320.004 639.285 320.004C671.183 320.004 701.789 332.606 724.44 355.066C747.09 377.526 759.95 408.025 760.219 439.922V439.931Z" fill="url(#paint1_linear_489_127477)"/>
<path d="M628.605 387.134C632.844 386.445 635.765 386.203 636.997 386.126C634.177 386.237 631.371 386.574 628.605 387.134Z" fill="url(#paint2_radial_489_127477)"/>
<path d="M632.052 386.522C632.517 386.47 633.878 386.298 635.136 386.203C636.394 386.109 637.66 386.074 637.66 386.074C619.572 386.254 601.64 389.439 584.596 395.5C541.965 410.689 518.324 440.069 518.324 440.069C517.841 458.972 524.88 479.503 524.88 479.503C529.921 493.731 537.49 506.933 547.221 518.472C547.221 518.472 574.886 448.168 590.067 417.763C592.747 412.447 598.881 400.057 614.82 391.916C620.216 389.152 626.043 387.328 632.052 386.522Z" fill="url(#paint3_linear_489_127477)"/>
</g>
</g>
<defs>
<linearGradient id="paint0_linear_489_127477" x1="518.35" y1="473.041" x2="760.219" y2="473.041" gradientUnits="userSpaceOnUse">
<stop stop-color="#8A3D79"/>
<stop offset="0.25" stop-color="#824E88"/>
<stop offset="0.61" stop-color="#3A97BA"/>
<stop offset="0.74" stop-color="#2AB2C7"/>
<stop offset="1" stop-color="#7EE8FC"/>
</linearGradient>
<linearGradient id="paint1_linear_489_127477" x1="518.35" y1="406.984" x2="723.301" y2="406.984" gradientUnits="userSpaceOnUse">
<stop stop-color="#B81F68"/>
<stop offset="0.25" stop-color="#ED1F55"/>
<stop offset="0.5" stop-color="#FC4844"/>
<stop offset="0.75" stop-color="#FC972B"/>
<stop offset="1" stop-color="#FBC325"/>
</linearGradient>
<radialGradient id="paint2_radial_489_127477" cx="0" cy="0" r="1" gradientUnits="userSpaceOnUse" gradientTransform="translate(549.03 417.866) scale(79.575 79.5748)">
<stop stop-color="#70025A"/>
<stop offset="1" stop-color="#070606" stop-opacity="0"/>
</radialGradient>
<linearGradient id="paint3_linear_489_127477" x1="614.329" y1="472.826" x2="517.833" y2="382.076" gradientUnits="userSpaceOnUse">
<stop offset="0.37" stop-color="#5C2350" stop-opacity="0"/>
<stop offset="0.68" stop-color="#4F1744" stop-opacity="0.9"/>
</linearGradient>
<clipPath id="clip0_489_127477">
<rect width="1920" height="1080" fill="white"/>
</clipPath>
<clipPath id="clip1_489_127477">
<rect width="1920" height="1080" fill="white"/>
</clipPath>
<clipPath id="clip2_489_127477">
<rect width="884" height="240" fill="white" transform="translate(517.5 320)"/>
</clipPath>
</defs>
</svg>
