<svg width="222" height="60" viewBox="0 0 222 60" fill="none" xmlns="http://www.w3.org/2000/svg">
<g clip-path="url(#clip0_3008_258407)">
<path d="M84.1161 32.5912L76.5234 12.943H81.2966L86.746 28.055L92.1653 12.943H96.9384L89.3609 32.5912H84.1161Z" fill="#292929"/>
<path d="M98.2773 14.5929C98.2773 14.1504 98.4085 13.7178 98.6544 13.3498C98.9002 12.9818 99.2496 12.695 99.6584 12.5255C100.067 12.3561 100.517 12.3116 100.951 12.3978C101.385 12.484 101.784 12.6969 102.097 13.0097C102.41 13.3224 102.623 13.721 102.71 14.155C102.797 14.5889 102.753 15.0389 102.583 15.4478C102.414 15.8568 102.128 16.2065 101.76 16.4526C101.392 16.6988 100.96 16.8304 100.517 16.8308C100.223 16.8311 99.9321 16.7734 99.6603 16.6611C99.3886 16.5488 99.1416 16.384 98.9336 16.1761C98.7255 15.9683 98.5605 15.7215 98.4479 15.4498C98.3353 15.1781 98.2773 14.887 98.2773 14.5929ZM98.6607 32.5912V18.3623H102.402V32.5912H98.6607Z" fill="#292929"/>
<path d="M104.887 30.7345L106.506 28.1131C107.538 29.0846 109.658 30.0517 111.426 30.0517C113.046 30.0517 113.813 29.4055 113.813 28.5202C113.813 26.1638 105.358 28.0894 105.358 22.4892C105.358 20.1027 107.45 18.0112 111.191 18.0112C113.272 17.9793 115.3 18.6638 116.936 19.9497L115.428 22.5129C114.566 21.5996 112.953 20.863 111.215 20.863C109.86 20.863 108.977 21.4812 108.977 22.276C108.977 24.3976 117.401 22.6292 117.401 28.3738C117.401 30.9585 115.191 32.9401 111.245 32.9401C108.775 32.9379 106.388 32.1195 104.887 30.7345Z" fill="#292929"/>
<path d="M119.789 14.5929C119.789 14.1503 119.92 13.7176 120.166 13.3496C120.412 12.9815 120.762 12.6947 121.171 12.5253C121.58 12.3559 122.029 12.3116 122.464 12.398C122.898 12.4843 123.296 12.6974 123.609 13.0104C123.922 13.3234 124.136 13.7222 124.222 14.1563C124.308 14.5904 124.264 15.0404 124.095 15.4493C123.925 15.8582 123.638 16.2078 123.27 16.4537C122.902 16.6996 122.47 16.8308 122.027 16.8308C121.433 16.8308 120.864 16.595 120.445 16.1754C120.025 15.7557 119.789 15.1864 119.789 14.5929ZM120.172 32.5912V18.3623H123.91V32.5912H120.172Z" fill="#292929"/>
<path d="M126.711 25.4616C126.711 21.4252 129.539 18.009 134.224 18.009C138.909 18.009 141.763 21.4252 141.763 25.4616C141.763 29.4981 138.932 32.938 134.224 32.938C129.515 32.938 126.711 29.5283 126.711 25.4616ZM137.875 25.4616C137.875 23.2517 136.548 21.3369 134.213 21.3369C131.878 21.3369 130.588 23.2452 130.588 25.4616C130.588 27.678 131.88 29.6144 134.211 29.6144C136.541 29.6144 137.873 27.7017 137.873 25.4616H137.875Z" fill="#292929"/>
<path d="M154.14 32.5912V23.9905C154.14 22.0175 153.108 21.339 151.518 21.339C150.886 21.3472 150.264 21.5034 149.703 21.7951C149.142 22.0869 148.657 22.5061 148.287 23.0191V32.5933H144.535V18.3623H148.277V20.219C148.898 19.5132 149.664 18.9502 150.523 18.5688C151.383 18.1873 152.314 17.9963 153.254 18.009C156.377 18.009 157.879 19.7774 157.879 22.5452V32.5912H154.14Z" fill="#292929"/>
<path d="M161.68 32.5912V12.943H165.863V28.9101H174.17V32.5933L161.68 32.5912Z" fill="#292929"/>
<path d="M185.335 32.5912V31.1179C184.364 32.2659 182.684 32.9444 180.829 32.9444C178.561 32.9444 175.875 31.413 175.875 28.2316C175.875 24.9038 178.557 23.6351 180.829 23.6351C182.714 23.6351 184.394 24.2533 185.335 25.3733V23.4606C185.335 22.0175 184.099 21.0741 182.212 21.0741C180.662 21.0741 179.173 21.6766 178.059 22.7541L176.646 20.247C178.375 18.7668 180.586 17.9707 182.862 18.009C186.093 18.009 189.079 19.3014 189.079 23.3939V32.5847L185.335 32.5912ZM185.335 29.175V27.4066C184.717 26.5817 183.539 26.1703 182.33 26.1703C180.857 26.1703 179.649 26.9371 179.649 28.3242C179.649 29.6489 180.857 30.4157 182.33 30.4157C183.539 30.4114 184.717 30 185.335 29.175Z" fill="#292929"/>
<path d="M192.789 32.5912V12.943H196.53V20.1888C197.042 19.509 197.705 18.9581 198.467 18.5796C199.23 18.2012 200.069 18.0059 200.92 18.009C204.543 18.009 207.225 20.8371 207.225 25.4918C207.225 30.2305 204.515 32.9444 200.92 32.9444C200.07 32.9431 199.232 32.7458 198.47 32.3677C197.709 31.9896 197.045 31.4411 196.53 30.7646V32.5912H192.789ZM199.729 29.6166C201.909 29.6166 203.352 27.9667 203.352 25.4918C203.352 23.0169 201.915 21.339 199.729 21.339C198.521 21.339 197.144 22.0455 196.518 22.9889V28.027C197.144 28.9381 198.531 29.6166 199.729 29.6166Z" fill="#292929"/>
<path d="M208.816 30.7345L210.436 28.1131C211.468 29.0846 213.587 30.0517 215.356 30.0517C216.976 30.0517 217.742 29.4055 217.742 28.5202C217.742 26.1638 209.288 28.0894 209.288 22.4892C209.288 20.1027 211.38 18.0112 215.121 18.0112C217.201 17.9793 219.23 18.6638 220.866 19.9497L219.358 22.5129C218.496 21.5996 216.883 20.863 215.145 20.863C213.79 20.863 212.907 21.4812 212.907 22.276C212.907 24.3976 221.333 22.6292 221.333 28.3738C221.333 30.9585 219.123 32.9401 215.177 32.9401C212.704 32.9379 210.318 32.1195 208.816 30.7345Z" fill="#292929"/>
<path d="M88.2601 49.0925V44.0587L86.1708 49.0925H85.6603L83.5818 44.048V49.0925H82.3906V42.3054H84.0642L85.908 46.7791L87.7625 42.3054H89.4491V49.0925H88.2601Z" fill="#575757"/>
<path d="M98.495 49.0925L98.0039 47.8001H94.8914L94.3939 49.0925H93.0391L95.6949 42.3054H97.1832L99.8584 49.0925H98.495ZM96.4358 43.4922L95.2124 46.7231H97.6571L96.4358 43.4922Z" fill="#575757"/>
<path d="M102.801 45.7086C102.801 43.6193 104.36 42.1934 106.368 42.1934C106.918 42.1801 107.462 42.315 107.943 42.584C108.423 42.8531 108.823 43.2464 109.099 43.7227L108.08 44.2418C107.904 43.9435 107.654 43.6958 107.354 43.5226C107.054 43.3494 106.714 43.2566 106.368 43.2532C105.024 43.2532 104.024 44.2827 104.024 45.7086C104.024 47.1345 105.024 48.1641 106.368 48.1641C106.714 48.1618 107.054 48.0694 107.355 47.8961C107.655 47.7228 107.905 47.4745 108.08 47.1755L109.099 47.6946C108.821 48.1695 108.421 48.5617 107.941 48.8305C107.461 49.0994 106.918 49.2352 106.368 49.2239C104.356 49.2239 102.801 47.8001 102.801 45.7086Z" fill="#575757"/>
<path d="M117.634 49.0925V46.1373H114.097V49.0925H112.906V42.3054H114.097V45.0862H117.632V42.3054H118.823V49.0925H117.634Z" fill="#575757"/>
<path d="M123.121 49.0925V42.3054H124.312V49.0925H123.121Z" fill="#575757"/>
<path d="M133.354 49.0925L129.808 44.2418V49.0925H128.617V42.3054H129.841L133.315 47.0225V42.3054H134.508V49.0925H133.354Z" fill="#575757"/>
<path d="M138.805 49.0925V42.3054H143.461V43.3544H139.996V45.1163H143.388V46.1653H139.996V48.05H143.459V49.0925H138.805Z" fill="#575757"/>
<path d="M147.098 48.1448L147.759 47.2272C148.034 47.5232 148.367 47.7592 148.738 47.9205C149.109 48.0817 149.509 48.1646 149.913 48.1641C150.891 48.1641 151.278 47.686 151.278 47.2379C151.278 45.812 147.315 46.6973 147.315 44.1923C147.315 43.0722 148.304 42.2064 149.79 42.2064C150.256 42.1881 150.722 42.2624 151.159 42.4251C151.596 42.5878 151.997 42.8355 152.338 43.1541L151.655 44.0415C151.128 43.5334 150.421 43.2553 149.689 43.2682C148.987 43.2682 148.539 43.6043 148.539 44.1147C148.539 45.3791 152.491 44.5929 152.491 47.1302C152.491 48.2611 151.696 49.2282 149.863 49.2282C148.605 49.2239 147.699 48.7866 147.098 48.1448Z" fill="#575757"/>
<path d="M161.605 45.7086C161.605 43.6193 163.165 42.1934 165.172 42.1934C165.723 42.1801 166.267 42.315 166.747 42.584C167.228 42.8531 167.627 43.2464 167.904 43.7227L166.885 44.2418C166.709 43.9435 166.458 43.6958 166.158 43.5226C165.858 43.3494 165.519 43.2566 165.172 43.2532C163.828 43.2532 162.829 44.2827 162.829 45.7086C162.829 47.1345 163.828 48.1641 165.172 48.1641C165.519 48.1618 165.859 48.0694 166.159 47.8961C166.459 47.7228 166.709 47.4745 166.885 47.1755L167.904 47.6946C167.626 48.1695 167.226 48.5617 166.746 48.8305C166.266 49.0994 165.723 49.2352 165.172 49.2239C163.163 49.2239 161.605 47.8001 161.605 45.7086Z" fill="#575757"/>
<path d="M176.416 49.0925L175.916 47.8001H172.804L172.304 49.0925H170.949L173.618 42.2968H175.106L177.758 49.0925H176.416ZM174.359 43.4922L173.135 46.7232H175.58L174.359 43.4922Z" fill="#575757"/>
<path d="M186.108 49.0925L182.562 44.2418V49.0925H181.371V42.3054H182.595L186.069 47.0225V42.3054H187.26V49.0925H186.108Z" fill="#575757"/>
<path d="M196.59 48.1448L197.251 47.2272C197.526 47.5232 197.86 47.7592 198.23 47.9205C198.601 48.0817 199.001 48.1646 199.405 48.1641C200.383 48.1641 200.771 47.686 200.771 47.2379C200.771 45.812 196.807 46.6973 196.807 44.1923C196.807 43.0722 197.796 42.2064 199.282 42.2064C199.749 42.1881 200.214 42.2624 200.651 42.4251C201.089 42.5878 201.489 42.8355 201.83 43.1541L201.148 44.0415C200.62 43.5334 199.913 43.2553 199.181 43.2682C198.479 43.2682 198.031 43.6043 198.031 44.1147C198.031 45.3791 201.983 44.5929 201.983 47.1302C201.983 48.2611 201.188 49.2282 199.356 49.2282C198.098 49.2239 197.191 48.7866 196.59 48.1448Z" fill="#575757"/>
<path d="M205.934 49.0925V42.3054H210.59V43.3544H207.125V45.1163H210.517V46.1653H207.125V48.05H210.588V49.0925H205.934Z" fill="#575757"/>
<path d="M214.664 49.0925V42.3054H219.332V43.3544H215.857V45.1163H219.25V46.1653H215.857V48.05H219.332V49.0925H214.664Z" fill="#575757"/>
<path d="M61.1809 30.0215C61.1809 38.0409 57.9952 45.7317 52.3247 51.4023C46.6542 57.0728 38.9633 60.2585 30.944 60.2585C22.9246 60.2585 15.2337 57.0728 9.56322 51.4023C3.8927 45.7317 0.707031 38.0409 0.707031 30.0215C0.708073 30.0174 0.710227 30.0136 0.713262 30.0105C0.716297 30.0075 0.720099 30.0053 0.724263 30.0043C4.48236 25.8023 9.07728 22.4321 14.2143 20.1101C19.3512 17.7881 24.9169 16.5655 30.5541 16.5207C27.0508 16.6291 23.7274 18.0971 21.2877 20.6135C18.848 23.1299 17.4836 26.4972 17.4836 30.0021C17.4836 33.5071 18.848 36.8744 21.2877 39.3908C23.7274 41.9072 27.0508 43.3751 30.5541 43.4836H31.3338C36.9707 43.437 42.5357 42.214 47.6726 39.8929C52.8096 37.5718 57.4054 34.2037 61.1658 30.0043C61.1658 30.0043 61.1766 30.0129 61.1809 30.0215Z" fill="url(#paint0_linear_3008_258407)"/>
<path d="M61.1783 29.9828L61.1633 30.0043C57.4039 34.205 52.8088 37.5745 47.6721 39.8971C42.5355 42.2197 36.9705 43.4442 31.3334 43.4922C34.8367 43.3838 38.1601 41.9158 40.5999 39.3994C43.0396 36.883 44.4039 33.5157 44.4039 30.0108C44.4039 26.5058 43.0396 23.1385 40.5999 20.6221C38.1601 18.1057 34.8367 16.6378 31.3334 16.5293H30.5537C24.9181 16.5739 19.354 17.7953 14.2179 20.1154C9.08181 22.4355 4.48708 25.803 0.728169 30.0021L0.710938 29.9806C0.778245 22.0063 3.99323 14.3816 9.65584 8.76654C15.3184 3.15152 22.9701 0.00100708 30.9446 0.00100708C38.9192 0.00100708 46.5708 3.15152 52.2334 8.76654C57.8961 14.3816 61.111 22.0063 61.1783 29.9806V29.9828Z" fill="url(#paint1_linear_3008_258407)"/>
<path d="M28.2773 16.7834C29.3371 16.6111 30.0673 16.5508 30.3753 16.5314C29.6704 16.5593 28.9688 16.6436 28.2773 16.7834Z" fill="url(#paint2_radial_3008_258407)"/>
<path d="M29.1371 16.6305C29.2534 16.6176 29.5937 16.5745 29.9082 16.5508C30.2227 16.5271 30.5393 16.5185 30.5393 16.5185C26.0173 16.5636 21.5341 17.3599 17.2732 18.8749C6.61554 22.6723 0.705148 30.0172 0.705148 30.0172C0.584528 34.743 2.34429 39.8758 2.34429 39.8758C3.60457 43.4328 5.49663 46.7332 7.92944 49.618C7.92944 49.618 14.8457 32.0419 18.641 24.4407C19.3108 23.1117 20.8444 20.0144 24.8292 17.9789C26.1781 17.288 27.635 16.832 29.1371 16.6305Z" fill="url(#paint3_linear_3008_258407)"/>
</g>
<defs>
<linearGradient id="paint0_linear_3008_258407" x1="0.713493" y1="38.2603" x2="61.1809" y2="38.2603" gradientUnits="userSpaceOnUse">
<stop stop-color="#8A3D79"/>
<stop offset="0.25" stop-color="#824E88"/>
<stop offset="0.61" stop-color="#3A97BA"/>
<stop offset="0.74" stop-color="#2AB2C7"/>
<stop offset="1" stop-color="#7EE8FC"/>
</linearGradient>
<linearGradient id="paint1_linear_3008_258407" x1="0.710938" y1="21.7461" x2="51.9487" y2="21.7461" gradientUnits="userSpaceOnUse">
<stop stop-color="#B81F68"/>
<stop offset="0.25" stop-color="#ED1F55"/>
<stop offset="0.5" stop-color="#FC4844"/>
<stop offset="0.75" stop-color="#FC972B"/>
<stop offset="1" stop-color="#FBC325"/>
</linearGradient>
<radialGradient id="paint2_radial_3008_258407" cx="0" cy="0" r="1" gradientUnits="userSpaceOnUse" gradientTransform="translate(8.38359 24.4665) scale(19.8937 19.8937)">
<stop stop-color="#70025A"/>
<stop offset="1" stop-color="#070606" stop-opacity="0"/>
</radialGradient>
<linearGradient id="paint3_linear_3008_258407" x1="24.7064" y1="38.2065" x2="0.582372" y2="15.5191" gradientUnits="userSpaceOnUse">
<stop offset="0.37" stop-color="#5C2350" stop-opacity="0"/>
<stop offset="0.68" stop-color="#4F1744" stop-opacity="0.9"/>
</linearGradient>
<clipPath id="clip0_3008_258407">
<rect width="221" height="60" fill="white" transform="translate(0.5)"/>
</clipPath>
</defs>
</svg>
