<svg width="22" height="22" viewBox="0 0 22 22" fill="none" xmlns="http://www.w3.org/2000/svg">
<path fill-rule="evenodd" clip-rule="evenodd" d="M10.6757 1.5C6.43411 1.5 2.67186 4.53644 1.73295 8.65528C4.16809 6.64282 7.26693 5.49677 10.4275 5.4459C13.3428 5.30104 15.8434 7.73573 15.8434 10.6354C15.8434 11.6963 15.5197 12.7247 14.9259 13.587C16.7889 12.9159 18.4859 11.7982 19.8424 10.3447C19.6503 5.48638 15.55 1.5 10.6757 1.5ZM10.6757 0C4.72454 0 0.0488529 5.07668 0 10.8851L0.00299102 10.8888C0.13592 16.6101 4.93969 21.3491 10.6747 21.3491C16.4184 21.3491 21.2261 16.596 21.3469 10.8656C21.2974 4.9887 16.6471 0 10.6757 0ZM1.50457 10.9267C1.65667 15.8158 5.77099 19.8491 10.6747 19.8491C14.9542 19.8491 18.739 16.7593 19.6403 12.5936C17.1722 14.6423 14.0192 15.7988 10.8097 15.8262C7.93528 15.7944 5.50662 13.5638 5.50662 10.6325C5.50662 9.57216 5.83 8.54421 6.42328 7.6822C4.55911 8.35319 2.8612 9.47181 1.50457 10.9267ZM7.00662 10.6325C7.00662 12.7159 8.77013 14.3234 10.8026 14.3234V14.3259C12.7586 14.253 14.3434 12.5886 14.3434 10.6354C14.3434 8.67785 12.7518 7.01139 10.7911 6.94451C8.73973 6.94451 7.00662 8.54832 7.00662 10.6325Z" fill="#2F38FB"/>
</svg>
