<svg width="30" height="17" viewBox="0 0 30 17" fill="none" xmlns="http://www.w3.org/2000/svg">
<path fill-rule="evenodd" clip-rule="evenodd" d="M9.04693 2.33337C8.93548 2.33337 8.8314 2.38907 8.76958 2.48181L6.7525 5.50743C6.46468 5.93916 6.04116 6.26264 5.54891 6.42672L2.89461 7.31149C2.7585 7.35686 2.66669 7.48424 2.66669 7.62772V10.6667C2.66669 10.8508 2.81593 11 3.00002 11H3.73349C4.34021 9.81313 5.57429 9.00004 7.00002 9.00004C8.42575 9.00004 9.65983 9.81313 10.2666 11H19.7335C20.3402 9.81313 21.5743 9.00004 23 9.00004C24.4258 9.00004 25.6598 9.81313 26.2666 11H27C27.1841 11 27.3334 10.8508 27.3334 10.6667V7.75978C27.3334 7.60089 27.2212 7.46408 27.0654 7.43292L21.8664 6.39313C21.4147 6.30278 20.9999 6.08076 20.6741 5.75502L17.3501 2.43101C17.2876 2.36849 17.2028 2.33337 17.1144 2.33337H9.04693ZM26.6517 13H27C28.2887 13 29.3334 11.9554 29.3334 10.6667V7.75978C29.3334 6.64752 28.5483 5.68989 27.4576 5.47176L22.2587 4.43197C22.1941 4.41906 22.1349 4.38734 22.0883 4.34081L18.7643 1.01679C18.3267 0.579207 17.7332 0.333374 17.1144 0.333374H9.04693C8.26677 0.333374 7.53823 0.723277 7.10548 1.37241L5.0884 4.39803C5.04728 4.45971 4.98678 4.50592 4.91646 4.52936L2.26216 5.41413C1.30936 5.73172 0.666687 6.62338 0.666687 7.62772V10.6667C0.666687 11.9554 1.71136 13 3.00002 13H3.3483C3.51671 14.8689 5.08734 16.3334 7.00002 16.3334C8.9127 16.3334 10.4833 14.8689 10.6517 13H19.3483C19.5167 14.8689 21.0873 16.3334 23 16.3334C24.9127 16.3334 26.4833 14.8689 26.6517 13ZM7.00002 11C6.22479 11 5.57088 11.5302 5.3858 12.2493C5.35174 12.3816 5.33335 12.5213 5.33335 12.6667C5.33335 13.5872 6.07955 14.3334 7.00002 14.3334C7.9205 14.3334 8.66669 13.5872 8.66669 12.6667C8.66669 12.5213 8.6483 12.3816 8.61424 12.2493C8.42916 11.5302 7.77525 11 7.00002 11ZM23 11C22.2248 11 21.5709 11.5302 21.3858 12.2493C21.3517 12.3816 21.3334 12.5213 21.3334 12.6667C21.3334 13.5872 22.0795 14.3334 23 14.3334C23.9205 14.3334 24.6667 13.5872 24.6667 12.6667C24.6667 12.5213 24.6483 12.3816 24.6142 12.2493C24.4292 11.5302 23.7753 11 23 11Z" fill="#2F38FB"/>
</svg>