<svg width="26" height="22" viewBox="0 0 26 22" fill="none" xmlns="http://www.w3.org/2000/svg">
<path fill-rule="evenodd" clip-rule="evenodd" d="M22.566 0.706283C22.0806 0.6666 21.4864 0.666612 20.7742 0.666627H5.22637L3.43378 0.706277C2.92721 0.747653 2.45148 0.837115 2.00174 1.06627C1.31181 1.41781 0.751179 1.97844 0.399644 2.66837C0.170489 3.11811 0.0810267 3.59384 0.0396512 4.10041C-2.54512e-05 4.58618 -1.36896e-05 5.18077 5.36025e-07 5.893V16.1075C-1.36896e-05 16.8197 -2.54512e-05 17.414 0.0396547 17.8996C0.0810443 18.4061 0.17054 18.8815 0.399644 19.3311C0.750891 20.0205 1.31125 20.5821 2.00174 20.9339C2.45116 21.1629 2.92649 21.2523 3.43244 21.2937C3.91756 21.3333 4.51121 21.3333 5.22199 21.3333H20.7781C21.4888 21.3333 22.0822 21.3333 22.5671 21.2937C23.0729 21.2523 23.5479 21.1629 23.9972 20.9339C24.6866 20.5827 25.2488 20.0216 25.6006 19.3311C25.8296 18.8818 25.919 18.4069 25.9604 17.901C26 17.4161 26 16.8227 26 16.1119V5.88862C26 5.17784 26 4.58419 25.9604 4.09906C25.919 3.59312 25.8296 3.11779 25.6006 2.66837C25.2486 1.97736 24.686 1.41725 23.9972 1.06627C23.5476 0.837201 23.0724 0.747682 22.566 0.706283ZM3.59518 2.69975L11.0795 8.35163L11.0846 8.3555C12.0477 9.0616 12.319 9.23872 12.5821 9.30677C12.8558 9.37757 13.1438 9.37757 13.4176 9.30677C13.6815 9.2385 13.9545 9.06003 14.9234 8.34964L15.1454 8.17941C15.2942 8.06544 15.5099 7.90029 15.7779 7.69544C16.3137 7.28576 17.0587 6.7172 17.895 6.0816C19.3192 4.99928 21.0127 3.71935 22.3904 2.69861C21.9979 2.66739 21.4887 2.66663 20.7336 2.66663H5.26693C4.5037 2.66663 3.99126 2.6674 3.5966 2.69964L3.59518 2.69975ZM23.9432 4.03792C22.5217 5.08591 20.6582 6.49369 19.1052 7.67395C18.2707 8.30812 17.5273 8.87549 16.9926 9.28431C16.7252 9.48871 16.51 9.65345 16.3617 9.76705L16.1332 9.94227L16.1148 9.95605L15.9764 10.0577C15.2079 10.6223 14.6048 11.0655 13.9184 11.2431C13.3162 11.3988 12.6835 11.3988 12.0813 11.2431C11.3953 11.0656 10.7934 10.6234 10.0263 10.0597L9.8882 9.95831C9.8796 9.952 9.87111 9.94556 9.86272 9.93898L2.05624 4.04381C2.0475 4.10872 2.0397 4.18141 2.03301 4.26322C2.00078 4.65788 2 5.17033 2 5.93355V16.0669C2 16.8301 2.00078 17.3423 2.03301 17.7367C2.06428 18.1194 2.12011 18.3024 2.18166 18.4231C2.34173 18.7373 2.59668 18.9924 2.90972 19.1519C3.03017 19.2133 3.21297 19.2691 3.59533 19.3003C3.98931 19.3325 4.50078 19.3333 5.26255 19.3333H20.7375C21.4992 19.3333 22.0104 19.3325 22.4041 19.3003C22.786 19.2691 22.9686 19.2134 23.0892 19.1519C23.4033 18.9919 23.6591 18.7362 23.8186 18.4231C23.8801 18.3026 23.9358 18.12 23.967 17.738C23.9992 17.3444 24 16.8332 24 16.0714V5.92917C24 5.16741 23.9992 4.65593 23.967 4.26196C23.9602 4.17818 23.9522 4.10398 23.9432 4.03792Z" fill="#2F38FB"/></svg>