<svg width="40" height="40" viewBox="0 0 40 40" fill="none" xmlns="http://www.w3.org/2000/svg">
<path fill-rule="evenodd" clip-rule="evenodd" d="M20.7978 5.1114C20.2874 4.89996 19.7137 4.89996 19.2033 5.1114C19.0747 5.16466 18.9018 5.26807 18.5987 5.53242C18.2872 5.80417 17.9101 6.18033 17.3489 6.74153C16.7878 7.30259 16.4116 7.67972 16.1399 7.99129C15.8755 8.29441 15.772 8.46733 15.7188 8.59583C15.5074 9.1063 15.5074 9.67997 15.7188 10.1904C15.7721 10.319 15.8755 10.4919 16.1398 10.795C16.4116 11.1065 16.7877 11.4836 17.3489 12.0448C17.9098 12.6057 18.287 12.9819 18.5986 13.2538C18.9019 13.5183 19.0749 13.6218 19.2032 13.675C19.7137 13.8864 20.2874 13.8864 20.7978 13.675C20.9264 13.6217 21.0993 13.5183 21.4024 13.254C21.7139 12.9822 22.091 12.6061 22.6522 12.0448C23.2131 11.484 23.5889 11.1068 23.86 10.7956C24.1237 10.4929 24.2272 10.3197 24.2807 10.1904C24.4922 9.67997 24.4922 9.1063 24.2807 8.59583C24.2272 8.46658 24.1237 8.29345 23.86 7.99076C23.5889 7.67952 23.2131 7.30243 22.6522 6.74153C22.091 6.18032 21.7139 5.80416 21.4024 5.53241C21.0993 5.26807 20.9264 5.16467 20.7978 5.1114ZM18.2466 2.80171C19.3696 2.33652 20.6315 2.33652 21.7546 2.80171C22.2385 3.00218 22.6465 3.30021 23.0457 3.64842C23.4292 3.98289 23.8664 4.42014 24.3902 4.94391L24.4381 4.99185C24.9674 5.52112 25.4083 5.96202 25.7451 6.3486C26.0931 6.74813 26.3902 7.1558 26.5904 7.63912C27.0556 8.76216 27.0556 10.0241 26.5904 11.1471C26.3903 11.6304 26.0931 12.0381 25.7451 12.4377C25.4081 12.8245 24.967 13.2656 24.4374 13.7952L24.3903 13.8423C23.8665 14.3662 23.4292 14.8035 23.0457 15.138C22.6465 15.4862 22.2385 15.7842 21.7545 15.9847C20.6315 16.4498 19.3696 16.4498 18.2465 15.9847C17.7625 15.7842 17.3544 15.4859 16.9552 15.1377C16.5717 14.8031 16.1344 14.3659 15.6109 13.8423L15.5514 13.7828C15.0276 13.259 14.5903 12.8218 14.2558 12.4383C13.9076 12.0391 13.6096 11.6311 13.4091 11.1471C12.9439 10.0241 12.9439 8.76216 13.4091 7.63912C13.6096 7.15513 13.9077 6.7471 14.2559 6.34793C14.5904 5.96444 15.0277 5.52718 15.5514 5.00352L15.6109 4.94401C16.1346 4.42021 16.5719 3.98292 16.9554 3.64842C17.3546 3.30021 17.7626 3.00218 18.2466 2.80171ZM10.1907 15.7177C9.68027 15.5062 9.10665 15.5062 8.59618 15.7177C8.46759 15.7709 8.29471 15.8744 7.99165 16.1387C7.68011 16.4104 7.30299 16.7866 6.74178 17.3478C6.18074 17.9089 5.80457 18.286 5.53278 18.5976C5.26836 18.9007 5.16493 19.0736 5.11171 19.2021C4.90026 19.7126 4.90026 20.2862 5.11171 20.7967C5.16497 20.9253 5.26837 21.0982 5.53272 21.4012C5.80446 21.7128 6.18063 22.0899 6.74183 22.6511C7.30271 23.212 7.67988 23.5882 7.99152 23.8601C8.29479 24.1246 8.46776 24.2281 8.59613 24.2812C9.1066 24.4927 9.68026 24.4927 10.1907 24.2812C10.3193 24.228 10.4922 24.1246 10.7953 23.8602C11.1068 23.5885 11.4839 23.2123 12.0451 22.6511C12.606 22.0902 12.9818 21.7131 13.2529 21.4019C13.5166 21.0992 13.6201 20.926 13.6736 20.7967C13.8851 20.2862 13.8851 19.7126 13.6736 19.2021C13.6201 19.0729 13.5166 18.8997 13.2529 18.597C12.9818 18.2858 12.606 17.9087 12.0451 17.3478C11.4839 16.7866 11.1068 16.4104 10.7953 16.1387C10.4922 15.8744 10.3193 15.7709 10.1907 15.7177ZM7.63947 13.408C8.76252 12.9428 10.0244 12.9428 11.1475 13.408C11.6314 13.6085 12.0394 13.9065 12.4386 14.2547C12.8221 14.5892 13.2593 15.0265 13.7831 15.5503L13.831 15.5982C14.3603 16.1274 14.8012 16.5683 15.138 16.9549C15.486 17.3544 15.7831 17.7621 15.9833 18.2454C16.4485 19.3684 16.4485 20.6304 15.9833 21.7534C15.7832 22.2367 15.486 22.6444 15.138 23.044C14.8011 23.4307 14.3599 23.8719 13.8303 24.4015L13.7832 24.4486C13.2594 24.9725 12.8221 25.4097 12.4386 25.7442C12.0394 26.0924 11.6314 26.3905 11.1475 26.5909C10.0244 27.0561 8.76248 27.0561 7.63942 26.5909C7.15541 26.3905 6.74726 26.0922 6.34812 25.744C5.96458 25.4094 5.52731 24.9721 5.00378 24.4486L4.94422 24.389C4.42045 23.8653 3.9832 23.428 3.64872 23.0446C3.30051 22.6454 3.00248 22.2374 2.80201 21.7534C2.33683 20.6304 2.33683 19.3684 2.80201 18.2454C3.00249 17.7614 3.30062 17.3534 3.64881 16.9542C3.98333 16.5707 4.4206 16.1334 4.94427 15.6098L4.97402 15.58L5.00379 15.5503C5.52757 15.0265 5.96484 14.5892 6.34832 14.2547C6.74752 13.9065 7.15549 13.6085 7.63947 13.408ZM31.4049 15.7177C30.8945 15.5062 30.3208 15.5062 29.8104 15.7177C29.6818 15.7709 29.5089 15.8743 29.2058 16.1387C28.8943 16.4104 28.5172 16.7866 27.956 17.3478C27.3949 17.9089 27.0187 18.286 26.747 18.5976C26.4826 18.9007 26.3791 19.0736 26.3259 19.2021C26.1145 19.7126 26.1145 20.2862 26.3259 20.7967C26.3792 20.9253 26.4826 21.0982 26.7469 21.4012C27.0187 21.7128 27.3948 22.0899 27.956 22.6511C28.5169 23.212 28.8941 23.5882 29.2057 23.8601C29.509 24.1246 29.682 24.2281 29.8103 24.2812C30.3208 24.4927 30.8945 24.4927 31.4049 24.2812C31.5335 24.228 31.7064 24.1246 32.0095 23.8602C32.321 23.5885 32.6981 23.2123 33.2593 22.6511C33.8202 22.0902 34.196 21.7131 34.4671 21.4019C34.7308 21.0992 34.8343 20.926 34.8878 20.7967C35.0993 20.2862 35.0993 19.7126 34.8878 19.2021C34.8343 19.0729 34.7308 18.8997 34.4671 18.597C34.196 18.2858 33.8202 17.9087 33.2593 17.3478C32.6981 16.7866 32.321 16.4104 32.0095 16.1387C31.7064 15.8744 31.5335 15.7709 31.4049 15.7177ZM28.8537 13.408C29.9767 12.9428 31.2386 12.9428 32.3616 13.408C32.8456 13.6085 33.2536 13.9065 33.6528 14.2547C34.0363 14.5892 34.4735 15.0264 34.9973 15.5502L35.0453 15.5982C35.5745 16.1275 36.0154 16.5683 36.3521 16.9549C36.7002 17.3544 36.9973 17.7621 37.1975 18.2454C37.6627 19.3684 37.6627 20.6304 37.1975 21.7534C36.9973 22.2367 36.7002 22.6444 36.3522 23.044C36.0152 23.4308 35.5741 23.8719 35.0445 24.4015L34.9973 24.4487C34.4735 24.9725 34.0363 25.4098 33.6528 25.7442C33.2536 26.0924 32.8456 26.3905 32.3616 26.5909C31.2386 27.0561 29.9767 27.0561 28.8536 26.5909C28.3696 26.3905 27.9615 26.0922 27.5623 25.744C27.1788 25.4094 26.7415 24.9722 26.218 24.4487L26.1586 24.3892C25.6347 23.8654 25.1974 23.4281 24.8629 23.0446C24.5147 22.6454 24.2167 22.2374 24.0162 21.7534C23.551 20.6304 23.551 19.3684 24.0162 18.2454C24.2167 17.7614 24.5148 17.3534 24.863 16.9542C25.1975 16.5707 25.6347 16.1335 26.1584 15.6098L26.2179 15.5503C26.7417 15.0265 27.179 14.5892 27.5625 14.2547C27.9617 13.9065 28.3697 13.6085 28.8537 13.408ZM20.7978 26.3248C20.2874 26.1133 19.7137 26.1133 19.2033 26.3248C19.0747 26.378 18.9018 26.4814 18.5987 26.7458C18.2872 27.0175 17.9101 27.3937 17.3489 27.9549C16.7878 28.516 16.4117 28.8931 16.1399 29.2047C15.8755 29.5078 15.772 29.6807 15.7188 29.8092C15.5074 30.3197 15.5074 30.8933 15.7188 31.4038C15.7721 31.5324 15.8755 31.7053 16.1398 32.0083C16.4116 32.3199 16.7877 32.697 17.3489 33.2582C17.9098 33.8191 18.287 34.1953 18.5986 34.4672C18.9019 34.7317 19.0749 34.8352 19.2032 34.8883C19.7137 35.0998 20.2874 35.0998 20.7978 34.8883C20.9264 34.8351 21.0993 34.7317 21.4024 34.4673C21.7139 34.1956 22.091 33.8194 22.6522 33.2582C23.2131 32.6973 23.5889 32.3202 23.86 32.009C24.1237 31.7063 24.2272 31.5331 24.2807 31.4038C24.4922 30.8933 24.4922 30.3197 24.2807 29.8092C24.2272 29.68 24.1237 29.5068 23.86 29.2041C23.5889 28.8929 23.2131 28.5158 22.6522 27.9549C22.091 27.3937 21.7139 27.0175 21.4024 26.7458C21.0993 26.4814 20.9264 26.378 20.7978 26.3248ZM18.2466 24.0151C19.3696 23.5499 20.6315 23.5499 21.7545 24.0151C22.2385 24.2156 22.6465 24.5136 23.0457 24.8618C23.4292 25.1963 23.8665 25.6336 24.3903 26.1574L24.4381 26.2052C24.9674 26.7345 25.4083 27.1754 25.7451 27.562C26.0931 27.9615 26.3902 28.3692 26.5904 28.8525C27.0556 29.9755 27.0556 31.2375 26.5904 32.3605C26.3903 32.8438 26.0931 33.2515 25.7451 33.6511C25.4081 34.0379 24.967 34.479 24.4374 35.0086L24.3903 35.0557C23.8665 35.5795 23.4292 36.0168 23.0457 36.3513C22.6465 36.6995 22.2385 36.9976 21.7545 37.198C20.6315 37.6632 19.3696 37.6632 18.2465 37.198C17.7625 36.9976 17.3544 36.6993 16.9552 36.3511C16.5717 36.0165 16.1344 35.5792 15.6108 35.0556L15.5513 34.9961C15.0276 34.4724 14.5903 34.0351 14.2558 33.6517C13.9076 33.2525 13.6096 32.8445 13.4091 32.3605C12.9439 31.2375 12.9439 29.9755 13.4091 28.8525C13.6096 28.3685 13.9077 27.9605 14.2559 27.5613C14.5904 27.1778 15.0277 26.7405 15.5514 26.2169L15.6109 26.1574C16.1347 25.6336 16.5719 25.1963 16.9554 24.8618C17.3546 24.5136 17.7626 24.2156 18.2466 24.0151Z" fill="black"/>
</svg>
