<svg width="32" height="32" viewBox="0 0 32 32" fill="none" xmlns="http://www.w3.org/2000/svg">
    <path fill-rule="evenodd" clip-rule="evenodd"
          d="M3 9.33334C3 8.78106 3.44772 8.33334 4 8.33334H23C23.5523 8.33334 24 8.78106 24 9.33334C24 9.88563 23.5523 10.3333 23 10.3333H4C3.44772 10.3333 3 9.88563 3 9.33334ZM3 16C3 15.4477 3.44772 15 4 15H17.3333C17.8856 15 18.3333 15.4477 18.3333 16C18.3333 16.5523 17.8856 17 17.3333 17H4C3.44772 17 3 16.5523 3 16ZM3 22.6667C3 22.1144 3.44772 21.6667 4 21.6667H15.6667C16.219 21.6667 16.6667 22.1144 16.6667 22.6667C16.6667 23.219 16.219 23.6667 15.6667 23.6667H4C3.44772 23.6667 3 23.219 3 22.6667Z"
          fill="#000000"/>
    <path fill-rule="evenodd" clip-rule="evenodd"
          d="M22.6667 19.6667C21.7462 19.6667 21 20.4129 21 21.3333C21 22.2538 21.7462 23 22.6667 23C23.5871 23 24.3333 22.2538 24.3333 21.3333C24.3333 20.4129 23.5871 19.6667 22.6667 19.6667ZM19 21.3333C19 19.3083 20.6416 17.6667 22.6667 17.6667C24.6917 17.6667 26.3333 19.3083 26.3333 21.3333C26.3333 23.3584 24.6917 25 22.6667 25C20.6416 25 19 23.3584 19 21.3333Z"
          fill="#000000"/>
    <path fill-rule="evenodd" clip-rule="evenodd"
          d="M20.3929 28.2798C19.8479 28.6432 19.6667 29.0353 19.6667 29.3333C19.6667 29.8856 19.219 30.3333 18.6667 30.3333C18.1144 30.3333 17.6667 29.8856 17.6667 29.3333C17.6667 28.1586 18.3809 27.2174 19.2835 26.6157C20.1932 26.0093 21.3922 25.6667 22.6667 25.6667C23.9411 25.6667 25.1402 26.0093 26.0498 26.6157C26.9524 27.2174 27.6667 28.1586 27.6667 29.3333C27.6667 29.8856 27.219 30.3333 26.6667 30.3333C26.1144 30.3333 25.6667 29.8856 25.6667 29.3333C25.6667 29.0353 25.4855 28.6432 24.9404 28.2798C24.4023 27.9211 23.6013 27.6667 22.6667 27.6667C21.732 27.6667 20.931 27.9211 20.3929 28.2798Z"
          fill="#000000"/>
</svg>
