<svg width="40" height="40" viewBox="0 0 40 40" fill="none" xmlns="http://www.w3.org/2000/svg">
<path fill-rule="evenodd" clip-rule="evenodd" d="M9.43341 11.2012C7.44578 13.5855 6.25 16.6531 6.25 20C6.25 27.5939 12.4061 33.75 20 33.75C23.3469 33.75 26.4145 32.5542 28.7988 30.5666L9.43341 11.2012ZM11.2012 9.43341L30.5666 28.7988C32.5542 26.4145 33.75 23.3469 33.75 20C33.75 12.4061 27.5939 6.25 20 6.25C16.6531 6.25 13.5855 7.44578 11.2012 9.43341ZM3.75 20C3.75 11.0254 11.0254 3.75 20 3.75C28.9746 3.75 36.25 11.0254 36.25 20C36.25 28.9746 28.9746 36.25 20 36.25C11.0254 36.25 3.75 28.9746 3.75 20Z" fill="black"/>
</svg>
