<svg width="12" height="12" viewBox="0 0 12 12" fill="none" xmlns="http://www.w3.org/2000/svg">
<path fill-rule="evenodd" clip-rule="evenodd" d="M3.73483 3.73483C3.88128 3.58839 4.11872 3.58839 4.26517 3.73483L6.00001 5.46968L7.73485 3.73483C7.88129 3.58839 8.11873 3.58839 8.26518 3.73483C8.41162 3.88128 8.41162 4.11872 8.26518 4.26517L6.53034 6.00001L8.26515 7.73482C8.4116 7.88127 8.4116 8.11871 8.26515 8.26515C8.11871 8.4116 7.88127 8.4116 7.73482 8.26515L6.00001 6.53034L4.26517 8.26518C4.11872 8.41162 3.88128 8.41162 3.73483 8.26518C3.58839 8.11873 3.58839 7.88129 3.73483 7.73485L5.46968 6.00001L3.73483 4.26517C3.58839 4.11872 3.58839 3.88128 3.73483 3.73483Z" fill="#7F7A84"/>
</svg>
