<svg width="24" height="24" viewBox="0 0 24 24" fill="none" xmlns="http://www.w3.org/2000/svg">
<g clip-path="url(#clip0_370_2681)">
<path fill-rule="evenodd" clip-rule="evenodd" d="M19.8811 11.7671C19.6824 11.6374 19.3941 11.4838 18.9478 11.2476L6.65454 4.73939C6.09055 4.44081 5.71195 4.24126 5.42877 4.12189C5.24352 4.0438 5.15783 4.02721 5.134 4.02294C5.07348 4.04327 5.02324 4.08585 4.99334 4.14192C4.99364 4.16617 4.99595 4.25343 5.04251 4.44888C5.11374 4.74785 5.24836 5.15409 5.45017 5.75954L7.27992 11.2488H13.7018C14.116 11.2488 14.4518 11.5846 14.4518 11.9988C14.4518 12.413 14.116 12.7488 13.7018 12.7488H7.28017L5.45042 18.2381C5.24863 18.8434 5.11402 19.2498 5.0428 19.5489C4.9962 19.7446 4.99392 19.832 4.99363 19.8562C5.02332 19.9118 5.07332 19.9543 5.13421 19.9747C5.15806 19.9705 5.24371 19.9538 5.42879 19.8758C5.71195 19.7563 6.09042 19.5568 6.65431 19.2582L18.9475 12.7501C18.9522 12.7476 18.957 12.7451 18.9617 12.7427C19.4004 12.5105 19.6849 12.3588 19.8815 12.2305C20.0061 12.1492 20.0527 12.1033 20.0655 12.0898C20.0882 12.0316 20.0883 11.9667 20.0653 11.908C20.0526 11.8946 20.006 11.8486 19.8811 11.7671ZM3.59701 20.4073C3.42719 19.9966 3.49978 19.5535 3.5836 19.2015C3.6723 18.8289 3.82944 18.3576 4.01765 17.793L5.85948 12.2675C5.89234 12.1689 5.91045 12.114 5.92263 12.0721C5.92807 12.0534 5.93071 12.0427 5.93201 12.0369L5.93306 12.0318C5.93622 12.0074 5.93609 11.9853 5.93378 11.9673C5.93323 11.9643 5.93099 11.9538 5.92408 11.9301C5.91234 11.8898 5.89504 11.8375 5.86346 11.7428L4.01651 6.20198C3.82871 5.63863 3.67192 5.16828 3.58335 4.79651C3.4995 4.44457 3.42689 4.0016 3.59672 3.59087C3.81306 3.06767 4.26886 2.68202 4.82004 2.55474C5.25305 2.45476 5.67803 2.59913 6.01144 2.73968C6.36392 2.88827 6.80253 3.12049 7.32796 3.39867L19.6787 9.93729C20.0864 10.1531 20.4374 10.3389 20.7011 10.5111C20.9642 10.6828 21.2579 10.9126 21.4205 11.2638C21.6363 11.7299 21.6367 12.2675 21.4207 12.7341C21.2581 13.0853 20.9643 13.315 20.7013 13.4866C20.4382 13.6584 20.088 13.8437 19.6815 14.0589L19.6508 14.0752C19.6461 14.0777 19.6413 14.0801 19.6366 14.0825L7.32458 20.6006C6.8008 20.8779 6.36336 21.1095 6.01174 21.2579C5.67852 21.3984 5.25349 21.543 4.82038 21.443C4.26991 21.3158 3.81363 20.9312 3.59701 20.4073Z" fill="white"/>
</g>
<defs>
<clipPath id="clip0_370_2681">
<rect width="24" height="24" fill="white"/>
</clipPath>
</defs>
</svg>
