<svg width="26" height="23" viewBox="0 0 26 23" fill="none" xmlns="http://www.w3.org/2000/svg">
<path fill-rule="evenodd" clip-rule="evenodd" d="M11.1154 0.332035C11.1262 0.332037 11.1373 0.332039 11.1484 0.332039L14.8846 0.332035C15.0687 0.332001 15.2122 0.331974 15.3477 0.341962C16.7256 0.443543 17.9297 1.31078 18.4619 2.58624C18.5151 2.7136 18.5609 2.8511 18.6211 3.03173L18.6284 3.05357C18.6328 3.06672 18.6372 3.07991 18.6416 3.09312C18.6895 3.23632 18.7379 3.38141 18.7657 3.51125C18.8251 3.78996 18.8322 4.06682 18.794 4.33204L20.7742 4.33204C21.4864 4.33202 22.0806 4.33201 22.566 4.3717C23.0724 4.41309 23.5476 4.50261 23.9972 4.73168C24.686 5.08267 25.2486 5.64277 25.6006 6.33378C25.8296 6.7832 25.919 7.25853 25.9604 7.76447C26 8.2496 26 8.84325 26 9.55403V17.11C26 17.8208 26 18.4142 25.9604 18.8991C25.919 19.4049 25.8296 19.8799 25.6006 20.3292C25.2491 21.0191 24.6871 21.5811 23.9972 21.9327C23.5479 22.1616 23.0729 22.2511 22.5671 22.2924C22.0822 22.3321 21.4888 22.3321 20.7781 22.332H5.22199C4.51121 22.3321 3.91756 22.3321 3.43244 22.2924C2.92649 22.2511 2.45116 22.1617 2.00174 21.9327C1.31073 21.5806 0.750628 21.0181 0.399644 20.3292C0.170575 19.8797 0.0810563 19.4045 0.0396572 18.8981C-2.55307e-05 18.4126 -1.36896e-05 17.8184 5.36068e-07 17.1063V9.55841C-1.36896e-05 8.84618 -2.54512e-05 8.25159 0.0396512 7.76582C0.0810267 7.25925 0.170489 6.78352 0.399644 6.33378C0.75118 5.64385 1.31181 5.08322 2.00174 4.73168C2.45148 4.50253 2.92721 4.41306 3.43378 4.37169C3.91955 4.33201 4.51414 4.33202 5.22637 4.33204L7.20603 4.33204C7.1677 4.06682 7.17476 3.78993 7.23426 3.51112C7.26175 3.38232 7.30967 3.23899 7.35618 3.09985C7.36049 3.08696 7.36479 3.0741 7.36906 3.0613L7.37059 3.05668L7.37163 3.0537C7.37516 3.04311 7.37864 3.03265 7.38208 3.02234C7.44028 2.84762 7.48558 2.71163 7.53791 2.58624C8.07034 1.31037 9.27556 0.443511 10.653 0.341962C10.7885 0.331975 10.9312 0.332001 11.1154 0.332035ZM9.6524 4.33204C9.65226 4.33204 9.65254 4.33204 9.6524 4.33204H16.3473C16.3472 4.33204 16.3475 4.33204 16.3473 4.33204C16.4191 4.33201 16.4639 4.33178 16.4962 4.33102C16.5127 4.33063 16.5214 4.33019 16.5247 4.33001C16.7167 4.30639 16.8496 4.12287 16.8103 3.9313C16.8094 3.9282 16.8059 3.91518 16.7968 3.88616C16.7827 3.84135 16.763 3.78192 16.731 3.68603C16.658 3.4669 16.6365 3.40521 16.6162 3.35648C16.3744 2.777 15.8273 2.38274 15.2007 2.33655C15.1484 2.3327 15.0841 2.33204 14.8514 2.33204H11.1484C10.9159 2.33204 10.8524 2.33269 10.8001 2.33655C10.173 2.38278 9.6253 2.77741 9.38364 3.35648C9.36345 3.40487 9.34255 3.4655 9.269 3.68615L9.26746 3.69077L9.26642 3.69376C9.23531 3.78709 9.21613 3.84476 9.20247 3.88831C9.1939 3.91566 9.19048 3.92821 9.18962 3.9314C9.15064 4.12211 9.28338 4.30637 9.4762 4.33002C9.47941 4.3302 9.48804 4.33064 9.50423 4.33102C9.5363 4.33178 9.58075 4.33201 9.6524 4.33204ZM5.26693 6.33204C4.5037 6.33204 3.99126 6.33282 3.5966 6.36505C3.21354 6.39634 3.03041 6.4522 2.90972 6.5137C2.59612 6.67348 2.34145 6.92816 2.18166 7.24176C2.12016 7.36245 2.0643 7.54558 2.03301 7.92863C2.00078 8.3233 2 8.83574 2 9.59897V17.0656C2 17.8289 2.00078 18.3409 2.03301 18.7351C2.06427 19.1175 2.12008 19.3004 2.18166 19.4212C2.342 19.7359 2.5972 19.9914 2.90972 20.1507C3.03017 20.212 3.21297 20.2678 3.59533 20.2991C3.98931 20.3313 4.50078 20.332 5.26255 20.332H20.7375C21.4992 20.332 22.0104 20.3313 22.4041 20.2991C22.786 20.2678 22.9686 20.2121 23.0892 20.1507C23.4028 19.9909 23.6588 19.7348 23.8186 19.4212C23.8801 19.3007 23.9358 19.118 23.967 18.7361C23.9992 18.3424 24 17.8313 24 17.0695V9.59459C24 8.83282 23.9992 8.32135 23.967 7.92737C23.9358 7.54501 23.88 7.36221 23.8186 7.24176C23.6594 6.92924 23.4039 6.67404 23.0892 6.5137C22.9683 6.45212 22.7855 6.39631 22.4031 6.36505C22.0088 6.33282 21.4969 6.33204 20.7336 6.33204H5.26693ZM13 10.332C11.3431 10.332 10 11.6752 10 13.332C10 14.9889 11.3431 16.332 13 16.332C14.6569 16.332 16 14.9889 16 13.332C16 11.6752 14.6569 10.332 13 10.332ZM8 13.332C8 10.5706 10.2386 8.33204 13 8.33204C15.7614 8.33204 18 10.5706 18 13.332C18 16.0935 15.7614 18.332 13 18.332C10.2386 18.332 8 16.0935 8 13.332Z" fill="#FE0103"/>
</svg>