<svg width="40" height="40" viewBox="0 0 40 40" fill="none" xmlns="http://www.w3.org/2000/svg">
<path fill-rule="evenodd" clip-rule="evenodd" d="M17.6442 5.41663C17.6578 5.41663 17.6716 5.41664 17.6855 5.41664L22.3557 5.41663C22.5859 5.41659 22.7653 5.41655 22.9347 5.42904C24.6571 5.55602 26.1621 6.64006 26.8274 8.23439C26.8938 8.39359 26.9511 8.56546 27.0264 8.79125L27.0355 8.81855C27.0409 8.83499 27.0465 8.85148 27.052 8.86798C27.1118 9.04699 27.1724 9.22835 27.2071 9.39065C27.2814 9.73904 27.2903 10.0851 27.2425 10.4166L29.7178 10.4166C30.608 10.4166 31.3508 10.4166 31.9575 10.4662C32.5905 10.518 33.1845 10.6299 33.7465 10.9162C34.6075 11.3549 35.3107 12.0551 35.7508 12.9188C36.037 13.4806 36.1488 14.0747 36.2005 14.7072C36.25 15.3136 36.25 16.0556 36.25 16.9441V26.3891C36.25 27.2776 36.25 28.0194 36.2005 28.6255C36.1488 29.2578 36.037 29.8515 35.7508 30.4131C35.3114 31.2755 34.6089 31.978 33.7465 32.4174C33.1848 32.7036 32.5911 32.8154 31.9588 32.8671C31.3527 32.9167 30.611 32.9167 29.7226 32.9166H10.2775C9.38901 32.9167 8.64695 32.9167 8.04055 32.8671C7.40811 32.8154 6.81395 32.7037 6.25217 32.4174C5.38841 31.9773 4.68828 31.2742 4.24955 30.4131C3.96322 29.8512 3.85132 29.2572 3.79957 28.6242C3.74997 28.0174 3.74998 27.2746 3.75 26.3844V16.9496C3.74998 16.0593 3.74997 15.3161 3.79956 14.7089C3.85128 14.0756 3.96311 13.481 4.24955 12.9188C4.68897 12.0564 5.38977 11.3556 6.25217 10.9162C6.81435 10.6297 7.40901 10.5179 8.04223 10.4662C8.64944 10.4166 9.39268 10.4166 10.283 10.4166L12.7575 10.4166C12.7096 10.0851 12.7185 9.73899 12.7928 9.39049C12.8272 9.22948 12.8871 9.05032 12.9452 8.8764C12.9506 8.86029 12.956 8.84422 12.9613 8.82821L12.9632 8.82244L12.9645 8.81871C12.969 8.80547 12.9733 8.7924 12.9776 8.77951C13.0504 8.56111 13.107 8.39112 13.1724 8.23439C13.8379 6.63955 15.3445 5.55598 17.0663 5.42904C17.2357 5.41656 17.414 5.41659 17.6442 5.41663ZM15.8155 10.4166C15.8157 10.4166 15.8153 10.4166 15.8155 10.4166H24.1842C24.1844 10.4166 24.184 10.4166 24.1842 10.4166C24.2739 10.4166 24.3298 10.4163 24.3703 10.4154C24.3908 10.4149 24.4018 10.4143 24.4059 10.4141C24.6459 10.3846 24.812 10.1552 24.7628 9.91572C24.7618 9.91183 24.7574 9.89557 24.746 9.85929C24.7284 9.80328 24.7037 9.72898 24.6638 9.60912C24.5725 9.33521 24.5457 9.2581 24.5202 9.19719C24.218 8.47284 23.5341 7.98002 22.7509 7.92227C22.6855 7.91746 22.6051 7.91664 22.3143 7.91664H17.6855C17.3949 7.91664 17.3155 7.91745 17.2501 7.92227C16.4663 7.98006 15.7816 8.47334 15.4796 9.19719C15.4543 9.25768 15.4282 9.33347 15.3362 9.60928L15.3343 9.61505L15.333 9.61879C15.2941 9.73545 15.2702 9.80754 15.2531 9.86197C15.2424 9.89617 15.2381 9.91185 15.237 9.91584C15.1883 10.1542 15.3542 10.3845 15.5952 10.4141C15.5993 10.4143 15.61 10.4149 15.6303 10.4154C15.6704 10.4163 15.7259 10.4166 15.8155 10.4166ZM10.3337 12.9166C9.37963 12.9166 8.73907 12.9176 8.24574 12.9579C7.76693 12.997 7.53801 13.0668 7.38715 13.1437C6.99515 13.3434 6.67681 13.6618 6.47707 14.0538C6.4002 14.2046 6.33038 14.4336 6.29127 14.9124C6.25097 15.4057 6.25 16.0463 6.25 17.0003V26.3336C6.25 27.2877 6.25097 27.9277 6.29126 28.4205C6.33034 28.8985 6.4001 29.1271 6.47707 29.2781C6.6775 29.6715 6.9965 29.9909 7.38715 30.1899C7.53771 30.2666 7.76622 30.3364 8.24416 30.3754C8.73664 30.4157 9.37597 30.4166 10.3282 30.4166H29.6718C30.6241 30.4166 31.263 30.4157 31.7551 30.3754C32.2325 30.3364 32.4608 30.2667 32.6115 30.1899C33.0035 29.9902 33.3236 29.6701 33.5233 29.2781C33.6001 29.1274 33.6698 28.8992 33.7088 28.4217C33.749 27.9296 33.75 27.2907 33.75 26.3385V16.9948C33.75 16.0426 33.749 15.4033 33.7088 14.9108C33.6697 14.4329 33.6 14.2043 33.5233 14.0538C33.3242 13.6631 33.0049 13.3441 32.6115 13.1437C32.4604 13.0667 32.2318 12.997 31.7538 12.9579C31.2611 12.9176 30.6211 12.9166 29.667 12.9166H10.3337ZM20 17.9166C17.9289 17.9166 16.25 19.5956 16.25 21.6666C16.25 23.7377 17.9289 25.4166 20 25.4166C22.0711 25.4166 23.75 23.7377 23.75 21.6666C23.75 19.5956 22.0711 17.9166 20 17.9166ZM13.75 21.6666C13.75 18.2149 16.5482 15.4166 20 15.4166C23.4518 15.4166 26.25 18.2149 26.25 21.6666C26.25 25.1184 23.4518 27.9166 20 27.9166C16.5482 27.9166 13.75 25.1184 13.75 21.6666Z" fill="black"/>
</svg>
