<svg width="1920" height="1080" viewBox="0 0 1920 1080" fill="none" xmlns="http://www.w3.org/2000/svg">
<g clip-path="url(#clip0_77_8077)">
<rect width="1920" height="1080" fill="white"/>
<g clip-path="url(#clip1_77_8077)">
<rect width="1920" height="1080" fill="#F4F4F6"/>
</g>
<path fill-rule="evenodd" clip-rule="evenodd" d="M461.467 317.997L524.646 276.957L489.607 252.417L453.786 270.957L461.467 317.997Z" fill="#7F7A84"/>
<path fill-rule="evenodd" clip-rule="evenodd" d="M514.506 278.877C554.646 274.497 586.386 358.257 561.726 376.557L533.466 392.937L479.046 298.737L514.506 278.877Z" fill="#7F7A84"/>
<path fill-rule="evenodd" clip-rule="evenodd" d="M528.427 395.157C510.907 400.557 487.147 382.497 475.387 354.837C463.567 327.177 468.247 300.357 485.707 294.957C503.227 289.557 526.987 307.617 538.747 335.277C550.567 362.937 545.887 389.757 528.427 395.157Z" fill="#99959D"/>
<path fill-rule="evenodd" clip-rule="evenodd" d="M497.167 307.617C483.787 304.737 474.667 318.537 482.527 343.377C490.327 368.157 504.726 380.937 516.726 384.837C528.666 388.737 536.826 373.437 531.726 352.917C526.686 332.397 510.547 310.497 497.167 307.617Z" fill="#E9E9E9"/>
<path fill-rule="evenodd" clip-rule="evenodd" d="M499.027 309.417C487.447 306.957 479.587 318.897 486.307 340.377C493.087 361.857 505.507 372.897 515.887 376.257C526.267 379.617 533.227 366.357 528.907 348.657C524.527 330.897 510.607 311.937 499.027 309.477V309.417Z" fill="#C6C6C6"/>
<path fill-rule="evenodd" clip-rule="evenodd" d="M506.167 337.377C503.227 336.777 501.246 339.777 502.986 345.177C504.666 350.577 507.846 353.397 510.426 354.237C513.066 355.077 514.806 351.717 513.726 347.277C512.646 342.777 509.107 337.977 506.167 337.377Z" fill="#C6C6C6"/>
<path fill-rule="evenodd" clip-rule="evenodd" d="M506.827 338.157C504.907 337.737 503.586 339.717 504.726 343.317C505.866 346.917 507.967 348.777 509.707 349.317C511.447 349.857 512.586 347.637 511.866 344.697C511.146 341.757 508.807 338.517 506.887 338.157H506.827Z" fill="#878787"/>
<path fill-rule="evenodd" clip-rule="evenodd" d="M788.047 505.018L851.287 464.698L816.307 440.218L761.467 462.898L788.047 505.018Z" fill="#7F7A84"/>
<path fill-rule="evenodd" clip-rule="evenodd" d="M840.607 461.158C880.747 456.777 912.487 540.538 887.827 558.838L859.566 575.218L805.147 481.017L840.607 461.158Z" fill="#7F7A84"/>
<path fill-rule="evenodd" clip-rule="evenodd" d="M854.526 577.438C837.006 582.838 813.246 564.778 801.486 537.118C789.666 509.458 794.346 482.638 811.806 477.238C829.326 471.838 853.086 489.898 864.846 517.558C876.666 545.218 871.986 572.038 854.526 577.438Z" fill="#99959D"/>
<path fill-rule="evenodd" clip-rule="evenodd" d="M823.206 489.898C809.886 487.018 800.706 500.818 808.566 525.658C816.366 550.438 830.766 563.218 842.766 567.118C854.706 571.018 862.866 555.718 857.766 535.198C852.726 514.678 836.586 492.778 823.206 489.898Z" fill="#E9E9E9"/>
<path fill-rule="evenodd" clip-rule="evenodd" d="M825.066 491.697C813.486 489.237 805.626 501.178 812.406 522.658C819.186 544.138 831.606 555.178 841.986 558.538C852.366 561.898 859.326 548.638 855.006 530.938C850.626 513.178 836.706 494.218 825.126 491.758L825.066 491.697Z" fill="#C6C6C6"/>
<path fill-rule="evenodd" clip-rule="evenodd" d="M832.206 519.658C829.266 519.058 827.286 522.058 829.026 527.458C830.766 532.858 833.886 535.678 836.466 536.518C839.106 537.358 840.846 533.998 839.766 529.558C838.686 525.058 835.146 520.318 832.206 519.658Z" fill="#C6C6C6"/>
<path fill-rule="evenodd" clip-rule="evenodd" d="M832.866 520.378C830.946 519.958 829.626 521.938 830.766 525.538C831.906 529.138 834.006 530.998 835.746 531.538C837.486 532.078 838.626 529.858 837.906 526.918C837.186 523.978 834.846 520.798 832.926 520.378H832.866Z" fill="#878787"/>
<path fill-rule="evenodd" clip-rule="evenodd" d="M973.507 265.377C965.287 273.597 944.287 257.157 946.207 245.817C949.087 228.897 977.647 206.637 983.167 208.857C994.447 213.297 987.187 251.697 973.507 265.377Z" fill="#7F7A84"/>
<path fill-rule="evenodd" clip-rule="evenodd" d="M952.267 259.617C948.187 255.417 945.427 250.197 946.207 245.817C949.087 228.837 977.647 206.637 983.167 208.857C987.247 210.477 988.927 216.597 988.687 224.337C982.567 238.137 970.807 253.557 959.647 259.377C957.307 260.577 954.787 260.577 952.267 259.677V259.617Z" fill="#99959D"/>
<path d="M897.547 174.177L918.007 193.437L1009.75 279.717L1019.11 388.137L918.007 396.417L796.087 406.437L495.907 239.097C486.547 221.817 493.567 217.257 484.207 199.977C508.627 163.137 587.047 119.337 654.847 82.3773L897.547 174.237V174.177Z" fill="#ECEBEF"/>
<path fill-rule="evenodd" clip-rule="evenodd" d="M523.746 148.917C499.986 163.077 468.846 177.297 460.266 200.037C455.526 214.557 454.327 221.577 454.447 250.737C439.627 265.617 449.286 300.057 462.307 318.237C465.007 273.897 541.026 271.977 554.406 368.818C631.866 414.178 708.666 459.538 787.986 505.078C780.366 442.018 871.746 452.758 887.586 561.478C891.006 563.398 976.626 568.378 1003.81 557.398C1041.43 542.158 1101.01 507.598 1105.93 478.438C1112.95 437.098 1106.89 387.478 1087.87 357.658C1059.49 323.697 1032.13 299.757 1004.65 275.277C1028.83 319.137 905.286 407.578 813.606 394.617C765.546 371.757 710.586 340.077 656.466 310.377C586.146 271.797 572.826 257.757 533.826 226.437C535.146 203.637 548.946 187.557 577.326 171.177C570.066 167.277 530.886 152.817 523.566 148.917H523.746Z" fill="#CCCACE"/>
<path fill-rule="evenodd" clip-rule="evenodd" d="M467.827 187.197C453.727 201.357 455.167 224.037 454.506 250.677C439.686 265.557 449.346 299.997 462.366 318.177C466.686 275.457 539.887 270.477 554.467 368.757C631.927 414.117 708.727 459.477 788.047 505.017C780.427 441.957 871.807 452.697 887.647 561.418C890.947 563.278 951.847 566.458 984.307 561.718C1020.19 545.458 1061.11 516.538 1050.31 520.138C1007.89 534.358 988.687 512.037 987.307 509.097C973.147 515.397 922.267 520.798 896.347 507.237C886.987 502.318 886.266 481.977 886.746 465.357C789.966 415.377 699.906 365.937 615.726 313.497C545.526 269.757 547.087 246.777 467.767 187.137L467.827 187.197Z" fill="#99959D"/>
<path fill-rule="evenodd" clip-rule="evenodd" d="M553.086 360.657C553.566 363.297 554.047 365.997 554.467 368.757C631.927 414.117 708.727 459.477 788.047 505.018C787.747 502.318 787.567 499.798 787.627 497.398L553.086 360.657Z" fill="#7F7A84"/>
<path fill-rule="evenodd" clip-rule="evenodd" d="M986.586 502.617C984.666 512.157 930.066 515.037 900.666 506.337C891.546 503.637 891.006 480.897 891.066 467.637C912.306 477.177 950.886 479.217 971.526 474.657C979.866 481.197 985.446 492.477 986.646 502.617H986.586Z" fill="#99959D"/>
<path fill-rule="evenodd" clip-rule="evenodd" d="M1087.93 357.657C1094.41 376.737 1092.31 394.497 1093.57 405.357C1094.77 415.557 1104.97 425.397 1108.33 434.337C1112.59 417.177 1107.13 378.597 1087.93 357.657Z" fill="#99959D"/>
<path fill-rule="evenodd" clip-rule="evenodd" d="M1076.29 419.517C1058.65 438.657 1034.65 451.798 997.987 465.298C1009.69 488.758 1029.97 508.977 1048.81 514.617C1061.89 509.577 1070.59 503.698 1081.27 493.798C1085.23 482.278 1091.29 446.277 1076.29 419.517Z" fill="#99959D"/>
<path fill-rule="evenodd" clip-rule="evenodd" d="M486.006 216.297C478.926 229.077 461.706 233.577 455.226 229.857C455.226 222.717 454.806 203.637 463.926 191.877C469.206 198.717 490.806 212.157 486.066 216.297H486.006Z" fill="#CCCACE"/>
<path fill-rule="evenodd" clip-rule="evenodd" d="M756.126 271.737L815.467 394.857C814.927 394.797 814.327 394.737 813.727 394.677C803.107 389.577 792.366 384.357 781.506 378.897L731.167 266.337L739.747 270.357C743.827 272.277 748.746 272.337 756.066 271.797L756.126 271.737Z" fill="#CCCACE"/>
<path fill-rule="evenodd" clip-rule="evenodd" d="M805.507 390.657C797.587 386.817 789.546 382.857 781.506 378.837L731.167 266.277L739.747 270.297C742.087 271.377 745.627 271.917 750.127 271.977L805.507 390.657Z" fill="#99959D"/>
<path fill-rule="evenodd" clip-rule="evenodd" d="M763.687 348.057C775.087 347.457 778.627 374.277 769.507 381.537C755.887 392.397 720.667 389.757 718.267 384.297C713.407 373.197 744.667 349.077 763.627 347.997L763.687 348.057Z" fill="#7F7A84"/>
<path fill-rule="evenodd" clip-rule="evenodd" d="M763.687 348.057C775.027 347.457 778.567 373.917 769.687 381.417C753.307 384.477 729.487 377.937 722.047 372.237C730.567 361.137 750.247 348.777 763.687 348.057Z" fill="#99959D"/>
<path fill-rule="evenodd" clip-rule="evenodd" d="M866.346 403.378C948.846 382.438 1006.75 340.617 1016.47 295.377C1053.91 331.797 1074.37 367.737 1076.29 410.517C1057.57 433.497 1027.27 448.498 994.926 459.538C952.206 451.138 898.387 418.078 866.407 403.318L866.346 403.378Z" fill="#99959D"/>
<path fill-rule="evenodd" clip-rule="evenodd" d="M1106.71 473.938C1071.07 518.578 986.947 554.698 973.867 551.038C973.447 554.218 972.907 558.658 972.367 563.098C985.267 562.078 996.607 560.278 1003.87 557.338C1041.49 542.098 1101.07 507.538 1105.99 478.378C1106.23 476.938 1106.47 475.438 1106.71 473.938Z" fill="#99959D"/>
<path fill-rule="evenodd" clip-rule="evenodd" d="M653.947 345.537C645.487 342.417 633.24 335.58 627 330C624.713 327.903 624.187 333.897 627.187 338.757C631.867 343.977 640.267 350.337 652.387 355.077C653.947 355.687 656.063 346.318 653.947 345.537Z" fill="#CCCACE"/>
<path fill-rule="evenodd" clip-rule="evenodd" d="M561.547 164.337C545.107 175.917 537.307 192.957 529.927 221.877C516.007 207.477 508.327 186.297 486.967 170.817C498.667 162.837 512.107 155.877 523.747 148.917C528.547 151.497 547.267 158.697 561.547 164.397V164.337Z" fill="#99959D"/>
<path fill-rule="evenodd" clip-rule="evenodd" d="M1049.05 452.218C1044.79 451.318 1041.85 455.698 1044.37 463.678C1046.89 471.598 1051.51 475.678 1055.29 476.938C1059.13 478.198 1061.71 473.278 1060.09 466.738C1058.47 460.198 1053.31 453.178 1049.05 452.218Z" fill="#C6C6C6"/>
<path fill-rule="evenodd" clip-rule="evenodd" d="M453.847 251.337C462.367 262.917 476.407 276.417 489.187 285.177C484.147 285.957 481.327 285.897 474.007 288.837C464.167 284.037 454.327 276.117 447.127 268.917C447.607 262.017 449.707 255.837 453.847 251.337Z" fill="#CCCACE"/>
<path fill-rule="evenodd" clip-rule="evenodd" d="M646.387 217.377L637.687 299.877C636.547 299.217 634.026 300.777 632.286 300.717C628.986 295.977 621.667 290.457 615.967 287.097L629.407 208.617C635.587 211.677 640.087 214.377 646.327 217.377H646.387Z" fill="#7F7A84"/>
<path fill-rule="evenodd" clip-rule="evenodd" d="M632.286 300.717C626.586 297.417 620.947 294.057 615.187 290.637L629.407 208.617C634.087 210.957 638.767 213.237 643.447 215.457L632.286 300.717Z" fill="#99959D"/>
<path fill-rule="evenodd" clip-rule="evenodd" d="M903.306 179.577C885.006 235.377 760.98 282.06 741 273C707.1 257.7 590.226 181.497 555.726 186.117C536.886 188.637 518.947 164.817 504.967 159.717C526.267 119.757 584.286 81.5373 644.406 78.1173C712.386 74.2773 907.806 165.897 903.306 179.577Z" fill="#99959D"/>
<path fill-rule="evenodd" clip-rule="evenodd" d="M901.626 175.857C879.246 229.917 759.066 271.737 739.506 262.917C705.606 247.617 589.926 174.117 555.426 178.737C538.146 181.077 521.706 161.277 508.266 154.017C531.846 116.217 587.167 81.4173 644.406 78.1773C707.886 74.5773 882.306 154.137 901.626 175.857Z" fill="#99959D"/>
<path fill-rule="evenodd" clip-rule="evenodd" d="M885.667 549.958C909.547 552.718 937.087 558.238 967.627 556.858C986.887 556.018 994.807 556.798 1030.87 544.858C1025.29 547.798 1004.47 559.618 984.367 561.778C951.847 566.518 890.947 563.278 887.707 561.478C887.107 557.518 886.447 553.678 885.667 550.018V549.958Z" fill="#7F7A84"/>
<path fill-rule="evenodd" clip-rule="evenodd" d="M817.08 987.78V694.98L750.06 657.12L750.18 949.92L817.08 987.78Z" fill="#99959D"/>
<path fill-rule="evenodd" clip-rule="evenodd" d="M911.04 641.34L817.08 694.98V987.78L911.22 934.02L911.04 641.34Z" fill="#7F7A84"/>
<path fill-rule="evenodd" clip-rule="evenodd" d="M911.04 641.34L817.08 694.98L750.06 657.12L843.12 603.36L911.04 641.34Z" fill="#CCCACE"/>
<path fill-rule="evenodd" clip-rule="evenodd" d="M829.86 635.16C818.04 635.16 808.5 641.281 808.5 648.781C808.5 656.281 818.1 662.4 829.86 662.4C841.62 662.4 851.22 656.341 851.22 648.781C851.22 641.221 841.62 635.16 829.86 635.16Z" fill="#99959D"/>
<path fill-rule="evenodd" clip-rule="evenodd" d="M829.86 629.76C818.04 629.76 808.5 635.82 808.5 643.38C808.5 650.94 818.1 657 829.86 657C841.62 657 851.22 650.94 851.22 643.38C851.22 635.82 841.62 629.76 829.86 629.76Z" fill="#CCCACE"/>
<path fill-rule="evenodd" clip-rule="evenodd" d="M829.86 593.88C818.52 593.88 809.22 603.18 809.22 614.52V644.22C814.68 658.26 845.64 657.9 850.5 644.22V614.52C850.5 603.18 841.2 593.88 829.86 593.88Z" fill="#99959D"/>
<path fill-rule="evenodd" clip-rule="evenodd" d="M829.86 597.54C819.84 597.54 811.68 605.7 811.68 615.72C811.68 635.4 829.86 651.78 848.04 644.88V615.72C848.04 605.7 839.88 597.54 829.86 597.54Z" fill="#7F7A84"/>
<path fill-rule="evenodd" clip-rule="evenodd" d="M838.2 609.18C835.62 610.26 834.12 612.48 834.84 614.16C835.56 615.78 838.2 616.2 840.78 615.12C843.36 614.04 844.86 611.82 844.14 610.14C843.42 608.52 840.78 608.1 838.2 609.18Z" fill="#CCCACE"/>
<path fill-rule="evenodd" clip-rule="evenodd" d="M1413.18 429.36L838.86 789.84L838.8 787.14V739.2L1396.5 420L1413.18 429.36Z" fill="#99959D"/>
<path fill-rule="evenodd" clip-rule="evenodd" d="M1413.12 480.24L855.48 799.14V796.44V748.5L1413.18 429.3L1413.12 480.24Z" fill="#7F7A84"/>
<path fill-rule="evenodd" clip-rule="evenodd" d="M855.48 799.08V748.5L838.8 739.2L838.92 789.72L855.48 799.08Z" fill="#692D2C"/>
<path fill-rule="evenodd" clip-rule="evenodd" d="M1325.4 530.22L1341.18 470.52L1366.62 455.94L1350.84 515.64L1325.4 530.22ZM971.28 732.84L987.06 673.26L1012.5 658.68L996.78 718.26L971.34 732.84H971.28ZM1021.86 703.92L1037.64 644.34L1063.08 629.76L1047.3 689.34L1021.86 703.92ZM1072.44 675L1088.22 615.42L1113.66 600.84L1097.88 660.42L1072.44 675ZM1123.02 646.08L1138.8 586.44L1164.24 571.86L1148.46 631.5L1123.02 646.08ZM1173.6 617.16L1189.38 557.52L1214.82 542.94L1199.04 602.58L1173.6 617.16ZM1224.18 588.24L1239.96 528.6L1265.4 514.02L1249.62 573.72L1224.18 588.3V588.24ZM1274.76 559.32L1290.54 499.62L1315.98 485.04L1300.2 544.74L1274.76 559.32Z" fill="#CCCACE"/>
<path fill-rule="evenodd" clip-rule="evenodd" d="M864.84 708.72C874.26 703.2 882.84 702.18 889.44 704.88L889.62 704.94C889.98 705.12 890.34 705.3 890.76 705.48L907.32 713.28L901.74 723.36C902.04 725.28 902.16 727.32 902.16 729.48C902.16 753.06 885.48 781.92 864.84 794.04C863.76 794.64 862.74 795.24 861.72 795.72L856.32 805.44L839.52 797.52C832.14 794.04 827.52 785.58 827.52 773.22C827.52 749.64 844.2 720.78 864.84 708.66V708.72Z" fill="#99959D"/>
<path fill-rule="evenodd" clip-rule="evenodd" d="M881.04 716.34C901.62 704.28 918.36 713.58 918.36 737.1C918.36 760.62 901.68 789.54 881.04 801.66C860.46 813.72 843.72 804.42 843.72 780.9C843.72 757.38 860.46 728.46 881.04 716.34Z" fill="#7F7A84"/>
<rect x="753.5" y="488" width="419" height="110" rx="21" fill="#F4F4F6"/>
<rect x="753.5" y="488" width="419" height="110" rx="21" stroke="#99959D" stroke-width="6"/>
<path d="M797.972 567.504C796.484 567.504 794.612 567.36 792.356 567.072C790.148 566.784 787.964 566.136 785.804 565.128C783.644 564.072 781.748 562.56 780.116 560.592C778.532 558.624 777.596 555.984 777.308 552.672H785.444C785.636 554.352 786.236 555.696 787.244 556.704C788.3 557.664 789.452 558.384 790.7 558.864C791.948 559.344 793.268 559.656 794.66 559.8C796.052 559.944 797.276 560.016 798.332 560.016C799.532 560.016 800.78 559.92 802.076 559.728C803.42 559.488 804.62 559.08 805.676 558.504C806.78 557.928 807.692 557.112 808.412 556.056C809.132 555 809.492 553.632 809.492 551.952C809.492 550.176 809.108 548.808 808.34 547.848C807.572 546.84 806.612 546.12 805.46 545.688C804.356 545.208 803.132 544.92 801.788 544.824C800.492 544.728 799.268 544.68 798.116 544.68H791.636V537.552H797.396C798.548 537.504 799.724 537.36 800.924 537.12C802.124 536.88 803.204 536.496 804.164 535.968C805.124 535.392 805.916 534.648 806.54 533.736C807.164 532.776 807.524 531.576 807.62 530.136C807.62 528.648 807.284 527.448 806.612 526.536C805.988 525.576 805.172 524.832 804.164 524.304C803.204 523.776 802.124 523.416 800.924 523.224C799.724 523.032 798.548 522.936 797.396 522.936C796.1 522.936 794.804 523.08 793.508 523.368C792.26 523.608 791.132 524.016 790.124 524.592C789.116 525.168 788.3 525.888 787.676 526.752C787.052 527.616 786.716 528.648 786.668 529.848H778.532C778.532 527.352 779.036 525.216 780.044 523.44C781.1 521.616 782.492 520.128 784.22 518.976C785.996 517.776 788.036 516.912 790.34 516.384C792.644 515.808 795.068 515.52 797.612 515.52C799.868 515.52 802.076 515.736 804.236 516.168C806.396 516.552 808.316 517.248 809.996 518.256C811.724 519.264 813.116 520.632 814.172 522.36C815.228 524.04 815.756 526.176 815.756 528.768C815.756 529.728 815.636 530.736 815.396 531.792C815.204 532.8 814.844 533.784 814.316 534.744C813.836 535.704 813.14 536.64 812.228 537.552C811.364 538.416 810.284 539.184 808.988 539.856C811.868 540.576 814.052 542.04 815.54 544.248C817.076 546.408 817.844 548.976 817.844 551.952C817.844 554.832 817.268 557.28 816.116 559.296C815.012 561.264 813.524 562.872 811.652 564.12C809.828 565.32 807.716 566.184 805.316 566.712C802.916 567.24 800.468 567.504 797.972 567.504ZM849.991 562.32C848.743 564.096 847.087 565.416 845.023 566.28C842.959 567.096 840.655 567.504 838.111 567.504C836.095 567.504 834.247 567.264 832.567 566.784C830.935 566.304 829.495 565.584 828.247 564.624C826.999 563.616 826.015 562.392 825.295 560.952C824.575 559.464 824.215 557.784 824.215 555.912C824.215 553.848 824.623 552.096 825.439 550.656C826.255 549.168 827.359 547.968 828.751 547.056C830.191 546.144 831.871 545.472 833.791 545.04C835.711 544.56 837.727 544.32 839.839 544.32H849.559C849.559 541.536 848.935 539.376 847.687 537.84C846.439 536.304 844.255 535.512 841.135 535.464C839.311 535.464 837.727 535.776 836.383 536.4C835.087 537.024 834.223 538.056 833.791 539.496H825.367C825.655 537.48 826.303 535.776 827.311 534.384C828.367 532.992 829.615 531.84 831.055 530.928C832.543 530.016 834.175 529.368 835.951 528.984C837.775 528.6 839.599 528.408 841.423 528.408C843.775 528.408 845.959 528.72 847.975 529.344C849.991 529.968 851.743 531.024 853.231 532.512C854.911 534.24 856.039 536.304 856.615 538.704C857.191 541.104 857.479 543.72 857.479 546.552V567H850.351L849.991 562.32ZM849.559 550.152H841.639C840.247 550.152 838.855 550.272 837.463 550.512C836.071 550.704 834.871 551.208 833.863 552.024C832.903 552.792 832.423 553.92 832.423 555.408C832.423 557.232 833.071 558.624 834.367 559.584C835.711 560.496 837.343 560.952 839.263 560.952C840.751 560.952 842.119 560.76 843.367 560.376C844.663 559.992 845.767 559.368 846.679 558.504C847.591 557.592 848.287 556.464 848.767 555.12C849.295 553.728 849.559 552.072 849.559 550.152ZM866.292 567V529.056H893.724V536.184H874.5V567H866.292ZM907.688 581.76H899.48V529.056H907.256L907.688 534.456C909.08 532.488 910.88 531 913.088 529.992C915.344 528.936 917.696 528.408 920.144 528.408C922.736 528.408 925.064 528.888 927.128 529.848C929.192 530.76 930.944 532.056 932.384 533.736C933.872 535.416 934.976 537.456 935.696 539.856C936.464 542.208 936.848 544.896 936.848 547.92C936.848 550.752 936.488 553.368 935.768 555.768C935.048 558.168 933.968 560.256 932.528 562.032C931.136 563.76 929.384 565.104 927.272 566.064C925.208 567.024 922.688 567.504 919.712 567.504C917.408 567.504 915.2 567.144 913.088 566.424C911.024 565.656 909.224 564.408 907.688 562.68V581.76ZM918.416 560.376C920.192 560.376 921.728 560.064 923.024 559.44C924.32 558.768 925.376 557.88 926.192 556.776C927.056 555.672 927.68 554.376 928.064 552.888C928.496 551.4 928.712 549.792 928.712 548.064C928.712 546.336 928.496 544.728 928.064 543.24C927.68 541.704 927.056 540.384 926.192 539.28C925.376 538.176 924.296 537.312 922.952 536.688C921.656 536.064 920.096 535.752 918.272 535.752C916.64 535.752 915.128 536.088 913.736 536.76C912.392 537.432 911.264 538.32 910.352 539.424C909.44 540.528 908.744 541.848 908.264 543.384C907.832 544.872 907.616 546.408 907.616 547.992C907.616 549.72 907.832 551.352 908.264 552.888C908.696 554.376 909.344 555.672 910.208 556.776C911.12 557.832 912.248 558.696 913.592 559.368C914.936 560.04 916.544 560.376 918.416 560.376ZM971.274 529.056H980.274L969.33 560.952C967.938 564.888 966.666 568.368 965.514 571.392C964.41 574.416 963.09 576.936 961.554 578.952C960.018 580.968 958.122 582.48 955.866 583.488C953.658 584.544 950.754 585.072 947.154 585.072H945.93V577.728C946.122 577.728 946.314 577.728 946.506 577.728C947.946 577.728 949.218 577.56 950.322 577.224C951.474 576.888 952.506 576.384 953.418 575.712C954.33 575.04 955.122 574.152 955.794 573.048C956.466 571.992 957.09 570.768 957.666 569.376L940.458 529.056H950.106L961.914 559.08L971.274 529.056ZM1010.17 546.696C1012.19 547.368 1013.68 548.472 1014.64 550.008C1015.6 551.496 1016.08 553.176 1016.08 555.048C1016.08 555.144 1016.08 555.24 1016.08 555.336C1016.08 557.736 1015.6 559.728 1014.64 561.312C1013.68 562.896 1012.38 564.168 1010.75 565.128C1009.16 566.04 1007.44 566.664 1005.56 567C1003.74 567.336 1001.87 567.504 999.949 567.504C998.077 567.504 996.157 567.336 994.189 567C992.269 566.616 990.493 565.968 988.861 565.056C987.277 564.144 985.957 562.944 984.901 561.456C983.845 559.968 983.245 558.096 983.101 555.84H991.021C991.213 556.8 991.621 557.592 992.245 558.216C992.917 558.84 993.685 559.344 994.549 559.728C995.413 560.112 996.325 560.376 997.285 560.52C998.245 560.664 999.133 560.736 999.949 560.736C1000.81 560.736 1001.75 560.688 1002.76 560.592C1003.76 560.448 1004.65 560.208 1005.42 559.872C1006.24 559.488 1006.91 558.984 1007.44 558.36C1007.96 557.688 1008.23 556.824 1008.23 555.768C1008.23 553.944 1007.53 552.72 1006.14 552.096C1004.8 551.472 1003.09 551.16 1001.03 551.16H994.693V544.68H1000.38C1002.16 544.68 1003.67 544.32 1004.92 543.6C1006.16 542.88 1006.79 541.632 1006.79 539.856C1006.79 538.944 1006.55 538.2 1006.07 537.624C1005.64 537 1005.08 536.52 1004.41 536.184C1003.74 535.848 1003 535.632 1002.18 535.536C1001.36 535.392 1000.64 535.32 1000.02 535.32C999.205 535.32 998.365 535.392 997.501 535.536C996.637 535.632 995.821 535.848 995.053 536.184C994.285 536.52 993.637 536.976 993.109 537.552C992.581 538.128 992.269 538.872 992.173 539.784H984.325C984.517 537.528 985.117 535.68 986.125 534.24C987.133 532.752 988.381 531.576 989.869 530.712C991.357 529.848 992.989 529.248 994.765 528.912C996.589 528.576 998.389 528.408 1000.16 528.408C1001.94 528.408 1003.67 528.576 1005.35 528.912C1007.08 529.248 1008.66 529.872 1010.1 530.784C1011.54 531.696 1012.64 532.8 1013.41 534.096C1014.23 535.344 1014.64 536.976 1014.64 538.992C1014.64 540.816 1014.2 542.376 1013.34 543.672C1012.52 544.968 1011.47 545.976 1010.17 546.696ZM1023.37 567V529.056H1031.51V544.536H1037.34L1047.06 529.056H1056.42L1044.39 547.128L1057.35 567H1047.85L1037.84 551.664H1031.51V567H1023.37ZM1085.75 562.32C1084.5 564.096 1082.84 565.416 1080.78 566.28C1078.72 567.096 1076.41 567.504 1073.87 567.504C1071.85 567.504 1070 567.264 1068.32 566.784C1066.69 566.304 1065.25 565.584 1064 564.624C1062.76 563.616 1061.77 562.392 1061.05 560.952C1060.33 559.464 1059.97 557.784 1059.97 555.912C1059.97 553.848 1060.38 552.096 1061.2 550.656C1062.01 549.168 1063.12 547.968 1064.51 547.056C1065.95 546.144 1067.63 545.472 1069.55 545.04C1071.47 544.56 1073.48 544.32 1075.6 544.32H1085.32C1085.32 541.536 1084.69 539.376 1083.44 537.84C1082.2 536.304 1080.01 535.512 1076.89 535.464C1075.07 535.464 1073.48 535.776 1072.14 536.4C1070.84 537.024 1069.98 538.056 1069.55 539.496H1061.12C1061.41 537.48 1062.06 535.776 1063.07 534.384C1064.12 532.992 1065.37 531.84 1066.81 530.928C1068.3 530.016 1069.93 529.368 1071.71 528.984C1073.53 528.6 1075.36 528.408 1077.18 528.408C1079.53 528.408 1081.72 528.72 1083.73 529.344C1085.75 529.968 1087.5 531.024 1088.99 532.512C1090.67 534.24 1091.8 536.304 1092.37 538.704C1092.95 541.104 1093.24 543.72 1093.24 546.552V567H1086.11L1085.75 562.32ZM1085.32 550.152H1077.4C1076 550.152 1074.61 550.272 1073.22 550.512C1071.83 550.704 1070.63 551.208 1069.62 552.024C1068.66 552.792 1068.18 553.92 1068.18 555.408C1068.18 557.232 1068.83 558.624 1070.12 559.584C1071.47 560.496 1073.1 560.952 1075.02 560.952C1076.51 560.952 1077.88 560.76 1079.12 560.376C1080.42 559.992 1081.52 559.368 1082.44 558.504C1083.35 557.592 1084.04 556.464 1084.52 555.12C1085.05 553.728 1085.32 552.072 1085.32 550.152ZM1106.59 556.992C1108.12 556.992 1109.37 557.472 1110.33 558.432C1111.34 559.392 1111.84 560.688 1111.84 562.32C1111.84 564 1111.34 565.296 1110.33 566.208C1109.37 567.12 1108.12 567.576 1106.59 567.576C1105.05 567.576 1103.78 567.12 1102.77 566.208C1101.81 565.296 1101.33 564 1101.33 562.32C1101.33 560.688 1101.81 559.392 1102.77 558.432C1103.78 557.472 1105.05 556.992 1106.59 556.992ZM1124.37 556.992C1125.91 556.992 1127.15 557.472 1128.11 558.432C1129.12 559.392 1129.63 560.688 1129.63 562.32C1129.63 564 1129.12 565.296 1128.11 566.208C1127.15 567.12 1125.91 567.576 1124.37 567.576C1122.83 567.576 1121.56 567.12 1120.55 566.208C1119.59 565.296 1119.11 564 1119.11 562.32C1119.11 560.688 1119.59 559.392 1120.55 558.432C1121.56 557.472 1122.83 556.992 1124.37 556.992ZM1142.08 556.992C1143.62 556.992 1144.87 557.472 1145.83 558.432C1146.83 559.392 1147.34 560.688 1147.34 562.32C1147.34 564 1146.83 565.296 1145.83 566.208C1144.87 567.12 1143.62 567.576 1142.08 567.576C1140.55 567.576 1139.27 567.12 1138.27 566.208C1137.31 565.296 1136.83 564 1136.83 562.32C1136.83 560.688 1137.31 559.392 1138.27 558.432C1139.27 557.472 1140.55 556.992 1142.08 556.992Z" fill="black"/>
</g>
<defs>
<clipPath id="clip0_77_8077">
<rect width="1920" height="1080" fill="white"/>
</clipPath>
<clipPath id="clip1_77_8077">
<rect width="1920" height="1080" fill="white"/>
</clipPath>
</defs>
</svg>
