<svg width="26" height="22" viewBox="0 0 26 22" fill="none" xmlns="http://www.w3.org/2000/svg">
<path fill-rule="evenodd" clip-rule="evenodd" d="M5.22637 0.667969H20.7742C21.4864 0.667955 22.0806 0.667943 22.566 0.707626C23.0724 0.749025 23.5476 0.838543 23.9972 1.06761C24.686 1.4186 25.2486 1.9787 25.6006 2.66971C25.8296 3.11913 25.919 3.59446 25.9604 4.1004C26 4.58553 26 5.17918 26 5.88996V16.1133C26 16.824 26 17.4175 25.9604 17.9024C25.919 18.4082 25.8296 18.8832 25.6006 19.3325C25.2488 20.0229 24.6866 20.584 23.9972 20.9353C23.5479 21.1642 23.0729 21.2537 22.5671 21.295C22.0822 21.3347 21.4888 21.3347 20.7781 21.3346H5.22199C4.51121 21.3347 3.91756 21.3347 3.43244 21.295C2.92649 21.2537 2.45116 21.1643 2.00174 20.9353C1.31125 20.5835 0.750891 20.0218 0.399644 19.3325C0.17054 18.8828 0.0810443 18.4074 0.0396547 17.9009C-2.54512e-05 17.4154 -1.36896e-05 16.821 5.36025e-07 16.1088V5.89434C-1.36896e-05 5.18211 -2.54512e-05 4.58752 0.0396512 4.10175C0.0810267 3.59518 0.170489 3.11945 0.399644 2.66971C0.751179 1.97978 1.31181 1.41915 2.00174 1.06761C2.45148 0.838457 2.92721 0.748996 3.43378 0.70762C3.91955 0.667943 4.51414 0.667955 5.22637 0.667969ZM3.5966 2.70098C3.21354 2.73227 3.03041 2.78813 2.90972 2.84963C2.59612 3.00941 2.34145 3.26409 2.18166 3.57769C2.12016 3.69838 2.0643 3.88151 2.03301 4.26456C2.00078 4.65922 2 5.17167 2 5.9349V6.0013H24V5.93052C24 5.16875 23.9992 4.65728 23.967 4.2633C23.9358 3.88094 23.88 3.69814 23.8186 3.57769C23.6594 3.26517 23.4039 3.00997 23.0892 2.84963C22.9683 2.78805 22.7855 2.73224 22.4031 2.70098C22.0088 2.66875 21.4969 2.66797 20.7336 2.66797H5.26693C4.5037 2.66797 3.99126 2.66875 3.5966 2.70098ZM24 8.0013H2V8.66797H24V8.0013ZM24 10.668H2V16.0682C2 16.8315 2.00078 17.3437 2.03301 17.738C2.06428 18.1207 2.12011 18.3037 2.18166 18.4245C2.34173 18.7387 2.59668 18.9938 2.90972 19.1533C3.03017 19.2146 3.21297 19.2704 3.59533 19.3017C3.98931 19.3339 4.50078 19.3346 5.26255 19.3346H20.7375C21.4992 19.3346 22.0104 19.3339 22.4041 19.3017C22.786 19.2704 22.9686 19.2147 23.0892 19.1533C23.4033 18.9932 23.6591 18.7376 23.8186 18.4245C23.8801 18.3039 23.9358 18.1213 23.967 17.7394C23.9992 17.3457 24 16.8345 24 16.0727V10.668ZM5.33333 15.0013C5.33333 14.449 5.78105 14.0013 6.33333 14.0013H11.6667C12.219 14.0013 12.6667 14.449 12.6667 15.0013C12.6667 15.5536 12.219 16.0013 11.6667 16.0013H6.33333C5.78105 16.0013 5.33333 15.5536 5.33333 15.0013Z" fill="#7F7A84"/>
</svg>
