<svg width="40" height="40" viewBox="0 0 40 40" fill="none" xmlns="http://www.w3.org/2000/svg">
<path fill-rule="evenodd" clip-rule="evenodd" d="M12.5593 12.9165C12.42 12.9165 12.2899 12.9861 12.2126 13.102L9.69125 16.8841C9.33147 17.4237 8.80208 17.8281 8.18677 18.0332L4.86889 19.1392C4.69875 19.1959 4.58398 19.3551 4.58398 19.5344V23.3332C4.58398 23.5633 4.77053 23.7498 5.00065 23.7498H5.91749C6.67589 22.2662 8.21848 21.2498 10.0007 21.2498C11.7828 21.2498 13.3254 22.2662 14.0838 23.7498H25.9175C26.6759 22.2662 28.2185 21.2498 30.0007 21.2498C31.7828 21.2498 33.3254 22.2662 34.0838 23.7498H35.0007C35.2308 23.7498 35.4173 23.5633 35.4173 23.3332V19.6995C35.4173 19.5009 35.2771 19.3299 35.0824 19.2909L28.5837 17.9912C28.019 17.8783 27.5004 17.6007 27.0933 17.1936L22.9383 13.0385C22.8601 12.9604 22.7541 12.9165 22.6436 12.9165H12.5593ZM34.5653 26.2498H35.0007C36.6115 26.2498 37.9173 24.944 37.9173 23.3332V19.6995C37.9173 18.3092 36.936 17.1121 35.5727 16.8395L29.074 15.5397C28.9933 15.5236 28.9192 15.484 28.861 15.4258L24.706 11.2708C24.159 10.7238 23.4172 10.4165 22.6436 10.4165H12.5593C11.5841 10.4165 10.6734 10.9039 10.1325 11.7153L7.61112 15.4973C7.55973 15.5744 7.4841 15.6322 7.3962 15.6615L4.07832 16.7674C2.88732 17.1644 2.08398 18.279 2.08398 19.5344V23.3332C2.08398 24.944 3.38982 26.2498 5.00065 26.2498H5.436C5.64651 28.5859 7.6098 30.4165 10.0007 30.4165C12.3915 30.4165 14.3548 28.5859 14.5653 26.2498H25.436C25.6465 28.5859 27.6098 30.4165 30.0007 30.4165C32.3915 30.4165 34.3548 28.5859 34.5653 26.2498ZM10.0007 23.7498C9.03162 23.7498 8.21422 24.4126 7.98288 25.3114C7.9403 25.4768 7.91732 25.6514 7.91732 25.8332C7.91732 26.9838 8.85006 27.9165 10.0007 27.9165C11.1512 27.9165 12.084 26.9838 12.084 25.8332C12.084 25.6514 12.061 25.4768 12.0184 25.3114C11.7871 24.4126 10.9697 23.7498 10.0007 23.7498ZM30.0007 23.7498C29.0316 23.7498 28.2142 24.4126 27.9829 25.3114C27.9403 25.4768 27.9173 25.6514 27.9173 25.8332C27.9173 26.9838 28.8501 27.9165 30.0007 27.9165C31.1512 27.9165 32.084 26.9838 32.084 25.8332C32.084 25.6514 32.061 25.4768 32.0184 25.3114C31.7871 24.4126 30.9697 23.7498 30.0007 23.7498Z" fill="black"/>
</svg>
