<svg width="20" height="20" viewBox="0 0 20 20" fill="none" xmlns="http://www.w3.org/2000/svg">
<path fill-rule="evenodd" clip-rule="evenodd" d="M10 1.75C5.44365 1.75 1.75 5.44365 1.75 10C1.75 14.5563 5.44365 18.25 10 18.25C14.5563 18.25 18.25 14.5563 18.25 10C18.25 5.44365 14.5563 1.75 10 1.75ZM0.25 10C0.25 4.61522 4.61522 0.25 10 0.25C15.3848 0.25 19.75 4.61522 19.75 10C19.75 15.3848 15.3848 19.75 10 19.75C4.61522 19.75 0.25 15.3848 0.25 10ZM6.46967 6.46967C6.76256 6.17678 7.23744 6.17678 7.53033 6.46967L9.99994 8.93928L12.4695 6.46967C12.7624 6.17678 13.2373 6.17678 13.5302 6.46967C13.8231 6.76256 13.8231 7.23744 13.5302 7.53033L11.0606 9.99994L13.5302 12.4695C13.8231 12.7624 13.8231 13.2373 13.5302 13.5302C13.2373 13.8231 12.7624 13.8231 12.4695 13.5302L9.99994 11.0606L7.53033 13.5302C7.23744 13.8231 6.76256 13.8231 6.46967 13.5302C6.17678 13.2373 6.17678 12.7624 6.46967 12.4695L8.93928 9.99994L6.46967 7.53033C6.17678 7.23744 6.17678 6.76256 6.46967 6.46967Z" fill="black"/>
</svg>
