<svg width="40" height="40" viewBox="0 0 40 40" fill="none" xmlns="http://www.w3.org/2000/svg">
<path fill-rule="evenodd" clip-rule="evenodd" d="M27.3892 11.0998C25.0349 10.0907 22.4969 9.57449 19.9354 9.58343C17.3742 9.59237 14.843 10.1265 12.4955 11.1521C10.1483 12.1775 8.0361 13.6731 6.2892 15.5464C5.81838 16.0513 5.0274 16.0789 4.52251 15.6081C4.01761 15.1373 3.98999 14.3463 4.46081 13.8414C6.44064 11.7183 8.83448 10.0234 11.4947 8.86116C14.1546 7.69905 17.0234 7.09358 19.9266 7.08344C22.8296 7.07331 25.7058 7.65831 28.374 8.80193C31.0424 9.9456 33.4485 11.6248 35.443 13.7339C35.9173 14.2355 35.8952 15.0267 35.3936 15.501C34.892 15.9753 34.1009 15.9532 33.6265 15.4516C31.8665 13.5904 29.7433 12.1088 27.3892 11.0998ZM24.7617 17.2273C23.2443 16.577 21.6108 16.2443 19.9602 16.2501C18.3095 16.2559 16.6777 16.5996 15.1651 17.2605C13.6525 17.9213 12.2913 18.8851 11.1655 20.0924C10.6947 20.5973 9.9037 20.6249 9.39881 20.1541C8.89391 19.6832 8.86629 18.8923 9.33711 18.3874C10.6958 16.9303 12.3386 15.7671 14.1643 14.9696C15.9899 14.1719 17.9593 13.7571 19.9515 13.7501C21.9439 13.7432 23.9155 14.1447 25.7465 14.9295C27.5775 15.7142 29.2293 16.8659 30.5983 18.3136C31.0726 18.8152 31.0505 19.6063 30.5489 20.0807C30.0473 20.555 29.2562 20.5329 28.7818 20.0313C27.6478 18.8321 26.2791 17.8777 24.7617 17.2273ZM22.7926 23.4896C21.9031 23.1084 20.9452 22.9134 19.9776 22.9168C19.0096 22.9201 18.0521 23.1216 17.1657 23.5088C16.279 23.8962 15.481 24.4612 14.8211 25.1689C14.3503 25.6738 13.5593 25.7014 13.0544 25.2306C12.5495 24.7598 12.5219 23.9688 12.9927 23.4639C13.8856 22.5064 14.9652 21.7421 16.1648 21.2179C17.3649 20.6937 18.6601 20.4213 19.9689 20.4168C21.2782 20.4122 22.5743 20.6761 23.7775 21.1918C24.9806 21.7074 26.0659 22.464 26.9656 23.4154C27.4399 23.917 27.4178 24.7082 26.9162 25.1825C26.4146 25.6568 25.6235 25.6347 25.1491 25.1331C24.4844 24.4302 23.6823 23.8709 22.7926 23.4896ZM17.0856 30.0001C17.0856 28.3893 18.3915 27.0834 20.0023 27.0834C21.6131 27.0834 22.9189 28.3893 22.9189 30.0001C22.9189 31.6109 21.6131 32.9168 20.0023 32.9168C18.3915 32.9168 17.0856 31.6109 17.0856 30.0001Z" fill="black"/>
</svg>
