<svg width="19" height="20" viewBox="0 0 19 20" fill="none" xmlns="http://www.w3.org/2000/svg">
<path fill-rule="evenodd" clip-rule="evenodd" d="M8.37515 0.25H10.4256C10.8701 0.249993 11.2411 0.249987 11.5458 0.27077C11.8629 0.292406 12.1624 0.339049 12.4528 0.459332C13.1268 0.738534 13.6619 1.27425 13.941 1.94785C14.0612 2.23816 14.1079 2.53757 14.1296 2.85467C14.1378 2.9758 14.1428 3.10743 14.1458 3.25H17.4004C17.8146 3.25 18.1504 3.58579 18.1504 4C18.1504 4.41421 17.8146 4.75 17.4004 4.75H16.1504V15.8335C16.1504 16.3666 16.1504 16.8117 16.1207 17.1754C16.0897 17.5548 16.0226 17.9111 15.8509 18.2481C15.5871 18.7657 15.1656 19.1869 14.6483 19.4505C14.3113 19.6222 13.9551 19.6893 13.5757 19.7203C13.212 19.75 12.767 19.75 12.2339 19.75H6.56688C6.0338 19.75 5.58856 19.75 5.22472 19.7203C4.84526 19.6893 4.48876 19.6222 4.1517 19.4505C3.63359 19.1865 3.21344 18.7649 2.95012 18.2481C2.7783 17.9109 2.71117 17.5543 2.68013 17.1745C2.65037 16.8103 2.65038 16.3646 2.65039 15.8305L2.65039 4.75H1.40039C0.986177 4.75 0.650391 4.41421 0.650391 4C0.650391 3.58579 0.986177 3.25 1.40039 3.25H4.65492C4.65792 3.10745 4.6629 2.97584 4.67116 2.85474C4.6928 2.53766 4.73945 2.23822 4.85972 1.94785C5.13869 1.27436 5.67359 0.738577 6.34775 0.459332C6.63817 0.339037 6.93778 0.292402 7.25491 0.270769C7.55958 0.249987 7.93068 0.249993 8.37515 0.25ZM6.15524 3.25H12.6455C12.6429 3.14081 12.639 3.04437 12.6331 2.95694C12.6166 2.71632 12.5871 2.5991 12.5551 2.52188C12.4282 2.21537 12.1848 1.97193 11.8787 1.84515C11.8016 1.81319 11.6844 1.78372 11.4436 1.76729C11.1962 1.75041 10.8766 1.75 10.4004 1.75H8.40039C7.92419 1.75 7.60453 1.75041 7.35699 1.76729C7.11616 1.78372 6.9989 1.8132 6.92178 1.84515C6.61582 1.97188 6.37255 2.21526 6.24554 2.52188C6.21357 2.59905 6.1841 2.71623 6.16768 2.95687C6.16171 3.04432 6.1578 3.14079 6.15524 3.25ZM4.15039 4.75V15.8C4.15039 16.3724 4.15097 16.7565 4.17515 17.0523C4.1986 17.3393 4.24047 17.4765 4.28663 17.5671C4.40681 17.803 4.59813 17.9945 4.83268 18.114C4.92302 18.16 5.06012 18.2018 5.34689 18.2253C5.64237 18.2494 6.02597 18.25 6.5973 18.25H12.2035C12.7748 18.25 13.1582 18.2494 13.4535 18.2253C13.7399 18.2019 13.8769 18.16 13.9673 18.114C14.2027 17.9941 14.3946 17.8021 14.5144 17.5671C14.5604 17.4767 14.6022 17.3397 14.6257 17.0532C14.6498 16.7579 14.6504 16.3744 14.6504 15.8031V4.75H4.15039ZM7.40039 7.25C7.8146 7.25 8.15039 7.58579 8.15039 8V15C8.15039 15.4142 7.8146 15.75 7.40039 15.75C6.98618 15.75 6.65039 15.4142 6.65039 15V8C6.65039 7.58579 6.98618 7.25 7.40039 7.25ZM11.4004 7.25C11.8146 7.25 12.1504 7.58579 12.1504 8V15C12.1504 15.4142 11.8146 15.75 11.4004 15.75C10.9862 15.75 10.6504 15.4142 10.6504 15V8C10.6504 7.58579 10.9862 7.25 11.4004 7.25Z" fill="black"/>
</svg>
