<svg width="17" height="20" viewBox="0 0 17 20" fill="none" xmlns="http://www.w3.org/2000/svg">
<path fill-rule="evenodd" clip-rule="evenodd" d="M4.66978 0.25L9.17722 0.250001C9.29783 0.250001 9.40791 0.250001 9.50683 0.250901C9.79702 0.253542 10.0519 0.263073 10.3139 0.325983C10.5951 0.393487 10.8631 0.504974 11.1087 0.655442C11.3878 0.826506 11.621 1.05994 11.9166 1.35592C11.9335 1.3728 11.9505 1.38988 11.9678 1.40717L15.0933 4.53265C15.1093 4.54867 15.1252 4.56449 15.1408 4.58013C15.4393 4.87834 15.6723 5.11111 15.844 5.39132C15.9944 5.63677 16.1061 5.90497 16.1736 6.18625C16.2333 6.4349 16.2452 6.67713 16.2486 6.95013C16.2496 6.96661 16.2502 6.98324 16.2502 7C16.2502 7.01185 16.2499 7.02364 16.2494 7.03536C16.25 7.12396 16.25 7.22083 16.25 7.32568V15.834C16.25 16.3671 16.25 16.8121 16.2203 17.1758C16.1893 17.5552 16.1222 17.9114 15.9505 18.2484C15.6866 18.7662 15.2649 19.187 14.7479 19.4505C14.4109 19.6222 14.0547 19.6893 13.6753 19.7203C13.3116 19.75 12.8666 19.75 12.3335 19.75H4.6665C4.13341 19.75 3.68817 19.75 3.32433 19.7203C2.94487 19.6893 2.58837 19.6222 2.25131 19.4505C1.73344 19.1866 1.31317 18.7654 1.04973 18.2484C0.877905 17.9111 0.810783 17.5546 0.779741 17.1747C0.749981 16.8106 0.74999 16.3648 0.75 15.8306V4.16978C0.74999 3.63561 0.749981 3.18966 0.779738 2.82534C0.81077 2.44541 0.877866 2.08861 1.04973 1.7513C1.31338 1.23386 1.73386 0.813385 2.2513 0.549733C2.58861 0.377866 2.94541 0.31077 3.32534 0.279738C3.68966 0.249981 4.13561 0.24999 4.66978 0.25ZM14.6076 6.25C14.5943 6.2246 14.5801 6.1996 14.5651 6.17507C14.4984 6.06631 14.4031 5.96372 14.0327 5.59332L10.9072 2.46783C10.5362 2.09687 10.4334 2.00087 10.3249 1.9344C10.3004 1.91937 10.2754 1.9052 10.25 1.89193V3.8C10.25 4.37244 10.2506 4.75654 10.2748 5.05231C10.2982 5.33928 10.3401 5.4765 10.3862 5.5671C10.5064 5.80296 10.6977 5.99446 10.9323 6.11397C11.0226 6.16 11.1597 6.20184 11.4465 6.22527C11.742 6.24942 12.1256 6.25 12.6969 6.25H14.6076ZM8.75 1.75V3.83045C8.74999 4.36459 8.74998 4.81035 8.77974 5.17449C8.81079 5.55434 8.87791 5.91086 9.04973 6.24809C9.31305 6.76487 9.7332 7.1865 10.2513 7.45048C10.5884 7.62223 10.9449 7.68928 11.3243 7.72029C11.6882 7.75002 12.1334 7.75001 12.6665 7.75H14.75V15.8036C14.75 16.3749 14.7494 16.7583 14.7253 17.0535C14.7019 17.34 14.66 17.477 14.614 17.5674C14.4943 17.8022 14.3025 17.9939 14.0669 18.114C13.9765 18.16 13.8395 18.2019 13.5531 18.2253C13.2578 18.2494 12.8744 18.25 12.3031 18.25H4.69691C4.12559 18.25 3.74198 18.2494 3.4465 18.2253C3.15973 18.2018 3.02263 18.16 2.93229 18.114C2.69751 17.9943 2.5063 17.803 2.38624 17.5674C2.34008 17.4768 2.29821 17.3396 2.27476 17.0526C2.25058 16.7568 2.25 16.3726 2.25 15.8002V4.2002C2.25 3.62777 2.25058 3.24344 2.27476 2.94745C2.29822 2.66016 2.34012 2.52281 2.38624 2.43229C2.50608 2.19709 2.69709 2.00608 2.93229 1.88624C3.02281 1.84012 3.16016 1.79822 3.44745 1.77476C3.74344 1.75058 4.12778 1.75 4.7002 1.75H8.75ZM8.5 9.25C8.91422 9.25 9.25 9.58579 9.25 10V14.5986L11.084 13.376C11.4286 13.1462 11.8943 13.2393 12.124 13.584C12.3538 13.9286 12.2607 14.3943 11.916 14.624L8.91603 16.624C8.6641 16.792 8.3359 16.792 8.08398 16.624L5.08398 14.624C4.73933 14.3943 4.6462 13.9286 4.87596 13.584C5.10573 13.2393 5.57138 13.1462 5.91603 13.376L7.75 14.5986V10C7.75 9.58579 8.08579 9.25 8.5 9.25Z" fill="black"/>
</svg>
