<svg width="15" height="20" viewBox="0 0 15 20" fill="none" xmlns="http://www.w3.org/2000/svg">
<path fill-rule="evenodd" clip-rule="evenodd" d="M7.69922 0.25C8.11343 0.25 8.44922 0.585786 8.44922 1V13.1893L12.1689 9.46967C12.4618 9.17678 12.9367 9.17678 13.2295 9.46967C13.5224 9.76256 13.5224 10.2374 13.2295 10.5303L8.22955 15.5303C7.93666 15.8232 7.46178 15.8232 7.16889 15.5303L2.16889 10.5303C1.876 10.2374 1.876 9.76256 2.16889 9.46967C2.46178 9.17678 2.93666 9.17678 3.22955 9.46967L6.94922 13.1893V1C6.94922 0.585786 7.28501 0.25 7.69922 0.25ZM0.949219 19C0.949219 18.5858 1.28501 18.25 1.69922 18.25H13.6992C14.1134 18.25 14.4492 18.5858 14.4492 19C14.4492 19.4142 14.1134 19.75 13.6992 19.75H1.69922C1.28501 19.75 0.949219 19.4142 0.949219 19Z" fill="black"/>
</svg>
