<svg width="18" height="18" viewBox="0 0 18 18" fill="none" xmlns="http://www.w3.org/2000/svg">
<path fill-rule="evenodd" clip-rule="evenodd" d="M12.9261 2.17524C12.9179 2.17958 12.8886 2.19697 12.8286 2.24786C12.7301 2.33149 12.6069 2.45391 12.4007 2.66009L12.397 2.6638L10.0607 5.00011L13 7.93944L15.3452 5.59423C15.548 5.39138 15.669 5.26945 15.7519 5.17181C15.8029 5.11174 15.8203 5.08238 15.8246 5.07415C15.8396 5.02592 15.8396 4.97435 15.8247 4.92621C15.8203 4.91798 15.8029 4.88853 15.7517 4.82822C15.6678 4.72942 15.545 4.60581 15.3383 4.39905L13.5985 2.65925C13.3926 2.45335 13.2695 2.33113 13.1712 2.24765C13.1114 2.19695 13.0822 2.17958 13.074 2.17523C13.0258 2.16034 12.9743 2.16034 12.9261 2.17524ZM11.9393 9.0001L9 6.06078L1.75 13.3108V16.2501L4.68934 16.2501L11.9393 9.0001ZM12.4593 0.749713C12.8107 0.635512 13.1894 0.635512 13.5408 0.749713C13.7864 0.829494 13.9792 0.966 14.1419 1.10406C14.2927 1.23211 14.4594 1.39883 14.6407 1.58011L14.6591 1.5986L16.3989 3.33839L16.4175 3.35692C16.5996 3.53898 16.7668 3.70621 16.8952 3.85744C17.0336 4.02045 17.1703 4.21355 17.2502 4.4594C17.3644 4.81093 17.3644 5.18953 17.2502 5.54096C17.1703 5.78667 17.0337 5.97963 16.8955 6.14254C16.7672 6.29361 16.6002 6.46063 16.4184 6.64241L16.3929 6.66785L5.53033 17.5304C5.38968 17.6711 5.19892 17.7501 5 17.7501L1 17.7501C0.801091 17.7501 0.610325 17.6711 0.469671 17.5304C0.329018 17.3898 0.25 17.199 0.25 17.0001V13.0001C0.25 12.8012 0.329018 12.6104 0.46967 12.4698L11.342 1.59742L11.3585 1.58092C11.5401 1.39937 11.7069 1.23247 11.8579 1.10431C12.0207 0.966138 12.2136 0.829533 12.4593 0.749713Z" fill="black"/>
</svg>
