<svg width="24" height="24" viewBox="0 0 24 24" fill="none" xmlns="http://www.w3.org/2000/svg">
<path fill-rule="evenodd" clip-rule="evenodd" d="M8.53033 4.46967C8.82322 4.76256 8.82322 5.23744 8.53033 5.53033L6.81066 7.25H19C19.4142 7.25 19.75 7.58579 19.75 8C19.75 8.41421 19.4142 8.75 19 8.75H6.81066L8.53033 10.4697C8.82322 10.7626 8.82322 11.2374 8.53033 11.5303C8.23744 11.8232 7.76256 11.8232 7.46967 11.5303L4.46967 8.53033C4.17678 8.23744 4.17678 7.76256 4.46967 7.46967L7.46967 4.46967C7.76256 4.17678 8.23744 4.17678 8.53033 4.46967ZM15.4697 12.4697C15.7626 12.1768 16.2374 12.1768 16.5303 12.4697L19.5303 15.4697C19.8232 15.7626 19.8232 16.2374 19.5303 16.5303L16.5303 19.5303C16.2374 19.8232 15.7626 19.8232 15.4697 19.5303C15.1768 19.2374 15.1768 18.7626 15.4697 18.4697L17.1893 16.75H5C4.58579 16.75 4.25 16.4142 4.25 16C4.25 15.5858 4.58579 15.25 5 15.25H17.1893L15.4697 13.5303C15.1768 13.2374 15.1768 12.7626 15.4697 12.4697Z" fill="black"/>
</svg>
