<svg width="26" height="18" viewBox="0 0 26 18" fill="none" xmlns="http://www.w3.org/2000/svg">
<path fill-rule="evenodd" clip-rule="evenodd" d="M5.22637 5.36068e-07H20.7742C21.4864 -1.36896e-05 22.0806 -2.55307e-05 22.566 0.0396572C23.0724 0.0810563 23.5476 0.170575 23.9972 0.399644C24.686 0.750628 25.2486 1.31073 25.6006 2.00174C25.8296 2.45116 25.919 2.92649 25.9604 3.43244C26 3.91756 26 4.51121 26 5.22199V12.778C26 13.4888 26 14.0822 25.9604 14.5671C25.919 15.0729 25.8296 15.5479 25.6006 15.9972C25.2491 16.6871 24.6871 17.2491 23.9972 17.6006C23.5479 17.8296 23.0729 17.919 22.5671 17.9604C22.0822 18 21.4888 18 20.7781 18L4.99924 17.9999C4.35063 17.9994 3.7998 17.9958 3.3401 17.9522C2.86893 17.9076 2.42431 17.816 2.00174 17.6006C1.31073 17.2486 0.750628 16.686 0.399644 15.9972C0.170575 15.5476 0.0810563 15.0724 0.0396572 14.566C-2.55307e-05 14.0806 -1.36896e-05 13.4864 5.36068e-07 12.7742V5.22637C-1.36896e-05 4.51414 -2.54512e-05 3.91955 0.0396512 3.43378C0.0810267 2.92721 0.170489 2.45148 0.399644 2.00174C0.751179 1.31181 1.31181 0.751179 2.00174 0.399644C2.45148 0.170489 2.92721 0.0810268 3.43378 0.0396512C3.91955 -2.54512e-05 4.51414 -1.36896e-05 5.22637 5.36068e-07ZM3.5966 2.03301C3.21354 2.0643 3.03041 2.12016 2.90972 2.18166C2.59612 2.34145 2.34145 2.59612 2.18166 2.90972C2.12016 3.03041 2.0643 3.21354 2.03301 3.5966C2.00078 3.99126 2 4.5037 2 5.26693V12.7336C2 13.4969 2.00078 14.0088 2.03301 14.4031C2.06427 14.7855 2.12008 14.9683 2.18166 15.0892C2.342 15.4039 2.5972 15.6594 2.90972 15.8186C3.02254 15.8761 3.19121 15.9292 3.5289 15.9612C3.71293 15.9786 3.92597 15.9883 4.18428 15.9936C4.45304 15.2829 4.98946 14.7006 5.61691 14.2823C6.52654 13.6759 7.72556 13.3333 9 13.3333C10.2745 13.3333 11.4735 13.6759 12.3831 14.2823C13.0124 14.7019 13.5502 15.2864 13.8181 16H20.7375C21.4992 16 22.0104 15.9992 22.4041 15.967C22.786 15.9358 22.9686 15.8801 23.0892 15.8186C23.4028 15.6588 23.6588 15.4028 23.8186 15.0892C23.8801 14.9686 23.9358 14.786 23.967 14.4041C23.9992 14.0104 24 13.4992 24 12.7375V5.26255C24 4.50078 23.9992 3.98931 23.967 3.59533C23.9358 3.21297 23.88 3.03017 23.8186 2.90972C23.6594 2.5972 23.4039 2.342 23.0892 2.18166C22.9683 2.12008 22.7855 2.06427 22.4031 2.03301C22.0088 2.00078 21.4969 2 20.7336 2H5.26693C4.5037 2 3.99126 2.00078 3.5966 2.03301ZM11.3512 16C11.3262 15.9821 11.3004 15.9642 11.2737 15.9464C10.7356 15.5877 9.93468 15.3333 9 15.3333C8.06533 15.3333 7.26438 15.5877 6.7263 15.9464C6.6996 15.9642 6.67378 15.9821 6.64881 16H11.3512ZM9 6C8.07953 6 7.33333 6.74619 7.33333 7.66667C7.33333 8.58714 8.07953 9.33333 9 9.33333C9.92048 9.33333 10.6667 8.58714 10.6667 7.66667C10.6667 6.74619 9.92048 6 9 6ZM5.33333 7.66667C5.33333 5.64162 6.97496 4 9 4C11.025 4 12.6667 5.64162 12.6667 7.66667C12.6667 9.69171 11.025 11.3333 9 11.3333C6.97496 11.3333 5.33333 9.69171 5.33333 7.66667ZM16 7.66667C16 7.11438 16.4477 6.66667 17 6.66667H21C21.5523 6.66667 22 7.11438 22 7.66667C22 8.21895 21.5523 8.66667 21 8.66667H17C16.4477 8.66667 16 8.21895 16 7.66667ZM14.6667 11.6667C14.6667 11.1144 15.1144 10.6667 15.6667 10.6667H21C21.5523 10.6667 22 11.1144 22 11.6667C22 12.219 21.5523 12.6667 21 12.6667H15.6667C15.1144 12.6667 14.6667 12.219 14.6667 11.6667Z" fill="#7F7A84"/>
</svg>
