<svg width="38" height="24" viewBox="0 0 38 24" fill="none" xmlns="http://www.w3.org/2000/svg">
<g clip-path="url(#clip0_1461_198064)">
<path d="M28.5844 14.9468H31.2573C31.3337 14.9468 31.5119 14.9217 31.5882 14.9217C32.0974 14.8212 32.5301 14.369 32.5301 13.741C32.5301 13.1381 32.0974 12.6859 31.5882 12.5603C31.5119 12.5352 31.3591 12.5352 31.2573 12.5352H28.5844V14.9468Z" fill="url(#paint0_linear_1461_198064)"/>
<path d="M30.9516 0.015625C28.406 0.015625 26.3185 2.05047 26.3185 4.58775V7.61178H32.8609C33.0136 7.61178 33.1918 7.61179 33.3191 7.63691C34.7956 7.71227 35.8902 8.46592 35.8902 9.77224C35.8902 10.8022 35.152 11.6815 33.7773 11.8573V11.9076C35.2792 12.0081 36.4248 12.8371 36.4248 14.1183C36.4248 15.5 35.152 16.4043 33.4718 16.4043H26.2931V23.9754H33.09C35.6356 23.9754 37.7231 21.9405 37.7231 19.4032V0.015625H30.9516Z" fill="url(#paint1_linear_1461_198064)"/>
<path d="M32.1992 10.0741C32.1992 9.47118 31.7664 9.06924 31.2573 8.99387C31.2064 8.99387 31.0791 8.96875 31.0027 8.96875H28.5844V11.1794H31.0027C31.0791 11.1794 31.2318 11.1794 31.2573 11.1543C31.7664 11.079 32.1992 10.677 32.1992 10.0741Z" fill="url(#paint2_linear_1461_198064)"/>
<path d="M5.3419 0.015625C2.79624 0.015625 0.708806 2.05047 0.708806 4.58775V14.1434C2.00709 14.7714 3.35629 15.1734 4.70548 15.1734C6.30924 15.1734 7.17477 14.2188 7.17477 12.9124V7.58666H11.146V12.8873C11.146 14.9473 9.8477 16.6304 5.44372 16.6304C2.77078 16.6304 0.68335 16.0526 0.68335 16.0526V23.9503H7.48024C10.0259 23.9503 12.1133 21.9154 12.1133 19.3781V0.015625H5.3419Z" fill="url(#paint3_linear_1461_198064)"/>
<path d="M18.1466 0.015625C15.601 0.015625 13.5135 2.05047 13.5135 4.58775V8.84274C14.6846 7.863 16.7211 7.23496 20.005 7.38569C21.7615 7.46105 23.6452 7.93836 23.6452 7.93836V9.87272C22.7034 9.39541 21.5833 8.96835 20.1322 8.86786C17.6375 8.69201 16.1356 9.89784 16.1356 12.0081C16.1356 14.1434 17.6375 15.3492 20.1322 15.1483C21.5833 15.0478 22.7034 14.5956 23.6452 14.1434V16.0778C23.6452 16.0778 21.7869 16.5551 20.005 16.6304C16.7211 16.7812 14.6846 16.1531 13.5135 15.1734V24.0005H20.3104C22.8561 24.0005 24.9435 21.9656 24.9435 19.4284V0.015625H18.1466Z" fill="url(#paint4_linear_1461_198064)"/>
</g>
<defs>
<linearGradient id="paint0_linear_1461_198064" x1="26.3145" y1="13.744" x2="37.754" y2="13.744" gradientUnits="userSpaceOnUse">
<stop stop-color="#007940"/>
<stop offset="0.2285" stop-color="#00873F"/>
<stop offset="0.7433" stop-color="#40A737"/>
<stop offset="1" stop-color="#5CB531"/>
</linearGradient>
<linearGradient id="paint1_linear_1461_198064" x1="26.314" y1="11.9845" x2="37.7543" y2="11.9845" gradientUnits="userSpaceOnUse">
<stop stop-color="#007940"/>
<stop offset="0.2285" stop-color="#00873F"/>
<stop offset="0.7433" stop-color="#40A737"/>
<stop offset="1" stop-color="#5CB531"/>
</linearGradient>
<linearGradient id="paint2_linear_1461_198064" x1="26.3142" y1="10.071" x2="37.7541" y2="10.071" gradientUnits="userSpaceOnUse">
<stop stop-color="#007940"/>
<stop offset="0.2285" stop-color="#00873F"/>
<stop offset="0.7433" stop-color="#40A737"/>
<stop offset="1" stop-color="#5CB531"/>
</linearGradient>
<linearGradient id="paint3_linear_1461_198064" x1="0.703416" y1="11.9845" x2="12.32" y2="11.9845" gradientUnits="userSpaceOnUse">
<stop stop-color="#1F286F"/>
<stop offset="0.4751" stop-color="#004E94"/>
<stop offset="0.8261" stop-color="#0066B1"/>
<stop offset="1" stop-color="#006FBC"/>
</linearGradient>
<linearGradient id="paint4_linear_1461_198064" x1="13.4477" y1="11.9845" x2="24.7301" y2="11.9845" gradientUnits="userSpaceOnUse">
<stop stop-color="#6C2C2F"/>
<stop offset="0.1735" stop-color="#882730"/>
<stop offset="0.5731" stop-color="#BE1833"/>
<stop offset="0.8585" stop-color="#DC0436"/>
<stop offset="1" stop-color="#E60039"/>
</linearGradient>
<clipPath id="clip0_1461_198064">
<rect width="38" height="24" fill="white"/>
</clipPath>
</defs>
</svg>
