<svg width="40" height="40" viewBox="0 0 40 40" fill="none" xmlns="http://www.w3.org/2000/svg">
<path fill-rule="evenodd" clip-rule="evenodd" d="M8.6189 8.75H31.387C32.2772 8.74998 33.02 8.74997 33.6268 8.79957C34.2598 8.85132 34.8538 8.96322 35.4158 9.24955C36.2768 9.68829 36.98 10.3884 37.4201 11.2522C37.7063 11.814 37.8181 12.4081 37.8697 13.0405C37.9193 13.647 37.9193 14.389 37.9193 15.2775V24.7225C37.9193 25.611 37.9193 26.3527 37.8697 26.9588C37.818 27.5911 37.7062 28.1848 37.4201 28.7465C36.9807 29.6089 36.2782 30.3114 35.4158 30.7508C34.8541 31.037 34.2604 31.1488 33.6281 31.2005C33.022 31.25 32.2803 31.25 31.3919 31.25H8.61343C7.72495 31.25 6.98289 31.25 6.37648 31.2005C5.74405 31.1488 5.14989 31.037 4.58811 30.7508C3.72435 30.3107 3.02422 29.6075 2.58549 28.7465C2.29916 28.1845 2.18726 27.5905 2.13551 26.9575C2.08591 26.3508 2.08592 25.608 2.08594 24.7178V15.283C2.08592 14.3927 2.08591 13.6494 2.1355 13.0422C2.18722 12.409 2.29905 11.8144 2.58549 11.2522C3.02491 10.3898 3.7257 9.68897 4.58811 9.24955C5.15029 8.96311 5.74495 8.85128 6.37816 8.79956C6.98538 8.74997 7.72862 8.74998 8.6189 8.75ZM6.58168 11.2913C6.10287 11.3304 5.87395 11.4002 5.72309 11.4771C5.33108 11.6768 5.01274 11.9951 4.81301 12.3872C4.73614 12.538 4.66631 12.7669 4.6272 13.2457C4.58691 13.7391 4.58594 14.3796 4.58594 15.3337V24.667C4.58594 25.6211 4.58691 26.2611 4.6272 26.7538C4.66628 27.2318 4.73603 27.4604 4.81301 27.6115C5.01343 28.0049 5.33243 28.3242 5.72309 28.5233C5.87365 28.6 6.10216 28.6697 6.5801 28.7088C7.07257 28.749 7.71191 28.75 8.66412 28.75H31.3411C32.2933 28.75 32.9323 28.749 33.4244 28.7088C33.9018 28.6698 34.1301 28.6001 34.2808 28.5233C34.6728 28.3236 34.9928 28.0035 35.1926 27.6115C35.2693 27.4608 35.339 27.2325 35.3781 26.7551C35.4183 26.263 35.4193 25.6241 35.4193 24.6718V15.3282C35.4193 14.376 35.4183 13.7366 35.3781 13.2442C35.339 12.7662 35.2693 12.5377 35.1926 12.3871C34.9935 11.9965 34.6741 11.6775 34.2808 11.4771C34.1297 11.4001 33.9011 11.3303 33.4231 11.2913C32.9303 11.251 32.2903 11.25 31.3363 11.25H8.6696C7.71556 11.25 7.07501 11.251 6.58168 11.2913ZM7.08594 15C7.08594 14.3096 7.64558 13.75 8.33594 13.75H31.6693C32.3596 13.75 32.9193 14.3096 32.9193 15C32.9193 15.6904 32.3596 16.25 31.6693 16.25H8.33594C7.64558 16.25 7.08594 15.6904 7.08594 15ZM7.08594 20C7.08594 19.3096 7.64558 18.75 8.33594 18.75H31.6693C32.3596 18.75 32.9193 19.3096 32.9193 20C32.9193 20.6904 32.3596 21.25 31.6693 21.25H8.33594C7.64558 21.25 7.08594 20.6904 7.08594 20ZM7.08594 25C7.08594 24.3096 7.64558 23.75 8.33594 23.75H10.0026C10.693 23.75 11.2526 24.3096 11.2526 25C11.2526 25.6904 10.693 26.25 10.0026 26.25H8.33594C7.64558 26.25 7.08594 25.6904 7.08594 25ZM13.7526 25C13.7526 24.3096 14.3122 23.75 15.0026 23.75H25.0026C25.693 23.75 26.2526 24.3096 26.2526 25C26.2526 25.6904 25.693 26.25 25.0026 26.25H15.0026C14.3122 26.25 13.7526 25.6904 13.7526 25ZM28.7526 25C28.7526 24.3096 29.3122 23.75 30.0026 23.75H31.6693C32.3596 23.75 32.9193 24.3096 32.9193 25C32.9193 25.6904 32.3596 26.25 31.6693 26.25H30.0026C29.3122 26.25 28.7526 25.6904 28.7526 25Z" fill="black"/>
</svg>
