<svg width="30" height="18" viewBox="0 0 30 18" fill="none" xmlns="http://www.w3.org/2000/svg">
<path fill-rule="evenodd" clip-rule="evenodd" d="M5.89305 5.36069e-07H24.1076C24.8197 -1.36896e-05 25.4139 -2.55307e-05 25.8994 0.0396571C26.4058 0.0810563 26.881 0.170574 27.3305 0.399644C28.0194 0.750629 28.5819 1.31073 28.934 2.00174C29.163 2.45116 29.2524 2.92649 29.2937 3.43244C29.3334 3.91756 29.3334 4.51121 29.3333 5.22199V12.778C29.3334 13.4888 29.3334 14.0822 29.2937 14.5671C29.2524 15.0729 29.1629 15.5479 28.934 15.9972C28.5824 16.6871 28.0205 17.2491 27.3305 17.6006C26.8812 17.8296 26.4062 17.919 25.9004 17.9604C25.4155 18 24.8221 18 24.1114 18H5.88866C5.17788 18 4.58423 18 4.09911 17.9604C3.59316 17.919 3.11783 17.8296 2.66841 17.6006C1.9774 17.2486 1.4173 16.686 1.06632 15.9972C0.837247 15.5476 0.747728 15.0724 0.706329 14.566C0.666646 14.0806 0.666658 13.4864 0.666672 12.7742V5.22637C0.666658 4.51414 0.666646 3.91955 0.706323 3.43378C0.747698 2.92721 0.83716 2.45148 1.06632 2.00174C1.41785 1.31181 1.97848 0.751179 2.66841 0.399644C3.11815 0.170489 3.59388 0.0810268 4.10045 0.0396512C4.58622 -2.54512e-05 5.18082 -1.36896e-05 5.89305 5.36069e-07ZM4.26327 2.03301C3.88022 2.0643 3.69708 2.12016 3.57639 2.18166C3.26279 2.34145 3.00812 2.59612 2.84833 2.90972C2.78683 3.03041 2.73097 3.21354 2.69969 3.5966C2.66745 3.99126 2.66667 4.5037 2.66667 5.26693V12.7336C2.66667 13.4969 2.66745 14.0088 2.69968 14.4031C2.73094 14.7855 2.78675 14.9683 2.84833 15.0892C3.00867 15.4039 3.26387 15.6594 3.57639 15.8186C3.69684 15.88 3.87965 15.9358 4.262 15.967C4.65598 15.9992 5.16745 16 5.92922 16H24.0708C24.8326 16 25.3437 15.9992 25.7374 15.967C26.1194 15.9358 26.302 15.8801 26.4225 15.8186C26.7361 15.6588 26.9922 15.4028 27.152 15.0892C27.2134 14.9686 27.2691 14.786 27.3004 14.4041C27.3326 14.0104 27.3333 13.4992 27.3333 12.7375V5.26255C27.3333 4.50078 27.3326 3.98931 27.3004 3.59533C27.2691 3.21297 27.2133 3.03017 27.152 2.90972C26.9927 2.59719 26.7372 2.342 26.4225 2.18166C26.3017 2.12008 26.1188 2.06427 25.7364 2.03301C25.3422 2.00078 24.8302 2 24.0669 2H5.9336C5.17037 2 4.65793 2.00078 4.26327 2.03301ZM4.66667 5C4.66667 4.44772 5.11439 4 5.66667 4H24.3333C24.8856 4 25.3333 4.44772 25.3333 5C25.3333 5.55229 24.8856 6 24.3333 6H5.66667C5.11439 6 4.66667 5.55229 4.66667 5ZM4.66667 9C4.66667 8.44772 5.11439 8 5.66667 8H24.3333C24.8856 8 25.3333 8.44772 25.3333 9C25.3333 9.55229 24.8856 10 24.3333 10H5.66667C5.11439 10 4.66667 9.55229 4.66667 9ZM4.66667 13C4.66667 12.4477 5.11439 12 5.66667 12H7.00001C7.55229 12 8.00001 12.4477 8.00001 13C8.00001 13.5523 7.55229 14 7.00001 14H5.66667C5.11439 14 4.66667 13.5523 4.66667 13ZM10 13C10 12.4477 10.4477 12 11 12H19C19.5523 12 20 12.4477 20 13C20 13.5523 19.5523 14 19 14H11C10.4477 14 10 13.5523 10 13ZM22 13C22 12.4477 22.4477 12 23 12H24.3333C24.8856 12 25.3333 12.4477 25.3333 13C25.3333 13.5523 24.8856 14 24.3333 14H23C22.4477 14 22 13.5523 22 13Z" fill="#7F7A84"/>
</svg>
