<svg width="24" height="24" viewBox="0 0 24 24" fill="none" xmlns="http://www.w3.org/2000/svg">
<path fill-rule="evenodd" clip-rule="evenodd" d="M17.8333 6.1664C16.5641 4.89713 14.5066 4.89698 13.2374 6.16612L11.8232 7.58033C11.5303 7.87323 11.0555 7.87323 10.7626 7.58033C10.4697 7.28744 10.4697 6.81257 10.7626 6.51967L12.1768 5.10546C14.0318 3.2504 17.0391 3.25082 18.894 5.10574C20.749 6.9607 20.7489 9.96816 18.894 11.8231C18.894 11.8232 18.8941 11.8231 18.894 11.8231L17.4806 13.2373C17.1878 13.5303 16.7129 13.5304 16.4199 13.2376C16.127 12.9448 16.1268 12.4699 16.4197 12.1769L17.8331 10.7627C19.1023 9.49353 19.1025 7.43558 17.8333 6.1664ZM15.359 8.64159C15.6519 8.93448 15.6519 9.40936 15.359 9.70225L9.70213 15.3591C9.40924 15.652 8.93436 15.652 8.64147 15.3591C8.34858 15.0662 8.34858 14.5913 8.64147 14.2984L14.2983 8.64159C14.5912 8.3487 15.0661 8.3487 15.359 8.64159ZM7.58119 10.7627C7.87408 11.0556 7.87408 11.5305 7.58119 11.8233L6.16697 13.2376C4.89766 14.5069 4.89743 16.5648 6.16652 17.8339C7.43553 19.1029 9.49388 19.1028 10.7632 17.8337C10.7631 17.8338 10.7633 17.8337 10.7632 17.8337L12.1759 16.4197C12.4687 16.1266 12.9435 16.1264 13.2366 16.4192C13.5296 16.7119 13.5298 17.1868 13.2371 17.4798L11.8244 18.8939C9.9695 20.7488 6.96096 20.7497 5.10586 18.8946C3.25076 17.0395 3.25143 14.0318 5.10631 12.1769L6.52053 10.7627C6.81342 10.4698 7.28829 10.4698 7.58119 10.7627Z" fill="black"/>
</svg>
