<svg width="18" height="18" viewBox="0 0 18 18" fill="none" xmlns="http://www.w3.org/2000/svg">
<path fill-rule="evenodd" clip-rule="evenodd" d="M4.62734 2.0625H13.373C13.7736 2.06249 14.1078 2.06249 14.3809 2.08481C14.6657 2.10809 14.933 2.15845 15.1859 2.2873C15.5734 2.48473 15.8898 2.79979 16.0879 3.18848C16.2167 3.44128 16.267 3.70865 16.2902 3.99325C16.3125 4.26613 16.3125 4.60006 16.3125 4.99987V13.0005C16.3125 13.4003 16.3125 13.7341 16.2902 14.0068C16.2669 14.2914 16.2166 14.5585 16.0879 14.8113C15.89 15.1997 15.5737 15.5153 15.1859 15.7129C14.9332 15.8416 14.666 15.8919 14.3815 15.9152C14.1087 15.9375 13.7749 15.9375 13.3751 15.9375H4.62487C4.22506 15.9375 3.89113 15.9375 3.61825 15.9152C3.33365 15.892 3.06628 15.8417 2.81348 15.7129C2.42508 15.515 2.10988 15.199 1.9123 14.8113C1.78343 14.5584 1.73309 14.2909 1.70981 14.006C1.68749 13.7329 1.68749 13.3986 1.6875 12.998V5.00234C1.68749 4.60171 1.68749 4.26725 1.7098 3.994C1.73308 3.70906 1.7834 3.44146 1.9123 3.18848C2.11004 2.80039 2.42539 2.48504 2.81348 2.2873C3.06646 2.1584 3.33406 2.10808 3.619 2.0848C3.89225 2.06249 4.22671 2.06249 4.62734 2.0625ZM3.71058 3.20607C3.49512 3.22367 3.39211 3.25509 3.32422 3.28968C3.14782 3.37956 3.00456 3.52282 2.91468 3.69922C2.88009 3.76711 2.84867 3.87012 2.83107 4.08558C2.81294 4.30758 2.8125 4.59583 2.8125 5.02515V12.9751C2.8125 13.4045 2.81294 13.6926 2.83107 13.9144C2.84866 14.1297 2.88006 14.2326 2.91468 14.3005C3.00473 14.4773 3.14813 14.6208 3.32422 14.7105C3.39197 14.745 3.4948 14.7764 3.70987 14.794C3.93149 14.8121 4.21919 14.8125 4.64768 14.8125H13.3523C13.7808 14.8125 14.0684 14.8121 14.2898 14.794C14.5046 14.7764 14.6074 14.745 14.6752 14.7105C14.8519 14.6204 14.9957 14.4767 15.0855 14.3005C15.12 14.2327 15.1514 14.13 15.169 13.9152C15.1871 13.6937 15.1875 13.4062 15.1875 12.9777V5.02268C15.1875 4.59419 15.1871 4.30649 15.169 4.08487C15.1514 3.8698 15.12 3.76697 15.0855 3.69922C14.9959 3.52342 14.8522 3.37987 14.6752 3.28968C14.6072 3.25504 14.5043 3.22365 14.2892 3.20607C14.0675 3.18794 13.7795 3.1875 13.3501 3.1875H4.65015C4.22083 3.1875 3.93258 3.18794 3.71058 3.20607Z" fill="#D5D5F6"/>
<path fill-rule="evenodd" clip-rule="evenodd" d="M7.14775 6.35225C7.36742 6.57192 7.36742 6.92808 7.14775 7.14775L5.85799 8.4375H12.142L10.8523 7.14775C10.6326 6.92808 10.6326 6.57192 10.8523 6.35225C11.0719 6.13258 11.4281 6.13258 11.6477 6.35225L13.8977 8.60225C14.1174 8.82192 14.1174 9.17808 13.8977 9.39775L11.6477 11.6477C11.4281 11.8674 11.0719 11.8674 10.8523 11.6477C10.6326 11.4281 10.6326 11.0719 10.8523 10.8523L12.142 9.5625H5.858L7.14775 10.8523C7.36742 11.0719 7.36742 11.4281 7.14775 11.6477C6.92808 11.8674 6.57192 11.8674 6.35225 11.6477L4.10225 9.39775C3.88258 9.17808 3.88258 8.82192 4.10225 8.60225L6.35225 6.35225C6.57192 6.13258 6.92808 6.13258 7.14775 6.35225Z" fill="#D5D5F6"/>
</svg>
