<svg width="18" height="18" viewBox="0 0 18 18" fill="none" xmlns="http://www.w3.org/2000/svg">
<rect y="0.000488281" width="18" height="18" rx="4" fill="#950303"/>
<path fill-rule="evenodd" clip-rule="evenodd" d="M9.35225 4.10274C9.57192 3.88307 9.92808 3.88307 10.1477 4.10274L14.6477 8.60274C14.8674 8.82241 14.8674 9.17857 14.6477 9.39824L10.1477 13.8982C9.92808 14.1179 9.57192 14.1179 9.35225 13.8982C9.13258 13.6786 9.13258 13.3224 9.35225 13.1027L12.892 9.56299H3.75C3.43934 9.56299 3.1875 9.31115 3.1875 9.00049C3.1875 8.68983 3.43934 8.43799 3.75 8.43799H12.892L9.35225 4.89824C9.13258 4.67857 9.13258 4.32241 9.35225 4.10274Z" fill="#FECDCD"/>
</svg>
