<svg width="17" height="17" viewBox="0 0 17 17" fill="none" xmlns="http://www.w3.org/2000/svg">
<path fill-rule="evenodd" clip-rule="evenodd" d="M10.25 1C10.25 0.585786 10.5858 0.25 11 0.25H16C16.4142 0.25 16.75 0.585786 16.75 1V6C16.75 6.41421 16.4142 6.75 16 6.75C15.5858 6.75 15.25 6.41421 15.25 6V2.81066L9.53033 8.53033C9.23744 8.82322 8.76256 8.82322 8.46967 8.53033C8.17678 8.23744 8.17678 7.76256 8.46967 7.46967L14.1893 1.75H11C10.5858 1.75 10.25 1.41421 10.25 1ZM4.16978 1.25L6.0002 1.25C6.41441 1.25 6.7502 1.58579 6.7502 2C6.7502 2.41421 6.41441 2.75 6.0002 2.75H4.2002C3.62777 2.75 3.24344 2.75058 2.94745 2.77476C2.66016 2.79822 2.52281 2.84012 2.43229 2.88624C2.19709 3.00608 2.00608 3.19709 1.88624 3.43229C1.84012 3.52281 1.79822 3.66016 1.77476 3.94745C1.75058 4.24344 1.75 4.62777 1.75 5.2002V12.8002C1.75 13.3726 1.75058 13.7568 1.77476 14.0526C1.79821 14.3396 1.84008 14.4768 1.88624 14.5674C2.0063 14.803 2.19751 14.9943 2.43229 15.114C2.52263 15.16 2.65973 15.2018 2.9465 15.2253C3.24198 15.2494 3.62558 15.25 4.19691 15.25H11.8031C12.3744 15.25 12.7578 15.2494 13.0531 15.2253C13.3395 15.2019 13.4765 15.16 13.5669 15.114C13.8023 14.9941 13.9942 14.8021 14.114 14.5671C14.16 14.4767 14.2018 14.3397 14.2253 14.0532C14.2494 13.7579 14.25 13.3744 14.25 12.8031V11C14.25 10.5858 14.5858 10.25 15 10.25C15.4142 10.25 15.75 10.5858 15.75 11V12.8335C15.75 13.3666 15.75 13.8117 15.7203 14.1754C15.6893 14.5548 15.6222 14.9111 15.4505 15.2481C15.1868 15.7657 14.7652 16.1869 14.2479 16.4505C13.9109 16.6222 13.5547 16.6893 13.1753 16.7203C12.8116 16.75 12.3666 16.75 11.8336 16.75H4.16649C3.63341 16.75 3.18817 16.75 2.82433 16.7203C2.44487 16.6893 2.08837 16.6222 1.7513 16.4505C1.23344 16.1866 0.813168 15.7654 0.549733 15.2484C0.377905 14.9111 0.310783 14.5546 0.279741 14.1747C0.249981 13.8106 0.24999 13.3648 0.25 12.8306V5.16978C0.24999 4.63561 0.249981 4.18966 0.279738 3.82534C0.31077 3.44541 0.377866 3.08861 0.549733 2.7513C0.813385 2.23386 1.23386 1.81338 1.7513 1.54973C2.08861 1.37787 2.44541 1.31077 2.82534 1.27974C3.18966 1.24998 3.63561 1.24999 4.16978 1.25Z" fill="black"/>
</svg>
