<svg width="16" height="15" viewBox="0 0 16 15" fill="none" xmlns="http://www.w3.org/2000/svg">
<path fill-rule="evenodd" clip-rule="evenodd" d="M8 1.40637C4.58274 1.40637 1.8125 4.17661 1.8125 7.59387C1.8125 9.50229 2.67648 11.2089 4.03464 12.3439C5.07269 11.3751 6.46735 10.7814 8 10.7814C9.53268 10.7814 10.9273 11.3752 11.9653 12.344C13.3235 11.209 14.1875 9.50231 14.1875 7.59387C14.1875 4.17661 11.4173 1.40637 8 1.40637ZM11.0106 13.0008C10.1959 12.3173 9.14619 11.9064 8 11.9064C6.85382 11.9064 5.80405 12.3173 4.98929 13.0008C5.88038 13.498 6.9071 13.7814 8 13.7814C9.09288 13.7814 10.1196 13.498 11.0106 13.0008ZM0.6875 7.59387C0.6875 3.55529 3.96142 0.281372 8 0.281372C12.0386 0.281372 15.3125 3.55529 15.3125 7.59387C15.3125 11.6325 12.0386 14.9064 8 14.9064C3.96142 14.9064 0.6875 11.6325 0.6875 7.59387ZM8 5.15637C7.06802 5.15637 6.3125 5.91189 6.3125 6.84387C6.3125 7.77585 7.06802 8.53137 8 8.53137C8.93198 8.53137 9.6875 7.77585 9.6875 6.84387C9.6875 5.91189 8.93198 5.15637 8 5.15637ZM5.1875 6.84387C5.1875 5.29057 6.4467 4.03137 8 4.03137C9.5533 4.03137 10.8125 5.29057 10.8125 6.84387C10.8125 8.39717 9.5533 9.65637 8 9.65637C6.4467 9.65637 5.1875 8.39717 5.1875 6.84387Z" fill="#7F7A84"/>
</svg>
