<svg width="26" height="24" viewBox="0 0 26 24" fill="none" xmlns="http://www.w3.org/2000/svg">
<path fill-rule="evenodd" clip-rule="evenodd" d="M9.61861 2.37815C9.45359 2.33854 9.26596 2.3321 8.56602 2.3321H3.66667C3.1214 2.3321 2.63728 2.59396 2.33321 2.99877H10.5838C10.3172 2.73702 10.2108 2.64593 10.0999 2.57797C9.94989 2.48605 9.78767 2.41874 9.61861 2.37815ZM13.4142 2.99877L12.2904 1.875C12.2674 1.85194 12.2446 1.82916 12.2221 1.80665C11.828 1.41201 11.5171 1.10078 11.1449 0.872694C10.8177 0.672197 10.4606 0.523477 10.0855 0.433415C9.66094 0.331487 9.22084 0.331743 8.66271 0.332067C8.63087 0.332086 8.59865 0.332104 8.56602 0.332104H3.66667C1.64162 0.332104 1.01284e-06 1.97373 1.01284e-06 3.99877L5.35998e-07 18.4394C-1.36896e-05 19.1516 -2.54512e-05 19.7459 0.0396552 20.2314C0.0810466 20.7379 0.170546 21.2133 0.399644 21.6629C0.750735 22.3519 1.31094 22.9141 2.00174 23.2661C2.45116 23.4951 2.92649 23.5845 3.43244 23.6258C3.91756 23.6655 4.51121 23.6655 5.22199 23.6654H20.778C21.4888 23.6655 22.0822 23.6655 22.5671 23.6258C23.0729 23.5845 23.5479 23.495 23.9972 23.2661C24.6867 22.9148 25.2489 22.3535 25.6006 21.6631C25.8298 21.2135 25.9192 20.7379 25.9606 20.2314C26.0003 19.7458 26.0003 19.1513 26.0003 18.4391L26.0003 8.22454C26.0003 7.51234 26.0003 6.91789 25.9606 6.43225C25.9192 5.92574 25.8298 5.45019 25.6006 5.00051C25.2487 4.30971 24.6865 3.7495 23.9974 3.39841C23.5478 3.16932 23.0724 3.07982 22.566 3.03843C22.0805 2.99874 21.4861 2.99876 20.7739 2.99877L13.4142 2.99877ZM2 4.99877V18.3988C2 19.162 2.00078 19.6742 2.03301 20.0685C2.06428 20.4511 2.12011 20.6341 2.18166 20.7549C2.34189 21.0694 2.59699 21.3247 2.90972 21.4841C3.03017 21.5454 3.21297 21.6012 3.59533 21.6325C3.98931 21.6647 4.50078 21.6654 5.26254 21.6654H20.7375C21.4992 21.6654 22.0104 21.6647 22.4041 21.6325C22.786 21.6012 22.9686 21.5455 23.0892 21.4841C23.4032 21.3241 23.659 21.0684 23.8186 20.7552C23.8802 20.6344 23.936 20.4514 23.9673 20.0685C23.9995 19.674 24.0003 19.1617 24.0003 18.3985L24.0003 8.26514C24.0003 7.5019 23.9995 6.98962 23.9673 6.59511C23.936 6.21228 23.8802 6.02924 23.8186 5.90849C23.6593 5.59576 23.4039 5.34066 23.0895 5.18043C22.9687 5.11887 22.7857 5.06305 22.4031 5.03178C22.0087 4.99955 21.4966 4.99877 20.7333 4.99877H2ZM8 12.6654C8 10.2722 9.9401 8.3321 12.3333 8.3321C14.7266 8.3321 16.6667 10.2722 16.6667 12.6654C16.6667 13.5001 16.4307 14.2796 16.0218 14.941L17.7063 16.6255C18.0968 17.016 18.0968 17.6492 17.7063 18.0397C17.3158 18.4302 16.6826 18.4302 16.2921 18.0397L14.6073 16.3549C13.9463 16.7632 13.1673 16.9988 12.3333 16.9988C9.9401 16.9988 8 15.0587 8 12.6654ZM12.3333 10.3321C11.0447 10.3321 10 11.3768 10 12.6654C10 13.9541 11.0447 14.9988 12.3333 14.9988C13.622 14.9988 14.6667 13.9541 14.6667 12.6654C14.6667 11.3768 13.622 10.3321 12.3333 10.3321Z" fill="#7F7A84"/>
</svg>
