<svg width="24" height="24" viewBox="0 0 24 24" fill="none" xmlns="http://www.w3.org/2000/svg">
<path fill-rule="evenodd" clip-rule="evenodd" d="M12.1698 2.25H17.8306C18.3648 2.24999 18.8106 2.24998 19.1747 2.27974C19.5546 2.31078 19.9111 2.3779 20.2484 2.54973C20.7654 2.81317 21.1866 3.23344 21.4505 3.75131C21.6223 4.08857 21.6894 4.44522 21.7205 4.82511C21.7502 5.18934 21.7502 5.63518 21.7502 6.16933V11.8303C21.7502 12.3644 21.7502 12.8102 21.7205 13.1745C21.6894 13.5544 21.6223 13.911 21.4505 14.2483C21.1867 14.7659 20.7654 15.1869 20.2481 15.4505C19.9111 15.6222 19.5548 15.6893 19.1754 15.7203C18.8117 15.75 18.3666 15.75 17.8335 15.75H15.75V17.8335C15.75 18.3666 15.75 18.8117 15.7203 19.1754C15.6893 19.5548 15.6222 19.9111 15.4505 20.2481C15.1869 20.7653 14.7661 21.1867 14.2484 21.4505C13.9114 21.6222 13.5552 21.6893 13.1758 21.7203C12.8121 21.75 12.367 21.75 11.834 21.75H6.16649C5.63341 21.75 5.18817 21.75 4.82433 21.7203C4.44487 21.6893 4.08837 21.6222 3.7513 21.4505C3.23344 21.1866 2.81317 20.7654 2.54973 20.2484C2.3779 19.9111 2.31078 19.5546 2.27974 19.1747C2.24998 18.8106 2.24999 18.3648 2.25 17.8306V12.1698C2.24999 11.6356 2.24998 11.1897 2.27974 10.8253C2.31077 10.4454 2.37787 10.0886 2.54973 9.75131C2.81338 9.23386 3.23386 8.81339 3.7513 8.54973C4.08861 8.37787 4.44541 8.31077 4.82534 8.27974C5.18967 8.24998 5.63561 8.24999 6.16979 8.25H8.25V6.16979C8.24999 5.63561 8.24998 5.18967 8.27974 4.82534C8.31077 4.44541 8.37787 4.08861 8.54973 3.7513C8.81339 3.23386 9.23386 2.81338 9.75131 2.54973C10.0886 2.37787 10.4454 2.31077 10.8253 2.27974C11.1897 2.24998 11.6356 2.24999 12.1698 2.25ZM9.75 8.25H11.8306C12.3648 8.24999 12.8106 8.24998 13.1747 8.27974C13.5546 8.31078 13.9111 8.37791 14.2484 8.54973C14.7654 8.81317 15.1866 9.23344 15.4505 9.75131C15.6222 10.0884 15.6893 10.4449 15.7203 10.8243C15.75 11.1882 15.75 11.6334 15.75 12.1665L15.75 14.25H17.8031C18.3744 14.25 18.7579 14.2494 19.0532 14.2253C19.3397 14.2018 19.4767 14.16 19.5671 14.114C19.8025 13.9941 19.9942 13.8023 20.114 13.5673C20.1601 13.4767 20.202 13.3395 20.2255 13.0523C20.2496 12.7564 20.2502 12.3722 20.2502 11.7998V6.19978C20.2502 5.62735 20.2496 5.24314 20.2255 4.94726C20.202 4.66013 20.1601 4.52285 20.114 4.43229C19.9943 4.19751 19.803 4.0063 19.5674 3.88624C19.4768 3.84008 19.3396 3.79821 19.0526 3.77476C18.7568 3.75058 18.3726 3.75 17.8002 3.75H12.2002C11.6278 3.75 11.2434 3.75058 10.9474 3.77476C10.6602 3.79822 10.5228 3.84012 10.4323 3.88624C10.1971 4.00608 10.0061 4.19709 9.88624 4.43229C9.84012 4.52281 9.79823 4.66016 9.77476 4.94745C9.75058 5.24344 9.75 5.62778 9.75 6.2002V8.25ZM4.94745 9.77476C4.66016 9.79822 4.52281 9.84012 4.43229 9.88624C4.19709 10.0061 4.00608 10.1971 3.88624 10.4323C3.84012 10.5228 3.79822 10.6602 3.77476 10.9474C3.75058 11.2434 3.75 11.6278 3.75 12.2002V17.8002C3.75 18.3726 3.75058 18.7568 3.77476 19.0526C3.79821 19.3396 3.84008 19.4768 3.88624 19.5674C4.0063 19.803 4.19751 19.9943 4.43229 20.114C4.52263 20.16 4.65973 20.2018 4.9465 20.2253C5.24198 20.2494 5.62558 20.25 6.19691 20.25H11.8036C12.3749 20.25 12.7583 20.2494 13.0535 20.2253C13.34 20.2019 13.477 20.16 13.5674 20.114C13.8024 19.9942 13.994 19.8025 14.114 19.5671C14.16 19.4767 14.2018 19.3397 14.2253 19.0532C14.2494 18.7579 14.25 18.3744 14.25 17.8031L14.25 12.1969C14.25 11.6256 14.2494 11.242 14.2253 10.9465C14.2018 10.6597 14.16 10.5226 14.114 10.4323C13.9943 10.1975 13.803 10.0063 13.5674 9.88624C13.4768 9.84008 13.3396 9.79821 13.0526 9.77476C12.7568 9.75058 12.3726 9.75 11.8002 9.75H6.2002C5.62777 9.75 5.24344 9.75058 4.94745 9.77476Z" fill="black"/>
</svg>
