<svg width="24" height="12" viewBox="0 0 24 12" fill="none" xmlns="http://www.w3.org/2000/svg">
<path fill-rule="evenodd" clip-rule="evenodd" d="M0.25 3C0.25 1.48122 1.48122 0.25 3 0.25H21C22.5188 0.25 23.75 1.48122 23.75 3V9C23.75 10.5188 22.5188 11.75 21 11.75H3C1.48122 11.75 0.25 10.5188 0.25 9V3ZM3 1.75C2.30964 1.75 1.75 2.30964 1.75 3V9C1.75 9.69036 2.30964 10.25 3 10.25H21C21.6904 10.25 22.25 9.69036 22.25 9V3C22.25 2.30964 21.6904 1.75 21 1.75H3ZM8.78701 3.30709C9.06727 3.42318 9.25 3.69665 9.25 4V8C9.25 8.41421 8.91421 8.75 8.5 8.75C8.08579 8.75 7.75 8.41421 7.75 8V5.70729C7.48617 5.80034 7.18069 5.74135 6.96967 5.53033C6.67678 5.23744 6.67678 4.76256 6.96967 4.46967L7.96967 3.46967C8.18417 3.25517 8.50676 3.191 8.78701 3.30709ZM11.787 3.30709C12.0673 3.42318 12.25 3.69665 12.25 4V8C12.25 8.41421 11.9142 8.75 11.5 8.75C11.0858 8.75 10.75 8.41421 10.75 8V5.70729C10.4862 5.80034 10.1807 5.74135 9.96967 5.53033C9.67678 5.23744 9.67678 4.76256 9.96967 4.46967L10.9697 3.46967C11.1842 3.25517 11.5068 3.191 11.787 3.30709ZM14.787 3.30709C15.0673 3.42318 15.25 3.69665 15.25 4V8C15.25 8.41421 14.9142 8.75 14.5 8.75C14.0858 8.75 13.75 8.41421 13.75 8V5.70729C13.4862 5.80034 13.1807 5.74135 12.9697 5.53033C12.6768 5.23744 12.6768 4.76256 12.9697 4.46967L13.9697 3.46967C14.1842 3.25517 14.5068 3.191 14.787 3.30709ZM5.71734 4.28218C6.03366 4.37795 6.25 4.6695 6.25 5V8C6.25 8.41421 5.91421 8.75 5.5 8.75C5.08579 8.75 4.75 8.41421 4.75 8H4.40139L4.12404 8.41603C3.89427 8.76067 3.42862 8.8538 3.08397 8.62404C2.73933 8.39427 2.6462 7.92862 2.87596 7.58397L4.87596 4.58397C5.05929 4.30898 5.40102 4.18641 5.71734 4.28218ZM15.75 5C15.75 4.58579 16.0858 4.25 16.5 4.25H17.5C17.9142 4.25 18.25 4.58579 18.25 5C18.25 5.41421 17.9142 5.75 17.5 5.75C17.9142 5.75 18.25 6.08579 18.25 6.5C18.25 6.91421 17.9142 7.25 17.5 7.25C17.9142 7.25 18.25 7.58579 18.25 8C18.25 8.41421 17.9142 8.75 17.5 8.75H16.5C16.0858 8.75 15.75 8.41421 15.75 8V5ZM18.75 5C18.75 4.58579 19.0858 4.25 19.5 4.25H20.5C20.9142 4.25 21.25 4.58579 21.25 5C21.25 5.41421 20.9142 5.75 20.5 5.75C20.9142 5.75 21.25 6.08579 21.25 6.5C21.25 6.91421 20.9142 7.25 20.5 7.25C20.9142 7.25 21.25 7.58579 21.25 8C21.25 8.41421 20.9142 8.75 20.5 8.75H19.5C19.0858 8.75 18.75 8.41421 18.75 8V5Z" fill="#7F7A84"/>
</svg>
