<svg width="24" height="24" viewBox="0 0 24 24" fill="none" xmlns="http://www.w3.org/2000/svg">
<path fill-rule="evenodd" clip-rule="evenodd" d="M21.2323 3.89419C22.1742 3.67748 23.1134 4.26535 23.3301 5.20724C23.5468 6.14913 22.959 7.08836 22.0171 7.30507L8.125 10.5013V18.4009C8.125 19.3674 7.3415 20.1509 6.375 20.1509H2.375C1.4085 20.1509 0.625 19.3674 0.625 18.4009V6.40087C0.625 5.43437 1.4085 4.65087 2.375 4.65087H6.375C7.3415 4.65087 8.125 5.43437 8.125 6.40087V6.9099L21.2323 3.89419ZM6.625 7.25502V6.40087C6.625 6.2628 6.51307 6.15087 6.375 6.15087H2.375C2.23693 6.15087 2.125 6.2628 2.125 6.40087V18.4009C2.125 18.5389 2.23693 18.6509 2.375 18.6509H6.375C6.51307 18.6509 6.625 18.5389 6.625 18.4009V10.8465L5.44992 11.1168C4.50803 11.3335 3.5688 10.7457 3.35209 9.80377C3.13538 8.86189 3.72325 7.92266 4.66514 7.70595L6.625 7.25502ZM6.625 8.79421L5.00148 9.16775C4.86692 9.19871 4.78294 9.33289 4.8139 9.46744C4.84485 9.602 4.97903 9.68598 5.11359 9.65502L6.625 9.30728V8.79421ZM11.3983 7.69597V8.20903L14.625 7.46664V6.95358L11.3983 7.69597ZM19.3892 5.85744V6.37051L21.6807 5.84326C21.8153 5.81231 21.8993 5.67813 21.8683 5.54357C21.8374 5.40902 21.7032 5.32504 21.5686 5.356L19.3892 5.85744Z" fill="#7F7A84"/>
</svg>
