<svg width="18" height="18" viewBox="0 0 18 18" fill="none" xmlns="http://www.w3.org/2000/svg">
<path fill-rule="evenodd" clip-rule="evenodd" d="M4.62733 3.18771H13.373C13.7736 3.18771 14.1078 3.1877 14.3809 3.21002C14.6657 3.23331 14.933 3.28366 15.1859 3.41251C15.5734 3.60994 15.8898 3.925 16.0879 4.31369C16.2167 4.56649 16.267 4.83386 16.2902 5.11846C16.3125 5.39134 16.3125 5.72527 16.3125 6.12508V11.8757C16.3125 12.2755 16.3125 12.6093 16.2902 12.8821C16.2669 13.1666 16.2166 13.4338 16.0879 13.6865C15.89 14.0749 15.5737 14.3905 15.1859 14.5881C14.9332 14.7169 14.666 14.7672 14.3815 14.7904C14.1087 14.8127 13.7749 14.8127 13.3752 14.8127H4.62487C4.22506 14.8127 3.89113 14.8127 3.61825 14.7904C3.33365 14.7672 3.06628 14.7169 2.81348 14.5881C2.42508 14.3902 2.10988 14.0743 1.9123 13.6865C1.78343 13.4336 1.73309 13.1662 1.70981 12.8813C1.68749 12.6081 1.68749 12.2738 1.6875 11.8732V6.12755C1.68749 5.72692 1.68749 5.39246 1.7098 5.11922C1.73308 4.83427 1.7834 4.56667 1.9123 4.31369C2.11004 3.92561 2.42539 3.61025 2.81348 3.41251C3.06646 3.28361 3.33406 3.23329 3.619 3.21002C3.89225 3.1877 4.22671 3.18771 4.62733 3.18771ZM3.71058 4.33128C3.49512 4.34888 3.39211 4.38031 3.32422 4.4149C3.14782 4.50478 3.00456 4.64803 2.91468 4.82443C2.88009 4.89232 2.84867 4.99533 2.83107 5.2108C2.81294 5.4328 2.8125 5.72105 2.8125 6.15036V6.18771H15.1875V6.1479C15.1875 5.7194 15.1871 5.4317 15.169 5.21009C15.1514 4.99501 15.12 4.89218 15.0855 4.82443C14.9959 4.64864 14.8522 4.50509 14.6752 4.4149C14.6072 4.38026 14.5043 4.34887 14.2892 4.33128C14.0675 4.31315 13.7795 4.31271 13.3501 4.31271H4.65015C4.22083 4.31271 3.93258 4.31315 3.71058 4.33128ZM15.1875 7.31271H2.8125V7.68771H15.1875V7.31271ZM15.1875 8.81271H2.8125V11.8504C2.8125 12.2797 2.81294 12.5678 2.83107 12.7896C2.84866 13.0049 2.88006 13.1078 2.91468 13.1758C3.00473 13.3525 3.14813 13.496 3.32422 13.5857C3.39197 13.6202 3.4948 13.6516 3.70987 13.6692C3.93149 13.6873 4.21919 13.6877 4.64768 13.6877H13.3523C13.7808 13.6877 14.0684 13.6873 14.2898 13.6692C14.5046 13.6516 14.6074 13.6202 14.6752 13.5857C14.8519 13.4957 14.9957 13.3519 15.0855 13.1758C15.12 13.1079 15.1514 13.0052 15.169 12.7904C15.1871 12.5689 15.1875 12.2814 15.1875 11.8529V8.81271ZM4.6875 11.2502C4.6875 10.9396 4.93934 10.6877 5.25 10.6877H8.25C8.56066 10.6877 8.8125 10.9396 8.8125 11.2502C8.8125 11.5609 8.56066 11.8127 8.25 11.8127H5.25C4.93934 11.8127 4.6875 11.5609 4.6875 11.2502Z" fill="#7F7A84"/>
</svg>
