<svg width="40" height="40" viewBox="0 0 40 40" fill="none" xmlns="http://www.w3.org/2000/svg">
<path fill-rule="evenodd" clip-rule="evenodd" d="M13.6163 3.75L21.1287 3.75C21.3298 3.75 21.5132 3.75 21.6781 3.7515C22.1617 3.7559 22.5865 3.77179 23.0232 3.87664C23.4919 3.98915 23.9386 4.17496 24.3478 4.42574C24.8131 4.71084 25.2017 5.09989 25.6944 5.59319C25.7225 5.62133 25.7509 5.6498 25.7798 5.67862L30.9889 10.8878C31.0156 10.9144 31.042 10.9408 31.0681 10.9669C31.5656 11.4639 31.9539 11.8518 32.2401 12.3189C32.4908 12.728 32.6769 13.1749 32.7894 13.6437C32.8889 14.0582 32.9086 14.4619 32.9143 14.9169C32.9161 14.9444 32.917 14.9721 32.917 15C32.917 15.0198 32.9166 15.0394 32.9157 15.0589C32.9167 15.2066 32.9167 15.3681 32.9167 15.5428V29.7234C32.9167 30.6118 32.9167 31.3536 32.8672 31.9597C32.8155 32.5919 32.7037 33.1857 32.4175 33.7473C31.9778 34.6103 31.2749 35.3117 30.4132 35.7508C29.8516 36.037 29.2578 36.1488 28.6256 36.2005C28.0194 36.25 27.2777 36.25 26.3892 36.25L13.6109 36.25C12.7224 36.25 11.9804 36.25 11.3739 36.2005C10.7415 36.1488 10.1473 36.037 9.58555 35.7508C8.72244 35.311 8.02199 34.609 7.58293 33.7473C7.29655 33.1852 7.18468 32.591 7.13294 31.9579C7.08334 31.3509 7.08336 30.608 7.08337 29.7177V10.283C7.08336 9.39268 7.08334 8.64944 7.13294 8.04223C7.18466 7.40901 7.29648 6.81435 7.58293 6.25217C8.02235 5.38976 8.72314 4.68897 9.58555 4.24956C10.1477 3.96311 10.7424 3.85128 11.3756 3.79956C11.9828 3.74997 12.7261 3.74998 13.6163 3.75ZM30.1793 13.75C30.1572 13.7077 30.1336 13.666 30.1085 13.6251C29.9974 13.4438 29.8385 13.2729 29.2211 12.6555L24.012 7.44638C23.3937 6.82812 23.2224 6.66812 23.0416 6.55734C23.0007 6.53228 22.959 6.50867 22.9167 6.48656V9.66667C22.9167 10.6207 22.9177 11.2609 22.958 11.7538C22.9971 12.2321 23.0668 12.4608 23.1438 12.6118C23.3441 13.0049 23.6629 13.3241 24.0539 13.5233C24.2044 13.6 24.4329 13.6697 24.9109 13.7088C25.4033 13.749 26.0427 13.75 26.9949 13.75H30.1793ZM20.4167 6.25V9.71742C20.4167 10.6076 20.4167 11.3506 20.4663 11.9575C20.518 12.5906 20.6299 13.1848 20.9163 13.7468C21.3551 14.6081 22.0554 15.3108 22.9189 15.7508C23.4807 16.037 24.0748 16.1488 24.7073 16.2005C25.3137 16.25 26.0557 16.25 26.9442 16.25H30.4167V29.6726C30.4167 30.6249 30.4157 31.2638 30.3755 31.7559C30.3365 32.2333 30.2668 32.4616 30.19 32.6123C29.9906 33.0037 29.6709 33.3232 29.2782 33.5233C29.1275 33.6001 28.8992 33.6697 28.4218 33.7088C27.9297 33.749 27.2908 33.75 26.3385 33.75L13.6616 33.75C12.7094 33.75 12.07 33.749 11.5776 33.7088C11.0996 33.6697 10.8711 33.6 10.7205 33.5233C10.3292 33.3239 10.0105 33.005 9.81045 32.6123C9.73351 32.4613 9.66373 32.2326 9.62464 31.7543C9.58435 31.2613 9.58338 30.621 9.58338 29.667V10.3337C9.58338 9.37962 9.58435 8.73907 9.62464 8.24574C9.66375 7.76693 9.73358 7.53801 9.81044 7.38715C10.0102 6.99515 10.3285 6.67681 10.7205 6.47707C10.8714 6.4002 11.1003 6.33037 11.5791 6.29127C12.0724 6.25097 12.713 6.25 13.667 6.25H20.4167ZM15.7828 20.7828C16.271 20.2946 17.0624 20.2946 17.5506 20.7828L20 23.2322L22.4494 20.7828C22.9376 20.2946 23.729 20.2946 24.2172 20.7828C24.7054 21.2709 24.7054 22.0624 24.2172 22.5505L21.7678 25L24.2172 27.4494C24.7054 27.9375 24.7054 28.729 24.2172 29.2172C23.729 29.7053 22.9376 29.7053 22.4494 29.2172L20 26.7677L17.5506 29.2172C17.0624 29.7053 16.271 29.7053 15.7828 29.2172C15.2947 28.729 15.2947 27.9375 15.7828 27.4494L18.2322 25L15.7828 22.5505C15.2947 22.0624 15.2947 21.2709 15.7828 20.7828Z" fill="black"/>
</svg>
