<svg width="24" height="24" viewBox="0 0 24 24" fill="none" xmlns="http://www.w3.org/2000/svg">
<path fill-rule="evenodd" clip-rule="evenodd" d="M10.5 4.25C9.5335 4.25 8.75 5.0335 8.75 6C8.75 6.9665 9.5335 7.75 10.5 7.75C11.4665 7.75 12.25 6.9665 12.25 6C12.25 5.0335 11.4665 4.25 10.5 4.25ZM7.33697 5.25C7.67555 3.81665 8.96321 2.75 10.5 2.75C12.0368 2.75 13.3245 3.81665 13.663 5.25H21C21.4142 5.25 21.75 5.58579 21.75 6C21.75 6.41421 21.4142 6.75 21 6.75H13.663C13.3245 8.18335 12.0368 9.25 10.5 9.25C8.96321 9.25 7.67555 8.18335 7.33697 6.75H3C2.58579 6.75 2.25 6.41421 2.25 6C2.25 5.58579 2.58579 5.25 3 5.25H7.33697ZM16.5 10.25C15.5335 10.25 14.75 11.0335 14.75 12C14.75 12.9665 15.5335 13.75 16.5 13.75C17.4665 13.75 18.25 12.9665 18.25 12C18.25 11.0335 17.4665 10.25 16.5 10.25ZM13.337 11.25C13.6755 9.81665 14.9632 8.75 16.5 8.75C18.0368 8.75 19.3245 9.81665 19.663 11.25H21C21.4142 11.25 21.75 11.5858 21.75 12C21.75 12.4142 21.4142 12.75 21 12.75H19.663C19.3245 14.1833 18.0368 15.25 16.5 15.25C14.9632 15.25 13.6755 14.1833 13.337 12.75H3C2.58579 12.75 2.25 12.4142 2.25 12C2.25 11.5858 2.58579 11.25 3 11.25H13.337ZM7.5 16.25C6.5335 16.25 5.75 17.0335 5.75 18C5.75 18.9665 6.5335 19.75 7.5 19.75C8.4665 19.75 9.25 18.9665 9.25 18C9.25 17.0335 8.4665 16.25 7.5 16.25ZM4.33697 17.25C4.67555 15.8167 5.96321 14.75 7.5 14.75C9.03679 14.75 10.3245 15.8167 10.663 17.25H21C21.4142 17.25 21.75 17.5858 21.75 18C21.75 18.4142 21.4142 18.75 21 18.75H10.663C10.3245 20.1833 9.03679 21.25 7.5 21.25C5.96321 21.25 4.67555 20.1833 4.33697 18.75H3C2.58579 18.75 2.25 18.4142 2.25 18C2.25 17.5858 2.58579 17.25 3 17.25H4.33697Z" fill="black"/>
</svg>
