<svg width="16" height="13" viewBox="0 0 16 13" fill="none" xmlns="http://www.w3.org/2000/svg">
<path fill-rule="evenodd" clip-rule="evenodd" d="M11.3433 1.36808C11.2115 1.32058 11.0478 1.3126 10.4402 1.3126H5.55957C4.95198 1.3126 4.78857 1.32058 4.65671 1.36808C4.5206 1.41711 4.39789 1.49687 4.29774 1.6014C4.20075 1.70263 4.12694 1.84881 3.88026 2.40384L2.86526 4.6876H13.1343L12.1188 2.4028C11.8724 1.84832 11.7988 1.70248 11.702 1.6014C11.6017 1.49668 11.4792 1.41702 11.3433 1.36808ZM14.3652 4.6876C14.3516 4.6564 14.3372 4.62412 14.3222 4.59029C14.3186 4.58219 14.3149 4.57401 14.3112 4.56574L13.1469 1.9459C13.1351 1.91955 13.1236 1.89353 13.1122 1.86783C12.9178 1.42932 12.765 1.08473 12.5143 0.82311C12.2943 0.593448 12.0244 0.417674 11.7246 0.309666C11.3836 0.18681 11.0061 0.187134 10.5257 0.187547C10.4976 0.187571 10.4691 0.187596 10.4402 0.187596H5.55957C5.5307 0.187596 5.50219 0.187571 5.47404 0.187547C4.99371 0.187135 4.61645 0.186811 4.27542 0.309666C3.97585 0.417584 3.70562 0.593257 3.48541 0.823109C3.23445 1.08504 3.08145 1.43008 2.88643 1.86984C2.87518 1.89522 2.86378 1.92092 2.85222 1.94694L1.69252 4.55625C1.68926 4.56359 1.68604 4.57085 1.68284 4.57803C1.66574 4.61649 1.6496 4.65279 1.63441 4.6876H1.25C0.93934 4.6876 0.6875 4.93944 0.6875 5.2501C0.6875 5.56076 0.93934 5.8126 1.25 5.8126H1.4375L1.4375 10.531C1.43745 10.8825 1.43739 11.296 1.49203 11.6238C1.51969 11.7898 1.57034 11.9969 1.68504 12.1754C1.8173 12.3811 2.04938 12.5626 2.375 12.5626H3.875C4.20062 12.5626 4.4327 12.3811 4.56496 12.1754C4.67966 11.9969 4.73031 11.7898 4.75797 11.6238C4.81261 11.296 4.81255 10.8825 4.8125 10.531L4.8125 10.3126L11.1875 10.3127L11.1875 10.531C11.1874 10.8825 11.1874 11.296 11.242 11.6238C11.2697 11.7898 11.3203 11.9969 11.435 12.1754C11.5673 12.3811 11.7994 12.5626 12.125 12.5626H13.625C13.9506 12.5626 14.1827 12.3811 14.315 12.1754C14.4297 11.9969 14.4803 11.7898 14.508 11.6238C14.5626 11.296 14.5625 10.8824 14.5625 10.5309L14.5625 5.8126H14.75C15.0607 5.8126 15.3125 5.56076 15.3125 5.2501C15.3125 4.93944 15.0607 4.6876 14.75 4.6876H14.3652ZM13.4375 5.8126V9.18765L10.6892 9.18765L10.4207 8.11367C10.3581 7.86327 10.1331 7.6876 9.875 7.6876H6.125C5.86689 7.6876 5.6419 7.86326 5.57929 8.11367L5.31081 9.1876L2.5625 9.18763V5.8126H13.4375ZM2.5625 10.3126V10.5001C2.5625 10.8915 2.56421 11.2126 2.60151 11.4376H3.64849C3.68579 11.2126 3.6875 10.8915 3.6875 10.5001V10.3127L2.5625 10.3126ZM9.52956 9.1876L9.43581 8.8126H6.56419L6.47044 9.1876H9.52956ZM13.4375 10.3126L12.3125 10.3126V10.5001C12.3125 10.8915 12.3142 11.2126 12.3515 11.4376H13.3985C13.4358 11.2126 13.4375 10.8914 13.4375 10.5V10.3126ZM2.9375 7.1251C2.9375 6.60733 3.35723 6.1876 3.875 6.1876C4.39277 6.1876 4.8125 6.60733 4.8125 7.1251C4.8125 7.64286 4.39277 8.0626 3.875 8.0626C3.35723 8.0626 2.9375 7.64286 2.9375 7.1251ZM11.1875 7.1251C11.1875 6.60733 11.6072 6.1876 12.125 6.1876C12.6428 6.1876 13.0625 6.60733 13.0625 7.1251C13.0625 7.64286 12.6428 8.0626 12.125 8.0626C11.6072 8.0626 11.1875 7.64286 11.1875 7.1251Z" fill="#7F7A84"/>
</svg>
