<svg width="24" height="24" viewBox="0 0 24 24" fill="none" xmlns="http://www.w3.org/2000/svg">
<path fill-rule="evenodd" clip-rule="evenodd" d="M12.5104 4.85807C12.1867 4.71398 11.8168 4.71398 11.4932 4.85807C11.3852 4.90613 11.2196 5.03226 10.9405 5.42733C10.6637 5.81918 10.3426 6.37371 9.88091 7.17345L5.03036 15.5749C4.56828 16.3752 4.24837 16.9309 4.04738 17.3669C3.84474 17.8064 3.81826 18.0131 3.83064 18.1308C3.86765 18.483 4.05253 18.8031 4.33926 19.0115C4.4349 19.081 4.62688 19.1613 5.10845 19.2055C5.58615 19.2493 6.22686 19.2501 7.15047 19.2501H16.8534C17.777 19.2501 18.4177 19.2493 18.8953 19.2055C19.3769 19.1613 19.5688 19.081 19.6645 19.0115C19.9513 18.8031 20.1362 18.4829 20.1732 18.1308C20.1856 18.0131 20.1591 17.8063 19.9565 17.3669C19.7556 16.9309 19.4357 16.3752 18.9736 15.5749L14.1239 7.17486C13.6618 6.37451 13.3405 5.81965 13.0635 5.42765C12.7842 5.03246 12.6185 4.90622 12.5104 4.85807ZM10.8831 3.48775C11.5951 3.17075 12.4085 3.17075 13.1205 3.48775C13.606 3.70391 13.9645 4.10355 14.2885 4.56197C14.6104 5.01754 14.9662 5.63368 15.4054 6.39455L20.2894 14.8538C20.7291 15.6153 21.0851 16.2319 21.3188 16.7389C21.5538 17.2487 21.7206 17.7591 21.665 18.2876C21.5835 19.063 21.1765 19.767 20.5461 20.225C20.1163 20.5373 19.5911 20.6479 19.0324 20.6992C18.4779 20.7501 17.7679 20.7501 16.8914 20.7501H7.11243C6.23592 20.7501 5.5259 20.7501 4.97138 20.6992C4.41272 20.6479 3.88748 20.5373 3.45758 20.225C2.82717 19.767 2.42034 19.0629 2.33885 18.2876C2.2833 17.759 2.45015 17.2486 2.68518 16.7389C2.91878 16.2322 3.27456 15.616 3.71389 14.855L8.60089 6.39052C9.03907 5.63154 9.39409 5.01662 9.71544 4.56178C10.0392 4.10359 10.3976 3.70389 10.8831 3.48775ZM12.0019 8.25006C12.4161 8.25006 12.7519 8.58584 12.7519 9.00006V13.0001C12.7519 13.4143 12.4161 13.7501 12.0019 13.7501C11.5877 13.7501 11.2519 13.4143 11.2519 13.0001V9.00006C11.2519 8.58584 11.5877 8.25006 12.0019 8.25006ZM11.2021 16.0001C11.2021 15.5858 11.5379 15.2501 11.9521 15.2501H12.0527C12.4669 15.2501 12.8027 15.5858 12.8027 16.0001V16.1001C12.8027 16.5137 12.4678 16.8492 12.0542 16.8501L11.9536 16.8503C11.7544 16.8506 11.5633 16.7718 11.4223 16.6311C11.2813 16.4904 11.2021 16.2994 11.2021 16.1003V16.0001Z" fill="white"/>
</svg>
