<svg width="39" height="24" viewBox="0 0 39 24" fill="none" xmlns="http://www.w3.org/2000/svg">
<g clip-path="url(#clip0_1461_198055)">
<path d="M24.7719 2.56641H14.2268V21.4331H24.7719V2.56641Z" fill="#FF5F00"/>
<path d="M14.8969 12C14.8969 8.16667 16.7046 4.76667 19.4831 2.56667C17.4411 0.966671 14.8634 0 12.0514 0C5.38958 0 -0.00012207 5.36667 -0.00012207 12C-0.00012207 18.6333 5.38958 24 12.0514 24C14.8634 24 17.4411 23.0333 19.4831 21.4333C16.7046 19.2667 14.8969 15.8333 14.8969 12Z" fill="#EB001B"/>
<path d="M38.9993 12C38.9993 18.6333 33.6096 24 26.9478 24C24.1357 24 21.5581 23.0333 19.516 21.4333C22.328 19.2333 24.1023 15.8333 24.1023 12C24.1023 8.16667 22.2945 4.76667 19.516 2.56667C21.5581 0.966671 24.1357 0 26.9478 0C33.6096 0 38.9993 5.4 38.9993 12Z" fill="#F79E1B"/>
</g>
<defs>
<clipPath id="clip0_1461_198055">
<rect width="39" height="24" fill="white"/>
</clipPath>
</defs>
</svg>
