<svg width="74" height="24" viewBox="0 0 74 24" fill="none" xmlns="http://www.w3.org/2000/svg">
<path fill-rule="evenodd" clip-rule="evenodd" d="M8.42625 2.60386C9.06738 2.6001 10.9728 2.43175 11.7799 5.10392C12.3236 6.90392 13.1896 9.8524 14.378 13.9494H14.862C16.1365 9.63006 17.012 6.68157 17.4885 5.10392C18.304 2.40392 20.3428 2.60392 21.1583 2.60392L27.4501 2.60392V21.8039H21.0373V10.489H20.6073L17.0324 21.8039H12.2076L8.63277 10.4806H8.20275V21.8039H1.78992V2.60392L8.42625 2.60386ZM36.6588 2.60392V13.9272H37.1704L41.5189 4.61615C42.363 2.76322 44.1621 2.60392 44.1621 2.60392H50.3678V21.8039H43.821V10.4806H43.3094L39.0462 19.7917C38.2021 21.6362 36.3178 21.8039 36.3178 21.8039H30.1121V2.60392H36.6588ZM72.9963 11.7279C72.0831 14.2665 69.2153 16.0845 66.0402 16.0845H59.1746V21.8039H52.949V11.7279H72.9963Z" fill="#0F754E"/>
<path fill-rule="evenodd" clip-rule="evenodd" d="M66.3407 2.60449H52.6228C52.9493 6.87906 56.7018 10.5384 60.5864 10.5384H73.4291C74.1702 6.9857 71.6189 2.60449 66.3407 2.60449Z" fill="url(#paint0_linear_1461_198049)"/>
<defs>
<linearGradient id="paint0_linear_1461_198049" x1="73.555" y1="7.59524" x2="52.6228" y2="7.59524" gradientUnits="userSpaceOnUse">
<stop stop-color="#1F5CD7"/>
<stop offset="1" stop-color="#02AEFF"/>
</linearGradient>
</defs>
</svg>
