<svg width="24" height="24" viewBox="0 0 24 24" fill="none" xmlns="http://www.w3.org/2000/svg">
<path fill-rule="evenodd" clip-rule="evenodd" d="M8 5.75C6.75736 5.75 5.75 6.75736 5.75 8C5.75 8.6663 6.03867 9.26419 6.50019 9.67726C6.80883 9.9535 6.8351 10.4276 6.55885 10.7363C6.28261 11.0449 5.80846 11.0712 5.49981 10.795C4.73383 10.1094 4.25 9.1107 4.25 8C4.25 5.92893 5.92893 4.25 8 4.25C8.95996 4.25 9.83724 4.61169 10.5002 5.20504C10.8088 5.48129 10.8351 5.95543 10.5589 6.26408C10.2826 6.57272 9.80846 6.59899 9.49981 6.32274C9.10125 5.96602 8.57675 5.75 8 5.75ZM13.4998 5.20504C14.1628 4.61169 15.04 4.25 16 4.25C18.0711 4.25 19.75 5.92893 19.75 8C19.75 9.1107 19.2662 10.1094 18.5002 10.795C18.1915 11.0712 17.7174 11.0449 17.4411 10.7363C17.1649 10.4276 17.1912 9.9535 17.4998 9.67726C17.9613 9.26419 18.25 8.6663 18.25 8C18.25 6.75736 17.2426 5.75 16 5.75C15.4233 5.75 14.8988 5.96602 14.5002 6.32274C14.1915 6.59899 13.7174 6.57272 13.4411 6.26408C13.1649 5.95543 13.1912 5.48129 13.4998 5.20504ZM12 8.75C10.7574 8.75 9.75 9.75736 9.75 11C9.75 12.2426 10.7574 13.25 12 13.25C13.2426 13.25 14.25 12.2426 14.25 11C14.25 9.75736 13.2426 8.75 12 8.75ZM8.25 11C8.25 8.92893 9.92893 7.25 12 7.25C14.0711 7.25 15.75 8.92893 15.75 11C15.75 13.0711 14.0711 14.75 12 14.75C9.92893 14.75 8.25 13.0711 8.25 11ZM6.72549 14.0598C6.83052 14.4605 6.59086 14.8704 6.19019 14.9755C5.39384 15.1842 4.75971 15.5171 4.33929 15.8951C3.9209 16.2714 3.75 16.6542 3.75 17.0004C3.75 17.4146 3.41421 17.7504 3 17.7504C2.58579 17.7504 2.25 17.4146 2.25 17.0004C2.25 16.1163 2.69614 15.3555 3.33628 14.7798C3.97439 14.206 4.84025 13.7787 5.80981 13.5245C6.21049 13.4195 6.62045 13.6591 6.72549 14.0598ZM17.2745 14.0598C17.3796 13.6591 17.7895 13.4195 18.1902 13.5245C19.1597 13.7787 20.0256 14.206 20.6637 14.7798C21.3039 15.3555 21.75 16.1163 21.75 17.0004C21.75 17.4146 21.4142 17.7504 21 17.7504C20.5858 17.7504 20.25 17.4146 20.25 17.0004C20.25 16.6542 20.0791 16.2714 19.6607 15.8951C19.2403 15.5171 18.6062 15.1842 17.8098 14.9755C17.4091 14.8704 17.1695 14.4605 17.2745 14.0598ZM8.07859 17.2356C9.11851 16.6116 10.5067 16.25 12 16.25C13.4933 16.25 14.8815 16.6116 15.9214 17.2356C16.9464 17.8506 17.75 18.8046 17.75 20C17.75 20.4142 17.4142 20.75 17 20.75C16.5858 20.75 16.25 20.4142 16.25 20C16.25 19.5385 15.9343 18.9926 15.1497 18.5218C14.3799 18.06 13.2682 17.75 12 17.75C10.7318 17.75 9.62007 18.06 8.85034 18.5218C8.06568 18.9926 7.75 19.5385 7.75 20C7.75 20.4142 7.41421 20.75 7 20.75C6.58579 20.75 6.25 20.4142 6.25 20C6.25 18.8046 7.05361 17.8506 8.07859 17.2356Z" fill="black"/>
</svg>
