<svg width="24" height="24" viewBox="0 0 24 24" fill="none" xmlns="http://www.w3.org/2000/svg">
<path fill-rule="evenodd" clip-rule="evenodd" d="M6.16978 4.25H17.8307C18.3648 4.24999 18.8105 4.24998 19.1745 4.27974C19.5543 4.31079 19.9107 4.37793 20.2479 4.54973C20.7645 4.81297 21.1864 5.23305 21.4505 5.75131C21.6222 6.08837 21.6893 6.44487 21.7203 6.82433C21.75 7.18817 21.75 7.63341 21.75 8.16649V15.8335C21.75 16.3666 21.75 16.8116 21.7203 17.1753C21.6893 17.5547 21.6222 17.9109 21.4505 18.2479C21.1868 18.7653 20.7653 19.1868 20.2479 19.4505C19.9109 19.6222 19.5547 19.6893 19.1753 19.7203C18.8116 19.75 18.3666 19.75 17.8336 19.75H6.16649C5.63341 19.75 5.18817 19.75 4.82433 19.7203C4.44487 19.6893 4.08837 19.6222 3.7513 19.4505C3.23305 19.1864 2.81297 18.7645 2.54973 18.2479C2.37793 17.9107 2.31079 17.5543 2.27974 17.1745C2.24998 16.8105 2.24999 16.3648 2.25 15.8307V8.16978C2.24999 7.63561 2.24998 7.18966 2.27974 6.82534C2.31077 6.44541 2.37787 6.08861 2.54973 5.7513C2.81338 5.23386 3.23386 4.81338 3.7513 4.54973C4.08861 4.37787 4.44541 4.31077 4.82534 4.27974C5.18966 4.24998 5.63561 4.24999 6.16978 4.25ZM4.94745 5.77476C4.66016 5.79822 4.52281 5.84012 4.43229 5.88624C4.19709 6.00608 4.00608 6.19709 3.88624 6.43229C3.84012 6.52281 3.79822 6.66016 3.77476 6.94745C3.75058 7.24344 3.75 7.62778 3.75 8.2002V15.8002C3.75 16.3726 3.75058 16.7566 3.77476 17.0523C3.7982 17.3391 3.84006 17.4763 3.88624 17.5669C4.0065 17.8029 4.1979 17.9945 4.43229 18.114C4.52263 18.16 4.65973 18.2018 4.9465 18.2253C5.24198 18.2494 5.62558 18.25 6.19691 18.25H17.8031C18.3744 18.25 18.7578 18.2494 19.0531 18.2253C19.3395 18.2019 19.4765 18.16 19.5669 18.114C19.8021 17.9941 19.9941 17.8021 20.114 17.5669C20.16 17.4765 20.2019 17.3395 20.2253 17.0531C20.2494 16.7578 20.25 16.3744 20.25 15.8031V8.19691C20.25 7.62558 20.2494 7.24198 20.2253 6.9465C20.2018 6.65973 20.16 6.52263 20.114 6.43229C19.9945 6.1979 19.8029 6.0065 19.5669 5.88624C19.4763 5.84006 19.3391 5.7982 19.0523 5.77476C18.7566 5.75058 18.3726 5.75 17.8002 5.75H6.2002C5.62777 5.75 5.24344 5.75058 4.94745 5.77476ZM6.42383 9.51986C6.68901 9.20165 7.16193 9.15866 7.48014 9.42383L10.4801 11.9238C10.6511 12.0663 10.75 12.2774 10.75 12.5C10.75 12.7226 10.6511 12.9337 10.4801 13.0762L7.48014 15.5762C7.16193 15.8413 6.68901 15.7983 6.42383 15.4801C6.15866 15.1619 6.20165 14.689 6.51986 14.4238L8.82846 12.5L6.51986 10.5762C6.20165 10.311 6.15866 9.83807 6.42383 9.51986ZM11.25 15C11.25 14.5858 11.5858 14.25 12 14.25H17C17.4142 14.25 17.75 14.5858 17.75 15C17.75 15.4142 17.4142 15.75 17 15.75H12C11.5858 15.75 11.25 15.4142 11.25 15Z" fill="black"/>
</svg>
