<svg width="24" height="24" viewBox="0 0 24 24" fill="none" xmlns="http://www.w3.org/2000/svg">
<path fill-rule="evenodd" clip-rule="evenodd" d="M10.1698 3.25H16.8307C17.3648 3.24999 17.8105 3.24998 18.1745 3.27974C18.5543 3.31079 18.9107 3.37793 19.2479 3.54973C19.7645 3.81297 20.1864 4.23305 20.4505 4.75131C20.6222 5.08837 20.6893 5.44487 20.7203 5.82433C20.75 6.18817 20.75 6.63341 20.75 7.16649V19.25H22C22.4142 19.25 22.75 19.5858 22.75 20C22.75 20.4142 22.4142 20.75 22 20.75H2C1.58579 20.75 1.25 20.4142 1.25 20C1.25 19.5858 1.58579 19.25 2 19.25H3.25V14.3682C3.25 14.3418 3.24998 14.3158 3.24997 14.2901C3.24969 13.8408 3.24947 13.4872 3.33662 13.1482C3.41343 12.8495 3.53985 12.5662 3.71059 12.3096C3.90456 12.0182 4.1685 11.7814 4.50294 11.4813C4.52184 11.4643 4.54095 11.4472 4.56029 11.4298L6.25 9.91176V7.16979C6.24999 6.63561 6.24998 6.18967 6.27974 5.82534C6.31077 5.44541 6.37787 5.08861 6.54973 4.7513C6.81338 4.23386 7.23386 3.81338 7.7513 3.54973C8.08861 3.37787 8.44541 3.31077 8.82534 3.27974C9.18966 3.24998 9.63561 3.24999 10.1698 3.25ZM7.75 8.5919C7.76998 8.57617 7.78975 8.56079 7.80932 8.54578C8.08738 8.33256 8.371 8.15683 8.70604 8.05584C9.22365 7.89982 9.77599 7.89982 10.2936 8.05584C10.6287 8.15686 10.9125 8.33261 11.191 8.54604C11.4573 8.75021 11.7598 9.02201 12.1207 9.34626L14.4399 11.4298C14.458 11.4461 14.476 11.4622 14.4937 11.4781C14.8307 11.7806 15.0944 12.0172 15.2891 12.3096C15.4599 12.5664 15.5862 12.8497 15.6629 13.1482C15.7504 13.4887 15.7503 13.8434 15.75 14.2969C15.75 14.3204 15.75 14.3441 15.75 14.3682V19.25H19.25V7.19691C19.25 6.62558 19.2494 6.24198 19.2253 5.9465C19.2018 5.65973 19.16 5.52263 19.114 5.43229C18.9945 5.1979 18.8029 5.0065 18.5669 4.88624C18.4763 4.84006 18.3391 4.7982 18.0523 4.77476C17.7566 4.75058 17.3726 4.75 16.8002 4.75H10.2002C9.62777 4.75 9.24344 4.75058 8.94745 4.77476C8.66016 4.79822 8.52281 4.84012 8.43229 4.88624C8.19709 5.00608 8.00608 5.19709 7.88624 5.43229C7.84012 5.52281 7.79822 5.66016 7.77476 5.94745C7.75058 6.24344 7.75 6.62777 7.75 7.2002V8.5919ZM14.25 19.25V14.3682C14.25 13.8054 14.2441 13.6537 14.2101 13.5217C14.1752 13.3859 14.1179 13.2573 14.0403 13.1407C13.9648 13.0273 13.8562 12.9218 13.4374 12.5456L11.1374 10.4793C10.7508 10.132 10.4923 9.90045 10.2784 9.7365C10.0719 9.5782 9.95292 9.51981 9.86069 9.49201C9.62542 9.42109 9.37422 9.42109 9.13895 9.49201C9.04698 9.51973 8.92827 9.578 8.72207 9.73611C8.50849 9.89989 8.25038 10.1311 7.86433 10.4779L5.56275 12.5456C5.14373 12.9221 5.03459 13.0276 4.95933 13.1407C4.88161 13.2575 4.82424 13.3861 4.78937 13.5217C4.75552 13.6534 4.75 13.8042 4.75 14.3682V19.25H14.25Z" fill="#7F7A84"/>
</svg>
