<svg width="24" height="24" viewBox="0 0 24 24" fill="none" xmlns="http://www.w3.org/2000/svg">
<path fill-rule="evenodd" clip-rule="evenodd" d="M12 3.75C7.44365 3.75 3.75 7.44365 3.75 12C3.75 14.5446 4.90198 16.82 6.71286 18.3334C8.09692 17.0417 9.95647 16.25 12 16.25C14.0436 16.25 15.903 17.0417 17.2871 18.3335C19.098 16.8201 20.25 14.5446 20.25 12C20.25 7.44365 16.5563 3.75 12 3.75ZM16.0142 19.2093C14.9279 18.2979 13.5283 17.75 12 17.75C10.4718 17.75 9.07206 18.2979 7.98572 19.2092C9.17383 19.8722 10.5428 20.25 12 20.25C13.4572 20.25 14.8261 19.8722 16.0142 19.2093ZM2.25 12C2.25 6.61522 6.61522 2.25 12 2.25C17.3848 2.25 21.75 6.61522 21.75 12C21.75 17.3848 17.3848 21.75 12 21.75C6.61522 21.75 2.25 17.3848 2.25 12ZM12 8.75C10.7574 8.75 9.75 9.75736 9.75 11C9.75 12.2426 10.7574 13.25 12 13.25C13.2426 13.25 14.25 12.2426 14.25 11C14.25 9.75736 13.2426 8.75 12 8.75ZM8.25 11C8.25 8.92893 9.92893 7.25 12 7.25C14.0711 7.25 15.75 8.92893 15.75 11C15.75 13.0711 14.0711 14.75 12 14.75C9.92893 14.75 8.25 13.0711 8.25 11Z" fill="#7F7A84"/>
</svg>
