<svg width="24" height="24" viewBox="0 0 24 24" fill="none" xmlns="http://www.w3.org/2000/svg">
<path fill-rule="evenodd" clip-rule="evenodd" d="M6.63873 1.51793C6.90498 1.83523 6.86359 2.3083 6.54629 2.57455L3.48211 5.1457C3.1648 5.41195 2.69174 5.37056 2.42548 5.05326C2.15923 4.73595 2.20062 4.26289 2.51793 3.99663L5.5821 1.42548C5.89941 1.15923 6.37248 1.20062 6.63873 1.51793ZM17.3649 1.51793C17.6312 1.20062 18.1043 1.15923 18.4216 1.42548L21.4857 3.99663C21.803 4.26289 21.8444 4.73595 21.5782 5.05326C21.3119 5.37056 20.8389 5.41195 20.5216 5.1457L17.4574 2.57455C17.1401 2.3083 17.0987 1.83523 17.3649 1.51793ZM12 4.75002C7.99595 4.75002 4.75002 7.99595 4.75002 12C4.75002 16.0041 7.99595 19.25 12 19.25C16.0041 19.25 19.25 16.0041 19.25 12C19.25 7.99595 16.0041 4.75002 12 4.75002ZM3.25002 12C3.25002 7.16753 7.16753 3.25002 12 3.25002C16.8325 3.25002 20.75 7.16753 20.75 12C20.75 16.8325 16.8325 20.75 12 20.75C7.16753 20.75 3.25002 16.8325 3.25002 12ZM12 6.25002C12.4142 6.25002 12.75 6.5858 12.75 7.00002V11.25H17C17.4142 11.25 17.75 11.5858 17.75 12C17.75 12.4142 17.4142 12.75 17 12.75H12C11.5858 12.75 11.25 12.4142 11.25 12V7.00002C11.25 6.5858 11.5858 6.25002 12 6.25002Z" fill="black"/>
</svg>
