<svg width="24" height="24" viewBox="0 0 24 24" fill="none" xmlns="http://www.w3.org/2000/svg">
<path fill-rule="evenodd" clip-rule="evenodd" d="M12.4795 3.06683C12.1732 2.93996 11.829 2.93996 11.5227 3.06683C11.4456 3.09879 11.3419 3.16083 11.16 3.31944C10.9731 3.48249 10.7468 3.70819 10.4101 4.0449C10.0735 4.38154 9.84777 4.60782 9.6847 4.79476C9.52606 4.97664 9.464 5.08038 9.43206 5.15749C9.3052 5.46377 9.3052 5.80797 9.43206 6.11425C9.46402 6.1914 9.52606 6.29513 9.68467 6.47697C9.84771 6.66389 10.0734 6.89016 10.4101 7.22689C10.7467 7.56342 10.973 7.78914 11.16 7.95225C11.3419 8.11098 11.4457 8.17306 11.5227 8.20497C11.829 8.33183 12.1732 8.33183 12.4795 8.20496C12.5566 8.17301 12.6604 8.11097 12.8422 7.95236C13.0291 7.78932 13.2554 7.56362 13.5921 7.22689C13.9287 6.89036 14.1541 6.66409 14.3168 6.47734C14.475 6.29572 14.5371 6.19182 14.5692 6.11425C14.6961 5.80797 14.6961 5.46377 14.5692 5.15748C14.5371 5.07993 14.475 4.97606 14.3168 4.79445C14.1541 4.6077 13.9287 4.38144 13.5921 4.0449C13.2554 3.70818 13.0291 3.48248 12.8422 3.31944C12.6604 3.16083 12.5566 3.09879 12.4795 3.06683ZM10.9487 1.68101C11.6225 1.4019 12.3797 1.4019 13.0535 1.68101C13.3439 1.80129 13.5887 1.98011 13.8282 2.18904C14.0583 2.38972 14.3206 2.65207 14.6349 2.96633L14.6636 2.9951C14.9812 3.31266 15.2457 3.5772 15.4478 3.80915C15.6566 4.04887 15.8349 4.29347 15.955 4.58346C16.2342 5.25729 16.2342 6.01445 15.955 6.68828C15.8349 6.97825 15.6567 7.22286 15.4478 7.4626C15.2457 7.69467 14.981 7.95935 14.6632 8.27712L14.6349 8.30539C14.3207 8.61968 14.0583 8.88206 13.8282 9.08276C13.5887 9.29169 13.3439 9.4705 13.0535 9.59078C12.3797 9.86989 11.6225 9.8699 10.9487 9.59079C10.6583 9.47049 10.4134 9.29153 10.1739 9.08262C9.94379 8.88188 9.68142 8.6195 9.36731 8.30538L9.3316 8.26968C9.01733 7.95541 8.75496 7.69305 8.55427 7.46297C8.34534 7.22344 8.16653 6.97867 8.04625 6.68828C7.76714 6.01445 7.76714 5.25729 8.04625 4.58346C8.16653 4.29306 8.3454 4.04825 8.55432 3.80875C8.75502 3.57865 9.01738 3.3163 9.33159 3.0021L9.3673 2.96639C9.68157 2.65211 9.94393 2.38974 10.174 2.18904C10.4135 1.98012 10.6583 1.80129 10.9487 1.68101ZM6.11523 9.4306C5.80894 9.30373 5.46477 9.30373 5.15849 9.4306C5.08134 9.46256 4.97761 9.5246 4.79577 9.68321C4.60885 9.84625 4.38258 10.0719 4.04585 10.4087C3.70922 10.7453 3.48352 10.9716 3.32045 11.1585C3.1618 11.3404 3.09974 11.4442 3.06781 11.5213C2.94094 11.8275 2.94094 12.1717 3.06781 12.478C3.09976 12.5552 3.1618 12.6589 3.32041 12.8407C3.48346 13.0277 3.70916 13.2539 4.04588 13.5907C4.38241 13.9272 4.60871 14.1529 4.79569 14.316C4.97765 14.4748 5.08144 14.5368 5.15846 14.5687C5.46474 14.6956 5.80894 14.6956 6.11523 14.5687C6.19238 14.5368 6.29611 14.4747 6.47794 14.3161C6.66487 14.1531 6.89114 13.9274 7.22786 13.5907C7.56439 13.2541 7.78985 13.0279 7.95252 12.8411C8.11073 12.6595 8.17284 12.5556 8.20497 12.478C8.33183 12.1717 8.33183 11.8275 8.20497 11.5213C8.17284 11.4437 8.11075 11.3398 7.95254 11.1582C7.78986 10.9715 7.56441 10.7452 7.22786 10.4087C6.89114 10.0719 6.66487 9.84625 6.47794 9.6832C6.29611 9.5246 6.19238 9.46256 6.11523 9.4306ZM4.58446 8.04478C5.25829 7.76567 6.01543 7.76567 6.68925 8.04478C6.97964 8.16506 7.22442 8.34388 7.46394 8.5528C7.69403 8.7535 7.95638 9.01586 8.27065 9.33014L8.2994 9.35889C8.61696 9.67645 8.8815 9.94098 9.08355 10.1729C9.29239 10.4126 9.47067 10.6572 9.59079 10.9472C9.86989 11.6211 9.86989 12.3782 9.59079 13.052C9.47067 13.342 9.29241 13.5866 9.08357 13.8264C8.88142 14.0584 8.61673 14.3231 8.29897 14.6409L8.27068 14.6692C7.9564 14.9835 7.69403 15.2458 7.46394 15.4465C7.22442 15.6555 6.97964 15.8343 6.68925 15.9546C6.01543 16.2337 5.25827 16.2337 4.58444 15.9546C4.29402 15.8343 4.04914 15.6553 3.80965 15.4464C3.57953 15.2456 3.31716 14.9833 3.00305 14.6691L2.96731 14.6334C2.65305 14.3192 2.3907 14.0568 2.19001 13.8267C1.98109 13.5872 1.80227 13.3424 1.68199 13.052C1.40288 12.3782 1.40288 11.6211 1.68199 10.9472C1.80227 10.6568 1.98115 10.412 2.19007 10.1725C2.39078 9.94241 2.65314 9.68005 2.96734 9.36586L2.98519 9.34801L3.00305 9.33015C3.31733 9.01587 3.57968 8.7535 3.80977 8.55281C4.04929 8.34388 4.29407 8.16506 4.58446 8.04478ZM18.8437 9.4306C18.5375 9.30373 18.1933 9.30373 17.887 9.4306C17.8099 9.46256 17.7061 9.5246 17.5243 9.68321C17.3374 9.84625 17.1111 10.072 16.7744 10.4087C16.4377 10.7453 16.212 10.9716 16.049 11.1585C15.8903 11.3404 15.8283 11.4442 15.7963 11.5213C15.6695 11.8275 15.6695 12.1717 15.7963 12.478C15.8283 12.5552 15.8903 12.6589 16.0489 12.8407C16.212 13.0277 16.4377 13.2539 16.7744 13.5907C17.1109 13.9272 17.3372 14.1529 17.5242 14.316C17.7062 14.4748 17.81 14.5368 17.887 14.5687C18.1933 14.6956 18.5375 14.6956 18.8437 14.5687C18.9209 14.5368 19.0246 14.4747 19.2065 14.3161C19.3934 14.1531 19.6197 13.9274 19.9564 13.5907C20.2929 13.2541 20.5184 13.0279 20.681 12.8411C20.8393 12.6595 20.9014 12.5556 20.9335 12.478C21.0604 12.1717 21.0604 11.8275 20.9335 11.5213C20.9014 11.4437 20.8393 11.3398 20.6811 11.1582C20.5184 10.9715 20.2929 10.7452 19.9564 10.4087C19.6197 10.0719 19.3934 9.84625 19.2065 9.68321C19.0246 9.5246 18.9209 9.46256 18.8437 9.4306ZM17.313 8.04478C17.9868 7.76567 18.7439 7.76567 19.4178 8.04478C19.7082 8.16506 19.9529 8.34388 20.1925 8.5528C20.4225 8.75349 20.6849 9.01585 20.9991 9.33011L21.028 9.35893C21.3455 9.67646 21.61 9.94098 21.8121 10.1729C22.0209 10.4126 22.1992 10.6572 22.3193 10.9472C22.5984 11.6211 22.5984 12.3782 22.3193 13.052C22.1992 13.342 22.0209 13.5866 21.8121 13.8264C21.6099 14.0584 21.3452 14.3231 21.0275 14.6409L20.9991 14.6692C20.6849 14.9835 20.4225 15.2458 20.1925 15.4465C19.9529 15.6555 19.7082 15.8343 19.4178 15.9546C18.7439 16.2337 17.9868 16.2337 17.313 15.9546C17.0225 15.8343 16.7777 15.6553 16.5382 15.4464C16.308 15.2457 16.0457 14.9833 15.7316 14.6692L15.6959 14.6335C15.3816 14.3192 15.1192 14.0568 14.9185 13.8267C14.7096 13.5872 14.5308 13.3424 14.4105 13.052C14.1314 12.3782 14.1314 11.6211 14.4105 10.9472C14.5308 10.6568 14.7097 10.412 14.9186 10.1725C15.1193 9.94242 15.3816 9.68008 15.6958 9.3659L15.7315 9.33018C16.0458 9.01589 16.3082 8.75351 16.5383 8.55281C16.7778 8.34388 17.0226 8.16506 17.313 8.04478ZM12.4795 15.7949C12.1732 15.668 11.829 15.668 11.5227 15.7949C11.4456 15.8268 11.3419 15.8889 11.16 16.0475C10.9731 16.2105 10.7468 16.4362 10.4101 16.7729C10.0735 17.1096 9.84777 17.3358 9.68471 17.5228C9.52606 17.7047 9.464 17.8084 9.43206 17.8855C9.3052 18.1918 9.3052 18.536 9.43206 18.8423C9.46402 18.9194 9.52606 19.0232 9.68467 19.205C9.84772 19.3919 10.0734 19.6182 10.4101 19.9549C10.7467 20.2914 10.973 20.5172 11.16 20.6803C11.3419 20.839 11.4457 20.9011 11.5227 20.933C11.829 21.0599 12.1732 21.0599 12.4795 20.933C12.5566 20.901 12.6604 20.839 12.8422 20.6804C13.0291 20.5173 13.2554 20.2916 13.5921 19.9549C13.9287 19.6184 14.1541 19.3921 14.3168 19.2054C14.475 19.0237 14.5371 18.9198 14.5692 18.8423C14.6961 18.536 14.6961 18.1918 14.5692 17.8855C14.5371 17.808 14.475 17.7041 14.3168 17.5225C14.1541 17.3357 13.9287 17.1095 13.5921 16.7729C13.2554 16.4362 13.0291 16.2105 12.8422 16.0475C12.6604 15.8889 12.5566 15.8268 12.4795 15.7949ZM10.9487 14.409C11.6225 14.1299 12.3797 14.1299 13.0535 14.409C13.3439 14.5293 13.5887 14.7081 13.8282 14.9171C14.0583 15.1178 14.3207 15.3801 14.635 15.6944L14.6636 15.7231C14.9812 16.0407 15.2458 16.3052 15.4478 16.5372C15.6566 16.7769 15.8349 17.0215 15.955 17.3115C16.2342 17.9853 16.2342 18.7425 15.955 19.4163C15.8349 19.7063 15.6567 19.9509 15.4478 20.1906C15.2457 20.4227 14.981 20.6874 14.6632 21.0052L14.6349 21.0334C14.3207 21.3477 14.0583 21.6101 13.8282 21.8108C13.5887 22.0197 13.3439 22.1985 13.0535 22.3188C12.3797 22.5979 11.6225 22.5979 10.9487 22.3188C10.6583 22.1985 10.4134 22.0196 10.1739 21.8106C9.94378 21.6099 9.68141 21.3475 9.36728 21.0334L9.33158 20.9977C9.01731 20.6834 8.75496 20.4211 8.55427 20.191C8.34535 19.9515 8.16653 19.7067 8.04625 19.4163C7.76714 18.7425 7.76714 17.9853 8.04625 17.3115C8.16653 17.0211 8.34541 16.7763 8.55432 16.5368C8.75504 16.3067 9.0174 16.0443 9.33162 15.7301L9.3673 15.6944C9.68158 15.3801 9.94394 15.1178 10.174 14.9171C10.4136 14.7081 10.6583 14.5293 10.9487 14.409Z" fill="black"/>
</svg>
