<svg width="24" height="24" viewBox="0 0 24 24" fill="none" xmlns="http://www.w3.org/2000/svg">
<path fill-rule="evenodd" clip-rule="evenodd" d="M16.4312 6.65987C15.0186 6.05445 13.4958 5.7447 11.9589 5.75007C10.4222 5.75543 8.90344 6.07591 7.49498 6.69125C6.08665 7.30654 4.81932 8.20385 3.77117 9.32785C3.48868 9.63079 3.0141 9.64736 2.71116 9.36487C2.40822 9.08237 2.39165 8.60779 2.67414 8.30485C3.86204 7.03099 5.29834 6.01403 6.89445 5.31671C8.49042 4.61944 10.2117 4.25616 11.9536 4.25008C13.6954 4.244 15.4211 4.595 17.0221 5.28117C18.6231 5.96737 20.0667 6.97489 21.2634 8.24036C21.548 8.54132 21.5348 9.01601 21.2338 9.30061C20.9329 9.58521 20.4582 9.57195 20.1736 9.27099C19.1175 8.15427 17.8437 7.26527 16.4312 6.65987ZM14.8546 10.3364C13.9442 9.94618 12.9641 9.74661 11.9738 9.75007C10.9833 9.75353 10.0043 9.95979 9.09674 10.3563C8.18915 10.7528 7.37243 11.3311 6.69696 12.0554C6.41446 12.3584 5.93988 12.3749 5.63694 12.0924C5.334 11.81 5.31743 11.3354 5.59993 11.0324C6.41515 10.1582 7.40085 9.4603 8.49621 8.98175C9.59161 8.50318 10.7732 8.25425 11.9685 8.25008C13.164 8.2459 14.347 8.48683 15.4456 8.95769C16.5441 9.42854 17.5352 10.1196 18.3566 10.9882C18.6412 11.2891 18.628 11.7638 18.327 12.0484C18.026 12.333 17.5514 12.3198 17.2668 12.0188C16.5863 11.2993 15.7651 10.7266 14.8546 10.3364ZM13.6732 14.0938C13.1395 13.865 12.5648 13.748 11.9842 13.7501C11.4034 13.7521 10.8289 13.873 10.2971 14.1053C9.76505 14.3378 9.28628 14.6767 8.89032 15.1014C8.60782 15.4043 8.13324 15.4209 7.8303 15.1384C7.52736 14.8559 7.51079 14.3813 7.79328 14.0784C8.329 13.5039 8.97675 13.0452 9.69656 12.7308C10.4166 12.4162 11.1937 12.2528 11.979 12.2501C12.7646 12.2473 13.5422 12.4057 14.2642 12.7151C14.986 13.0245 15.6372 13.4784 16.177 14.0493C16.4616 14.3502 16.4483 14.8249 16.1474 15.1095C15.8464 15.3941 15.3717 15.3809 15.0871 15.0799C14.6883 14.6582 14.207 14.3226 13.6732 14.0938ZM10.249 18.0001C10.249 17.0336 11.0325 16.2501 11.999 16.2501C12.9655 16.2501 13.749 17.0336 13.749 18.0001C13.749 18.9666 12.9655 19.7501 11.999 19.7501C11.0325 19.7501 10.249 18.9666 10.249 18.0001Z" fill="black"/>
</svg>
