<svg width="22" height="6" viewBox="0 0 22 6" fill="none" xmlns="http://www.w3.org/2000/svg">
<path fill-rule="evenodd" clip-rule="evenodd" d="M0.666504 2.99984C0.666504 1.71117 1.71117 0.666504 2.99984 0.666504C4.2885 0.666504 5.33317 1.71117 5.33317 2.99984C5.33317 4.2885 4.2885 5.33317 2.99984 5.33317C1.71117 5.33317 0.666504 4.2885 0.666504 2.99984ZM8.6665 2.99984C8.6665 1.71117 9.71117 0.666504 10.9998 0.666504C12.2885 0.666504 13.3332 1.71117 13.3332 2.99984C13.3332 4.2885 12.2885 5.33317 10.9998 5.33317C9.71117 5.33317 8.6665 4.2885 8.6665 2.99984ZM16.6665 2.99984C16.6665 1.71117 17.7112 0.666504 18.9998 0.666504C20.2885 0.666504 21.3332 1.71117 21.3332 2.99984C21.3332 4.2885 20.2885 5.33317 18.9998 5.33317C17.7112 5.33317 16.6665 4.2885 16.6665 2.99984Z" fill="#FE0103"/>
</svg>