<svg width="24" height="24" viewBox="0 0 24 24" fill="none" xmlns="http://www.w3.org/2000/svg">
<path fill-rule="evenodd" clip-rule="evenodd" d="M19.1745 4.27974C18.8105 4.24998 18.3648 4.24999 17.8307 4.25H6.16978L4.82534 4.27974C4.44541 4.31077 4.08861 4.37787 3.7513 4.54973C3.23386 4.81338 2.81338 5.23386 2.54973 5.7513C2.37787 6.08861 2.31077 6.44541 2.27974 6.82534C2.24998 7.18966 2.24999 7.63561 2.25 8.16978V15.8306C2.24999 16.3648 2.24998 16.8106 2.27974 17.1747C2.31078 17.5546 2.37791 17.9111 2.54973 18.2484C2.81317 18.7654 3.23344 19.1866 3.7513 19.4505C4.08837 19.6222 4.44487 19.6893 4.82433 19.7203C5.18817 19.75 5.63341 19.75 6.16649 19.75H17.8336C18.3666 19.75 18.8116 19.75 19.1753 19.7203C19.5547 19.6893 19.9109 19.6222 20.2479 19.4505C20.7649 19.187 21.1866 18.7662 21.4505 18.2484C21.6222 17.9114 21.6893 17.5552 21.7203 17.1758C21.75 16.8121 21.75 16.3671 21.75 15.834V8.16649C21.75 7.63341 21.75 7.18817 21.7203 6.82433C21.6893 6.44487 21.6222 6.08837 21.4505 5.75131C21.1864 5.23305 20.7645 4.81297 20.2479 4.54973C19.9107 4.37793 19.5543 4.31079 19.1745 4.27974ZM4.94638 5.77485L10.5596 10.0138L10.5634 10.0167C11.2858 10.5462 11.4892 10.6791 11.6866 10.7301C11.8919 10.7832 12.1079 10.7832 12.3132 10.7301C12.5112 10.6789 12.7159 10.5451 13.4425 10.0123L13.6091 9.88459C13.7206 9.79911 13.8824 9.67525 14.0834 9.52161C14.4853 9.21435 15.044 8.78793 15.6713 8.31123C16.7394 7.49949 18.0095 6.53954 19.0428 5.77399C18.7484 5.75057 18.3665 5.75 17.8002 5.75H6.2002C5.62777 5.75 5.24344 5.75058 4.94745 5.77476L4.94638 5.77485ZM20.2074 6.77847C19.1413 7.56446 17.7437 8.6203 16.5789 9.50549C15.953 9.98112 15.3955 10.4066 14.9944 10.7133C14.7939 10.8666 14.6325 10.9901 14.5213 11.0753L14.3499 11.2067L14.3361 11.2171L14.2323 11.2933C13.6559 11.7168 13.2036 12.0492 12.6888 12.1823C12.2371 12.2991 11.7626 12.2991 11.311 12.1823C10.7965 12.0492 10.3451 11.7176 9.76974 11.2948L9.66615 11.2188C9.6597 11.214 9.65333 11.2092 9.64704 11.2043L3.79218 6.78289C3.78562 6.83157 3.77977 6.88609 3.77476 6.94745C3.75058 7.24344 3.75 7.62778 3.75 8.2002V15.8002C3.75 16.3726 3.75058 16.7568 3.77476 17.0526C3.79821 17.3396 3.84008 17.4768 3.88624 17.5674C4.0063 17.803 4.19751 17.9943 4.43229 18.114C4.52263 18.16 4.65973 18.2018 4.9465 18.2253C5.24198 18.2494 5.62558 18.25 6.19691 18.25H17.8031C18.3744 18.25 18.7578 18.2494 19.0531 18.2253C19.3395 18.2019 19.4765 18.16 19.5669 18.114C19.8025 17.9939 19.9943 17.8022 20.114 17.5674C20.16 17.477 20.2019 17.34 20.2253 17.0535C20.2494 16.7583 20.25 16.3749 20.25 15.8036V8.19691C20.25 7.62558 20.2494 7.24198 20.2253 6.9465C20.2201 6.88366 20.2141 6.82802 20.2074 6.77847Z" fill="black"/>
</svg>
