<svg width="24" height="24" viewBox="0 0 24 24" fill="none" xmlns="http://www.w3.org/2000/svg">
<path fill-rule="evenodd" clip-rule="evenodd" d="M9.46396 4.78459C9.34019 4.75488 9.19947 4.75005 8.67452 4.75005H5C4.59105 4.75005 4.22796 4.94644 3.99991 5.25005H10.1879C9.98793 5.05374 9.90809 4.98542 9.82492 4.93446C9.71242 4.86551 9.59075 4.81503 9.46396 4.78459ZM12.3107 5.25005L11.4678 4.40722C11.4505 4.38993 11.4335 4.37285 11.4166 4.35597C11.121 4.05999 10.8878 3.82656 10.6087 3.6555C10.3633 3.50512 10.0955 3.39358 9.81413 3.32604C9.49571 3.24959 9.16563 3.24978 8.74703 3.25003C8.72315 3.25004 8.69899 3.25005 8.67452 3.25005H5C3.48122 3.25005 2.25 4.48127 2.25 6.00005L2.25 16.8305C2.24999 17.3646 2.24998 17.8104 2.27974 18.1745C2.31078 18.5544 2.37791 18.9109 2.54973 19.2481C2.81305 19.7649 3.23321 20.1866 3.7513 20.4505C4.08837 20.6223 4.44487 20.6893 4.82433 20.7203C5.18817 20.7501 5.63341 20.7501 6.16649 20.7501H17.8335C18.3666 20.7501 18.8116 20.7501 19.1753 20.7203C19.5547 20.6893 19.9109 20.6222 20.2479 20.4505C20.765 20.187 21.1867 19.7661 21.4505 19.2483C21.6223 18.9111 21.6894 18.5544 21.7205 18.1745C21.7502 17.8103 21.7502 17.3645 21.7502 16.8303L21.7502 9.16938C21.7502 8.63523 21.7502 8.18939 21.7205 7.82516C21.6894 7.44528 21.6223 7.08862 21.4505 6.75136C21.1865 6.23326 20.7649 5.8131 20.2481 5.54979C19.9109 5.37796 19.5543 5.31084 19.1745 5.2798C18.8103 5.25004 18.3646 5.25004 17.8305 5.25005L12.3107 5.25005ZM3.75 6.75005V16.8001C3.75 17.3725 3.75058 17.7566 3.77476 18.0524C3.79821 18.3393 3.84008 18.4766 3.88624 18.5672C4.00642 18.803 4.19774 18.9945 4.43229 19.114C4.52263 19.1601 4.65973 19.2019 4.9465 19.2253C5.24198 19.2495 5.62558 19.2501 6.19691 19.2501H17.8031C18.3744 19.2501 18.7578 19.2495 19.0531 19.2253C19.3395 19.2019 19.4765 19.1601 19.5669 19.114C19.8024 18.994 19.9943 18.8022 20.114 18.5673C20.1601 18.4768 20.202 18.3395 20.2255 18.0524C20.2496 17.7565 20.2502 17.3723 20.2502 16.7999L20.2502 9.19983C20.2502 8.6274 20.2496 8.24319 20.2255 7.94731C20.202 7.66019 20.1601 7.52291 20.114 7.43234C19.9945 7.1978 19.803 7.00647 19.5671 6.8863C19.4765 6.84013 19.3393 6.79826 19.0523 6.77481C18.7565 6.75064 18.3724 6.75005 17.8 6.75005H3.75ZM8.25 12.5001C8.25 10.7051 9.70508 9.25005 11.5 9.25005C13.2949 9.25005 14.75 10.7051 14.75 12.5001C14.75 13.1261 14.573 13.7107 14.2664 14.2067L15.5297 15.4701C15.8226 15.763 15.8226 16.2379 15.5297 16.5307C15.2368 16.8236 14.7619 16.8236 14.4691 16.5307L13.2055 15.2672C12.7097 15.5734 12.1255 15.7501 11.5 15.7501C9.70508 15.7501 8.25 14.295 8.25 12.5001ZM11.5 10.7501C10.5335 10.7501 9.75 11.5336 9.75 12.5001C9.75 13.4666 10.5335 14.2501 11.5 14.2501C12.4665 14.2501 13.25 13.4666 13.25 12.5001C13.25 11.5336 12.4665 10.7501 11.5 10.7501Z" fill="black"/>
</svg>
