<svg width="24" height="24" viewBox="0 0 24 24" fill="none" xmlns="http://www.w3.org/2000/svg">
<path fill-rule="evenodd" clip-rule="evenodd" d="M5.16978 5.25H18.8307C19.3648 5.24999 19.8105 5.24998 20.1745 5.27974C20.5543 5.31079 20.9107 5.37793 21.2479 5.54973C21.7645 5.81297 22.1864 6.23305 22.4505 6.75131C22.6222 7.08837 22.6893 7.44487 22.7203 7.82433C22.75 8.18817 22.75 8.63341 22.75 9.16649V14.8335C22.75 15.3666 22.75 15.8116 22.7203 16.1753C22.6893 16.5547 22.6222 16.9109 22.4505 17.2479C22.1868 17.7653 21.7653 18.1868 21.2479 18.4505C20.9109 18.6222 20.5547 18.6893 20.1753 18.7203C19.8116 18.75 19.3666 18.75 18.8335 18.75H5.16649C4.63341 18.75 4.18817 18.75 3.82433 18.7203C3.44487 18.6893 3.08837 18.6222 2.7513 18.4505C2.23305 18.1864 1.81297 17.7645 1.54973 17.2479C1.37793 16.9107 1.31079 16.5543 1.27974 16.1745C1.24998 15.8105 1.24999 15.3648 1.25 14.8307V9.16978C1.24999 8.63561 1.24998 8.18966 1.27974 7.82534C1.31077 7.44541 1.37787 7.08861 1.54973 6.7513C1.81338 6.23386 2.23386 5.81338 2.7513 5.54973C3.08861 5.37787 3.44541 5.31077 3.82534 5.27974C4.18966 5.24998 4.63561 5.24999 5.16978 5.25ZM3.94745 6.77476C3.66016 6.79822 3.52281 6.84012 3.43229 6.88624C3.19709 7.00608 3.00608 7.19709 2.88624 7.43229C2.84012 7.52281 2.79822 7.66016 2.77476 7.94745C2.75058 8.24344 2.75 8.62778 2.75 9.2002V14.8002C2.75 15.3726 2.75058 15.7566 2.77476 16.0523C2.7982 16.3391 2.84006 16.4763 2.88624 16.5669C3.0065 16.8029 3.1979 16.9945 3.43229 17.114C3.52263 17.16 3.65973 17.2018 3.9465 17.2253C4.24198 17.2494 4.62558 17.25 5.19691 17.25H18.8031C19.3744 17.25 19.7578 17.2494 20.0531 17.2253C20.3395 17.2019 20.4765 17.16 20.5669 17.114C20.8021 16.9941 20.9941 16.8021 21.114 16.5669C21.16 16.4765 21.2019 16.3395 21.2253 16.0531C21.2494 15.7578 21.25 15.3744 21.25 14.8031V9.19691C21.25 8.62558 21.2494 8.24198 21.2253 7.9465C21.2018 7.65973 21.16 7.52263 21.114 7.43229C20.9945 7.1979 20.8029 7.0065 20.5669 6.88624C20.4763 6.84006 20.3391 6.7982 20.0523 6.77476C19.7566 6.75058 19.3726 6.75 18.8002 6.75H5.2002C4.62777 6.75 4.24344 6.75058 3.94745 6.77476ZM4.25 9C4.25 8.58579 4.58579 8.25 5 8.25H19C19.4142 8.25 19.75 8.58579 19.75 9C19.75 9.41421 19.4142 9.75 19 9.75H5C4.58579 9.75 4.25 9.41421 4.25 9ZM4.25 12C4.25 11.5858 4.58579 11.25 5 11.25H19C19.4142 11.25 19.75 11.5858 19.75 12C19.75 12.4142 19.4142 12.75 19 12.75H5C4.58579 12.75 4.25 12.4142 4.25 12ZM4.25 15C4.25 14.5858 4.58579 14.25 5 14.25H6C6.41421 14.25 6.75 14.5858 6.75 15C6.75 15.4142 6.41421 15.75 6 15.75H5C4.58579 15.75 4.25 15.4142 4.25 15ZM8.25 15C8.25 14.5858 8.58579 14.25 9 14.25H15C15.4142 14.25 15.75 14.5858 15.75 15C15.75 15.4142 15.4142 15.75 15 15.75H9C8.58579 15.75 8.25 15.4142 8.25 15ZM17.25 15C17.25 14.5858 17.5858 14.25 18 14.25H19C19.4142 14.25 19.75 14.5858 19.75 15C19.75 15.4142 19.4142 15.75 19 15.75H18C17.5858 15.75 17.25 15.4142 17.25 15Z" fill="black"/>
</svg>
