<svg width="24" height="24" viewBox="0 0 24 24" fill="none" xmlns="http://www.w3.org/2000/svg">
<path fill-rule="evenodd" clip-rule="evenodd" d="M10.5865 3.25C10.5947 3.25 10.6029 3.25001 10.6113 3.25001L13.4134 3.25C13.5515 3.24998 13.6592 3.24996 13.7608 3.25745C14.7942 3.33363 15.6973 3.98406 16.0964 4.94066C16.1363 5.03618 16.1707 5.1393 16.2158 5.27478L16.2213 5.29115C16.2246 5.30102 16.2279 5.31091 16.2312 5.32081C16.2671 5.42822 16.3035 5.53704 16.3242 5.63441C16.3689 5.84345 16.3742 6.05109 16.3455 6.25001L17.8307 6.25001C18.3648 6.24999 18.8105 6.24999 19.1745 6.27975C19.5543 6.3108 19.9107 6.37794 20.2479 6.54974C20.7645 6.81298 21.1864 7.23305 21.4505 7.75131C21.6222 8.08838 21.6893 8.44487 21.7203 8.82433C21.75 9.18818 21.75 9.63341 21.75 10.1665V15.8335C21.75 16.3666 21.75 16.8116 21.7203 17.1753C21.6893 17.5547 21.6222 17.9109 21.4505 18.2479C21.1868 18.7653 20.7653 19.1868 20.2479 19.4505C19.9109 19.6222 19.5547 19.6893 19.1753 19.7203C18.8116 19.75 18.3666 19.75 17.8336 19.75H6.16649C5.63341 19.75 5.18817 19.75 4.82433 19.7203C4.44487 19.6893 4.08837 19.6222 3.7513 19.4505C3.23305 19.1864 2.81297 18.7645 2.54973 18.2479C2.37793 17.9107 2.31079 17.5543 2.27974 17.1745C2.24998 16.8105 2.24999 16.3648 2.25 15.8307V10.1698C2.24999 9.63561 2.24998 9.18967 2.27974 8.82534C2.31077 8.44541 2.37787 8.08862 2.54973 7.75131C2.81338 7.23386 3.23386 6.81339 3.7513 6.54974C4.08861 6.37787 4.44541 6.31078 4.82534 6.27974C5.18966 6.24999 5.63561 6.24999 6.16978 6.25001L7.65452 6.25001C7.62577 6.05109 7.63107 5.84342 7.6757 5.63432C7.69631 5.53771 7.73225 5.43022 7.76713 5.32587C7.77037 5.3162 7.77359 5.30655 7.77679 5.29695L7.77795 5.29349L7.77872 5.29125C7.78137 5.28331 7.78398 5.27547 7.78656 5.26773C7.83021 5.13669 7.86419 5.0347 7.90343 4.94066C8.30275 3.98376 9.20667 3.33361 10.2398 3.25745C10.3414 3.24996 10.4484 3.24998 10.5865 3.25ZM9.4893 6.25001C9.48919 6.25001 9.48941 6.25001 9.4893 6.25001H14.5105C14.5104 6.25001 14.5106 6.25001 14.5105 6.25001C14.5643 6.24998 14.5979 6.24981 14.6222 6.24924C14.6345 6.24895 14.6411 6.24862 14.6435 6.24848C14.7875 6.23077 14.8872 6.09313 14.8577 5.94945C14.8571 5.94712 14.8544 5.93736 14.8476 5.9156C14.8371 5.88199 14.8222 5.83741 14.7983 5.7655C14.7435 5.60115 14.7274 5.55489 14.7121 5.51834C14.5308 5.08373 14.1205 4.78803 13.6505 4.75339C13.6113 4.7505 13.563 4.75001 13.3886 4.75001H10.6113C10.4369 4.75001 10.3893 4.7505 10.3501 4.75339C9.87977 4.78806 9.46897 5.08403 9.28773 5.51834C9.27259 5.55463 9.25691 5.6001 9.20175 5.76559L9.20059 5.76906L9.19981 5.7713C9.17648 5.8413 9.16209 5.88455 9.15186 5.91721C9.14542 5.93772 9.14286 5.94713 9.14221 5.94953C9.11298 6.09256 9.21254 6.23075 9.35715 6.24849C9.35956 6.24863 9.36603 6.24896 9.37817 6.24924C9.40222 6.24981 9.43556 6.24998 9.4893 6.25001ZM6.2002 7.75001C5.62777 7.75001 5.24344 7.75059 4.94745 7.77477C4.66016 7.79823 4.52281 7.84013 4.43229 7.88625C4.19709 8.00609 4.00608 8.19709 3.88624 8.4323C3.84012 8.52281 3.79822 8.66016 3.77476 8.94745C3.75058 9.24345 3.75 9.62778 3.75 10.2002V15.8002C3.75 16.3726 3.75058 16.7566 3.77476 17.0523C3.7982 17.3391 3.84006 17.4763 3.88624 17.5669C4.0065 17.8029 4.1979 17.9945 4.43229 18.114C4.52263 18.16 4.65973 18.2018 4.9465 18.2253C5.24198 18.2494 5.62558 18.25 6.19691 18.25H17.8031C18.3744 18.25 18.7578 18.2494 19.0531 18.2253C19.3395 18.2019 19.4765 18.1601 19.5669 18.114C19.8021 17.9941 19.9941 17.8021 20.114 17.5669C20.16 17.4765 20.2019 17.3395 20.2253 17.0531C20.2494 16.7578 20.25 16.3744 20.25 15.8031V10.1969C20.25 9.62559 20.2494 9.24199 20.2253 8.9465C20.2018 8.65974 20.16 8.52263 20.114 8.43229C19.9945 8.1979 19.8029 8.0065 19.5669 7.88625C19.4763 7.84006 19.3391 7.79821 19.0523 7.77476C18.7566 7.75059 18.3726 7.75001 17.8002 7.75001H6.2002ZM12 10.75C10.7574 10.75 9.75 11.7574 9.75 13C9.75 14.2426 10.7574 15.25 12 15.25C13.2426 15.25 14.25 14.2426 14.25 13C14.25 11.7574 13.2426 10.75 12 10.75ZM8.25 13C8.25 10.9289 9.92893 9.25001 12 9.25001C14.0711 9.25001 15.75 10.9289 15.75 13C15.75 15.0711 14.0711 16.75 12 16.75C9.92893 16.75 8.25 15.0711 8.25 13Z" fill="black"/>
</svg>
