<svg width="24" height="24" viewBox="0 0 24 24" fill="none" xmlns="http://www.w3.org/2000/svg">
<path fill-rule="evenodd" clip-rule="evenodd" d="M12.0006 7.24996C9.37728 7.24996 7.25063 9.37661 7.25063 12C7.25063 14.6233 9.37728 16.75 12.0006 16.75C14.4246 16.75 16.4244 14.9344 16.7145 12.5889C16.7186 12.5554 16.7224 12.5218 16.7259 12.4881C16.7422 12.3276 16.7506 12.1648 16.7506 12C16.7506 9.57668 14.936 7.57723 12.5914 7.28635L12.5405 7.2803C12.3633 7.26026 12.1832 7.24996 12.0006 7.24996ZM12.0006 8.74996C10.2057 8.74996 8.75063 10.205 8.75063 12C8.75063 13.7949 10.2057 15.25 12.0006 15.25C13.7956 15.25 15.2506 13.7949 15.2506 12C15.2506 10.205 13.7956 8.74996 12.0006 8.74996Z" fill="black"/>
<path fill-rule="evenodd" clip-rule="evenodd" d="M9.45877 1.88876C9.07502 1.80266 8.67841 1.80044 8.29486 1.88055C7.8581 1.97178 7.46093 2.20271 6.95569 2.49649L6.88251 2.53902C6.87621 2.54244 6.86997 2.54594 6.86377 2.54954L6.3761 2.83257L6.36527 2.83903L6.28215 2.88721C5.78096 3.17756 5.3859 3.40643 5.09132 3.738C4.83156 4.03037 4.63759 4.3745 4.52157 4.74732C4.38899 5.17336 4.39702 5.63261 4.40729 6.22002L4.40894 6.31531L4.41608 6.73997C4.41661 6.77157 4.41734 6.79732 4.41784 6.81533L4.41808 6.82403L4.41854 6.84455C4.41555 7.04239 4.36433 7.23887 4.26907 7.41654C4.26102 7.43156 4.25184 7.44761 4.2174 7.50723L4.19066 7.55361C4.17543 7.58004 4.17101 7.58773 4.16514 7.59717C4.05958 7.76726 3.91508 7.90925 3.74352 8.01155C3.73246 8.01815 3.72213 8.02386 3.68529 8.04426L3.65198 8.06271L3.29041 8.26308L3.20142 8.31234C2.68759 8.59657 2.28441 8.8196 1.98136 9.14841C1.71504 9.43737 1.51401 9.77994 1.39135 10.1528C1.25119 10.5788 1.25254 11.0406 1.25428 11.6316L1.25454 11.7273L1.25581 12.2894L1.25598 12.3765C1.257 12.9685 1.25779 13.4283 1.39882 13.8531C1.52142 14.2224 1.7208 14.5631 1.98635 14.8511C2.28767 15.1779 2.68715 15.3998 3.19709 15.6829L3.28543 15.732L3.64378 15.9314L3.67755 15.9502C3.71905 15.9732 3.73036 15.9795 3.74257 15.9869C3.91269 16.0893 4.05614 16.231 4.16074 16.4C4.17048 16.4158 4.18053 16.4331 4.21768 16.498L4.2421 16.5406C4.26148 16.5744 4.26704 16.5841 4.27306 16.5955C4.36418 16.768 4.41353 16.9608 4.4169 17.1583C4.41722 17.177 4.41704 17.1977 4.41582 17.27L4.40894 17.6775L4.4073 17.7723C4.39695 18.3622 4.38887 18.8234 4.5223 19.2508C4.63908 19.6249 4.83434 19.9695 5.09532 20.262C5.39218 20.5947 5.79055 20.8238 6.29747 21.1154L6.38691 21.1669L6.88061 21.4514L6.96908 21.5024C7.47455 21.7942 7.8713 22.0233 8.30699 22.1134C8.68955 22.1926 9.08489 22.1896 9.46667 22.1039C9.90056 22.0065 10.2937 21.7707 10.7936 21.4708L10.882 21.4178L11.2358 21.2059C11.2935 21.1714 11.3116 21.1608 11.3274 21.152C11.5015 21.0552 11.6952 21.0016 11.8938 20.9952C11.9111 20.9947 11.9299 20.9946 11.9997 20.9946C12.0697 20.9946 12.0884 20.9947 12.1057 20.9952C12.3054 21.0017 12.5007 21.0557 12.6745 21.1526C12.6861 21.1591 12.6991 21.1668 12.7459 21.1949L13.122 21.4207L13.2095 21.4733C13.7122 21.7756 14.1065 22.0128 14.5426 22.1106C14.9249 22.1964 15.3217 22.2 15.7067 22.1196C16.1434 22.0284 16.5411 21.7972 17.046 21.5036L17.1353 21.4517L17.6303 21.1644L17.719 21.113C18.2205 20.8225 18.6158 20.5934 18.9105 20.2618C19.17 19.9697 19.3643 19.6258 19.4804 19.2526C19.6118 18.8304 19.6038 18.3751 19.5937 17.8009L19.5919 17.6993L19.5845 17.2598C19.5835 17.1984 19.5835 17.1755 19.5838 17.1556C19.5868 16.9554 19.6376 16.7588 19.7319 16.583C19.7399 16.568 19.8025 16.4618 19.8369 16.4023C19.9425 16.2322 20.0872 16.09 20.2588 15.9877C20.2721 15.9797 20.2867 15.9716 20.3364 15.944L20.3495 15.9369L20.7111 15.7365L20.8014 15.6866C21.3144 15.4028 21.7179 15.1796 22.0207 14.851C22.287 14.5621 22.4879 14.2198 22.6105 13.847C22.7495 13.4244 22.7481 12.9661 22.7464 12.3869L22.7461 12.2844L22.7448 11.7102L22.7446 11.6081C22.7437 11.0254 22.743 10.5681 22.6031 10.1465C22.4801 9.77597 22.2794 9.43553 22.0147 9.14844C21.7139 8.82216 21.3143 8.60031 20.8063 8.31822L20.7166 8.26837L20.706 8.26258L20.3486 8.06379C20.2922 8.03242 20.2734 8.02159 20.2571 8.01184C20.086 7.90931 19.9423 7.76801 19.8376 7.59948C19.8323 7.59102 19.8287 7.58463 19.8169 7.56424L19.7845 7.50795C19.7496 7.44757 19.7402 7.43106 19.7321 7.41588C19.6377 7.23967 19.5868 7.04359 19.5838 6.8446C19.5835 6.82432 19.5835 6.80075 19.5845 6.73866L19.5917 6.3134L19.5934 6.21088C19.6037 5.63098 19.6117 5.17343 19.4792 4.7491C19.3624 4.37485 19.1669 4.03023 18.9061 3.7379C18.6087 3.4046 18.21 3.17528 17.7011 2.88248L17.615 2.83294L17.1212 2.54838L17.032 2.4969C16.527 2.20537 16.1301 1.97627 15.6946 1.88613C15.3113 1.80679 14.9161 1.81057 14.5351 1.8961C14.1016 1.99341 13.7095 2.22864 13.211 2.52769L13.1391 2.57077C13.1325 2.57444 13.126 2.57821 13.1196 2.58208L12.7657 2.79394C12.7068 2.82924 12.6896 2.83934 12.6743 2.84789C12.5008 2.94432 12.3069 2.99785 12.1075 3.00425C12.0902 3.00481 12.0715 3.0049 12.0016 3.0049C11.932 3.0049 11.912 3.00481 11.8949 3.00426C11.6951 2.99783 11.5008 2.94404 11.327 2.84714C11.316 2.84102 11.3066 2.83538 11.2731 2.81521L11.2359 2.79288L10.8798 2.57911L10.7911 2.52579C10.2892 2.22393 9.89447 1.98652 9.45877 1.88876ZM9.13038 3.35237C8.95698 3.31347 8.77693 3.31223 8.60155 3.34886C8.43262 3.38415 8.25726 3.47547 7.61936 3.8457C7.61313 3.84931 7.60686 3.85283 7.60053 3.85626L7.13453 4.12673L7.12366 4.1332C6.49141 4.50016 6.32638 4.60629 6.21267 4.73427C6.09491 4.86682 6.0067 5.02313 5.95382 5.19303C5.90258 5.35769 5.89638 5.55613 5.90873 6.29008L5.91587 6.71474C5.91625 6.73736 5.91672 6.75436 5.91722 6.77214L5.91752 6.78308C5.91807 6.80298 5.91888 6.83306 5.91838 6.86635C5.91185 7.30785 5.79792 7.73952 5.59102 8.12538C5.57034 8.16394 5.54859 8.20159 5.52097 8.24939L5.51627 8.25752L5.50098 8.28406C5.48348 8.31449 5.4661 8.34471 5.44906 8.3728L5.43963 8.38818C5.20775 8.76179 4.88979 9.07447 4.51175 9.29989C4.47799 9.32002 4.4414 9.34024 4.40263 9.36168L4.37905 9.37472L4.01748 9.57508C3.37086 9.93342 3.20164 10.0377 3.08435 10.165C2.96353 10.2961 2.87209 10.4518 2.81622 10.6216C2.76206 10.7862 2.75286 10.9856 2.75453 11.7238L2.75581 12.286C2.75747 13.0179 2.76803 13.2167 2.82242 13.3805C2.87875 13.5502 2.9697 13.7048 3.08912 13.8343C3.20577 13.9608 3.37304 14.0643 4.01465 14.4212L4.37299 14.6206L4.39803 14.6345C4.4403 14.6579 4.4797 14.6798 4.51636 14.7018C4.89087 14.9274 5.20624 15.239 5.43622 15.6106C5.46122 15.651 5.48466 15.692 5.51446 15.7441L5.51951 15.7529L5.53485 15.7796C5.55784 15.8196 5.58002 15.8583 5.59941 15.895C5.80164 16.2778 5.90934 16.7021 5.91668 17.1327C5.91752 17.1818 5.91671 17.2297 5.9156 17.2953L5.90872 17.7029C5.89629 18.4392 5.9026 18.6387 5.95415 18.8038C6.00725 18.9739 6.09594 19.1304 6.21453 19.2633C6.32948 19.3921 6.49652 19.4988 7.13583 19.8672L7.62954 20.1517C8.26689 20.519 8.4423 20.6096 8.61099 20.6446C8.78531 20.6806 8.965 20.6792 9.1381 20.6403C9.30612 20.6026 9.48024 20.5088 10.1114 20.1309L10.4653 19.919C10.5195 19.8865 10.5582 19.8635 10.5985 19.841C10.9808 19.6284 11.4079 19.5101 11.8457 19.496C11.8901 19.4946 11.9342 19.4946 11.9902 19.4946H12.0094C12.0655 19.4946 12.1095 19.4946 12.1539 19.496C12.5921 19.5101 13.0213 19.6286 13.4049 19.8424C13.4402 19.8621 13.4745 19.8828 13.5115 19.905L13.8941 20.1347C14.5276 20.515 14.7022 20.6091 14.871 20.647C15.0458 20.6862 15.2261 20.6876 15.4 20.6513C15.5688 20.616 15.7447 20.5244 16.3824 20.1543L16.8774 19.8671C17.5101 19.4999 17.6754 19.3935 17.7891 19.2655C17.9072 19.1327 17.9954 18.9764 18.0482 18.8069C18.0987 18.6447 18.1043 18.4496 18.0921 17.7245L18.0847 17.285C18.0836 17.2178 18.0833 17.1767 18.084 17.1334C18.0905 16.6941 18.202 16.262 18.41 15.8741C18.4306 15.8357 18.4524 15.7978 18.4799 15.7503L18.4847 15.742C18.5192 15.6823 18.5402 15.6472 18.5624 15.6113C18.6385 15.4886 18.724 15.3725 18.8178 15.2639C18.8376 15.241 18.8577 15.2184 18.8783 15.1962C19.0568 15.0027 19.2628 14.8352 19.4905 14.6994C19.5278 14.6772 19.5652 14.6564 19.6123 14.6304L19.6206 14.6258L19.6337 14.6186L19.984 14.4245C20.6309 14.066 20.8005 13.9617 20.9177 13.8345C21.0386 13.7033 21.1298 13.548 21.1857 13.3782C21.2391 13.2156 21.2477 13.0191 21.2461 12.2878L21.2448 11.7136C21.2431 10.9791 21.2337 10.7823 21.1795 10.6191C21.1235 10.4506 21.0322 10.2957 20.9119 10.1653C20.7961 10.0396 20.6297 9.9366 19.9962 9.58409L19.9856 9.57834L19.6194 9.37461C19.5621 9.34272 19.525 9.32179 19.4863 9.29863C19.1113 9.07399 18.7946 8.76326 18.5634 8.39098C18.5436 8.35913 18.5225 8.32237 18.5024 8.28729L18.4857 8.25824L18.4807 8.24969C18.4529 8.20151 18.4307 8.16312 18.4098 8.12408C18.2028 7.73765 18.0907 7.30671 18.084 6.86752C18.0833 6.82365 18.0836 6.78166 18.0847 6.71343L18.0919 6.28816C18.1042 5.55615 18.0985 5.35974 18.0474 5.19614C17.9944 5.02622 17.9056 4.86963 17.7869 4.7366C17.6718 4.60767 17.5047 4.50063 16.8661 4.13259L16.3723 3.84803C15.7348 3.48067 15.5593 3.38991 15.3906 3.355C15.2171 3.31908 15.0375 3.32065 14.8637 3.35968C14.6961 3.3973 14.5229 3.49056 13.8935 3.86743C13.887 3.87131 13.8804 3.8751 13.8738 3.87878L13.5345 4.08199C13.4824 4.11313 13.4434 4.13651 13.4032 4.15888C13.0201 4.37188 12.5926 4.48946 12.1556 4.50348C12.1112 4.50491 12.0672 4.5049 12.0112 4.5049H11.992C11.9364 4.5049 11.891 4.50491 11.8466 4.50348C11.4085 4.48939 10.9802 4.37115 10.5966 4.15733C10.5621 4.13807 10.5261 4.11639 10.4882 4.0936L10.4638 4.07892L10.1078 3.86515C9.92488 3.75536 9.7802 3.66938 9.66286 3.60171L9.63602 3.58628C9.36582 3.43141 9.24661 3.37845 9.13038 3.35237Z" fill="black"/>
</svg>
