<svg width="24" height="24" viewBox="0 0 24 24" fill="none" xmlns="http://www.w3.org/2000/svg">
<path fill-rule="evenodd" clip-rule="evenodd" d="M6.16978 5.25H17.8307C18.3648 5.24999 18.8105 5.24998 19.1745 5.27974C19.5543 5.31079 19.9107 5.37793 20.2479 5.54973C20.7645 5.81297 21.1864 6.23305 21.4505 6.75131C21.6222 7.08837 21.6893 7.44487 21.7203 7.82433C21.75 8.18817 21.75 8.63341 21.75 9.16649V14.8335C21.75 15.3666 21.75 15.8116 21.7203 16.1753C21.6893 16.5547 21.6222 16.9109 21.4505 17.2479C21.1868 17.7653 20.7653 18.1868 20.2479 18.4505C19.9109 18.6222 19.5547 18.6893 19.1753 18.7203C18.8116 18.75 18.3666 18.75 17.8336 18.75L5.99943 18.75C5.51298 18.7496 5.09985 18.7469 4.75507 18.7142C4.4017 18.6807 4.06823 18.612 3.7513 18.4505C3.23305 18.1864 2.81297 17.7645 2.54973 17.2479C2.37793 16.9107 2.31079 16.5543 2.27974 16.1745C2.24998 15.8105 2.24999 15.3648 2.25 14.8307V9.16978C2.24999 8.63561 2.24998 8.18966 2.27974 7.82534C2.31077 7.44541 2.37787 7.08861 2.54973 6.7513C2.81338 6.23386 3.23386 5.81338 3.7513 5.54973C4.08861 5.37787 4.44541 5.31077 4.82534 5.27974C5.18966 5.24998 5.63561 5.24999 6.16978 5.25ZM4.94745 6.77476C4.66016 6.79822 4.52281 6.84012 4.43229 6.88624C4.19709 7.00608 4.00608 7.19709 3.88624 7.43229C3.84012 7.52281 3.79822 7.66016 3.77476 7.94745C3.75058 8.24344 3.75 8.62778 3.75 9.2002V14.8002C3.75 15.3726 3.75058 15.7566 3.77476 16.0523C3.7982 16.3391 3.84006 16.4763 3.88624 16.5669C4.0065 16.8029 4.1979 16.9945 4.43229 17.114C4.51691 17.1571 4.64341 17.1969 4.89668 17.2209C5.0347 17.234 5.19448 17.2412 5.38821 17.2452C5.58978 16.7122 5.99209 16.2754 6.46269 15.9617C7.14491 15.5069 8.04417 15.25 9 15.25C9.95584 15.25 10.8551 15.5069 11.5373 15.9618C12.0093 16.2764 12.4126 16.7148 12.6136 17.25H17.8031C18.3744 17.25 18.7578 17.2494 19.0531 17.2253C19.3395 17.2019 19.4765 17.16 19.5669 17.114C19.8021 16.9941 19.9941 16.8021 20.114 16.5669C20.16 16.4765 20.2019 16.3395 20.2253 16.0531C20.2494 15.7578 20.25 15.3744 20.25 14.8031V9.19691C20.25 8.62558 20.2494 8.24198 20.2253 7.9465C20.2018 7.65973 20.16 7.52263 20.114 7.43229C19.9945 7.1979 19.8029 7.0065 19.5669 6.88624C19.4763 6.84006 19.3391 6.7982 19.0523 6.77476C18.7566 6.75058 18.3726 6.75 17.8002 6.75H6.2002C5.62777 6.75 5.24344 6.75058 4.94745 6.77476ZM10.7634 17.25C10.7447 17.2366 10.7253 17.2232 10.7053 17.2098C10.3017 16.9408 9.70101 16.75 9 16.75C8.299 16.75 7.69829 16.9408 7.29472 17.2098C7.2747 17.2232 7.25533 17.2366 7.2366 17.25H10.7634ZM9 9.75C8.30965 9.75 7.75 10.3096 7.75 11C7.75 11.6904 8.30965 12.25 9 12.25C9.69036 12.25 10.25 11.6904 10.25 11C10.25 10.3096 9.69036 9.75 9 9.75ZM6.25 11C6.25 9.48122 7.48122 8.25 9 8.25C10.5188 8.25 11.75 9.48122 11.75 11C11.75 12.5188 10.5188 13.75 9 13.75C7.48122 13.75 6.25 12.5188 6.25 11ZM14.25 11C14.25 10.5858 14.5858 10.25 15 10.25H18C18.4142 10.25 18.75 10.5858 18.75 11C18.75 11.4142 18.4142 11.75 18 11.75H15C14.5858 11.75 14.25 11.4142 14.25 11ZM13.25 14C13.25 13.5858 13.5858 13.25 14 13.25H18C18.4142 13.25 18.75 13.5858 18.75 14C18.75 14.4142 18.4142 14.75 18 14.75H14C13.5858 14.75 13.25 14.4142 13.25 14Z" fill="#7F7A84"/>
</svg>
