<svg width="16" height="16" viewBox="0 0 16 16" fill="none" xmlns="http://www.w3.org/2000/svg">
<path fill-rule="evenodd" clip-rule="evenodd" d="M0.6875 8C0.6875 3.96142 3.96142 0.6875 8 0.6875C12.0386 0.6875 15.3125 3.96142 15.3125 8C15.3125 12.0386 12.0386 15.3125 8 15.3125C3.96142 15.3125 0.6875 12.0386 0.6875 8ZM8 1.8125C4.58274 1.8125 1.8125 4.58274 1.8125 8C1.8125 11.4173 4.58274 14.1875 8 14.1875C11.4173 14.1875 14.1875 11.4173 14.1875 8C14.1875 4.58274 11.4173 1.8125 8 1.8125ZM8 7.29549L6.14775 9.14775C5.92808 9.36742 5.57192 9.36742 5.35225 9.14775C5.13258 8.92808 5.13258 8.57192 5.35225 8.35225L7.60225 6.10225C7.82192 5.88258 8.17808 5.88258 8.39775 6.10225L10.6477 8.35225C10.8674 8.57192 10.8674 8.92808 10.6477 9.14775C10.4281 9.36742 10.0719 9.36742 9.85225 9.14775L8 7.29549Z" fill="#7F7A84"/>
</svg>
