<svg width="41" height="40" viewBox="0 0 41 40" fill="none" xmlns="http://www.w3.org/2000/svg">
<path fill-rule="evenodd" clip-rule="evenodd" d="M10.783 7.08331H30.2178C31.108 7.0833 31.8508 7.08328 32.4575 7.13288C33.0905 7.18463 33.6845 7.29653 34.2465 7.58287C35.1075 8.0216 35.8107 8.72173 36.2508 9.58549C36.537 10.1473 36.6488 10.7414 36.7005 11.3739C36.75 11.9803 36.75 12.7223 36.75 13.6108V26.39C36.75 27.2784 36.75 28.0202 36.7005 28.6263C36.6488 29.2586 36.537 29.8523 36.2508 30.4139C35.8111 31.277 35.1082 31.9784 34.2465 32.4175C33.6848 32.7036 33.0911 32.8154 32.4588 32.8671C31.8527 32.9167 31.111 32.9167 30.2226 32.9166H10.7775C9.88901 32.9167 9.14695 32.9167 8.54055 32.8671C7.90811 32.8154 7.31395 32.7037 6.75217 32.4175C5.88906 31.9777 5.18861 31.2756 4.74955 30.4139C4.46318 29.8519 4.35131 29.2576 4.29957 28.6245C4.24997 28.0176 4.24998 27.2746 4.25 26.3844V13.6163C4.24998 12.726 4.24997 11.9828 4.29956 11.3755C4.35128 10.7423 4.46311 10.1477 4.74955 9.58549C5.18897 8.72308 5.88976 8.02229 6.75217 7.58287C7.31435 7.29642 7.90901 7.1846 8.54223 7.13288C9.14944 7.08328 9.89268 7.0833 10.783 7.08331ZM8.74574 9.62458C8.26693 9.66369 8.03801 9.73352 7.88715 9.81038C7.49515 10.0101 7.17681 10.3285 6.97707 10.7205C6.9002 10.8713 6.83038 11.1002 6.79127 11.5791C6.75097 12.0724 6.75 12.7129 6.75 13.667V13.75H34.25V13.6615C34.25 12.7093 34.249 12.0699 34.2088 11.5775C34.1697 11.0995 34.1 10.871 34.0233 10.7205C33.8242 10.3298 33.5049 10.0108 33.1115 9.81038C32.9604 9.73341 32.7318 9.66365 32.2538 9.62457C31.7611 9.58429 31.1211 9.58331 30.167 9.58331H10.8337C9.87963 9.58331 9.23907 9.58429 8.74574 9.62458ZM34.25 16.25H6.75V17.0833H34.25V16.25ZM34.25 19.5833H6.75V26.3336C6.75 27.2877 6.75097 27.9279 6.79126 28.4209C6.83035 28.8993 6.90014 29.128 6.97707 29.279C7.17717 29.6717 7.49585 29.9906 7.88715 30.1899C8.03771 30.2667 8.26622 30.3364 8.74416 30.3754C9.23664 30.4157 9.87597 30.4166 10.8282 30.4166H30.1718C31.1241 30.4166 31.763 30.4157 32.2551 30.3754C32.7325 30.3364 32.9608 30.2667 33.1115 30.1899C33.5042 29.9899 33.8239 29.6703 34.0233 29.279C34.1001 29.1283 34.1698 28.9 34.2088 28.4226C34.249 27.9305 34.25 27.2915 34.25 26.3393V19.5833ZM10.9167 25C10.9167 24.3096 11.4763 23.75 12.1667 23.75H18.8333C19.5237 23.75 20.0833 24.3096 20.0833 25C20.0833 25.6903 19.5237 26.25 18.8333 26.25H12.1667C11.4763 26.25 10.9167 25.6903 10.9167 25Z" fill="black"/>
</svg>
