<svg width="26" height="26" viewBox="0 0 26 26" fill="none" xmlns="http://www.w3.org/2000/svg">
<path fill-rule="evenodd" clip-rule="evenodd" d="M13 2C6.92487 2 2 6.92487 2 13C2 16.3927 3.53597 19.4267 5.95047 21.4445C7.79589 19.7222 10.2753 18.6667 13 18.6667C15.7248 18.6667 18.204 19.7223 20.0494 21.4446C22.464 19.4268 24 16.3928 24 13C24 6.92487 19.0751 2 13 2ZM18.3523 22.6123C16.9038 21.3972 15.0377 20.6667 13 20.6667C10.9623 20.6667 9.09608 21.3971 7.64762 22.6123C9.23178 23.4963 11.0571 24 13 24C14.9429 24 16.7681 23.4963 18.3523 22.6123ZM0 13C0 5.8203 5.8203 0 13 0C20.1797 0 26 5.8203 26 13C26 20.1797 20.1797 26 13 26C5.8203 26 0 20.1797 0 13ZM13 8.66667C11.3431 8.66667 10 10.0098 10 11.6667C10 13.3235 11.3431 14.6667 13 14.6667C14.6569 14.6667 16 13.3235 16 11.6667C16 10.0098 14.6569 8.66667 13 8.66667ZM8 11.6667C8 8.90524 10.2386 6.66667 13 6.66667C15.7614 6.66667 18 8.90524 18 11.6667C18 14.4281 15.7614 16.6667 13 16.6667C10.2386 16.6667 8 14.4281 8 11.6667Z" fill="#7F7A84"/>
</svg>
