<svg width="26" height="34" viewBox="0 0 26 34" fill="none" xmlns="http://www.w3.org/2000/svg">
<path fill-rule="evenodd" clip-rule="evenodd" d="M6.61695 0.750001L14.1294 0.750001C14.3304 0.750001 14.5138 0.750001 14.6787 0.751502C15.1624 0.755904 15.5871 0.771788 16.0239 0.876639C16.4925 0.989145 16.9392 1.17496 17.3484 1.42574C17.8137 1.71084 18.2023 2.09989 18.695 2.59319C18.7231 2.62133 18.7516 2.6498 18.7804 2.67862L23.9895 7.88776C24.0162 7.91444 24.0426 7.9408 24.0687 7.96686C24.5662 8.4639 24.9545 8.85184 25.2407 9.31887C25.4914 9.72795 25.6775 10.1749 25.79 10.6437C25.8895 11.0582 25.9093 11.4619 25.9149 11.9169C25.9167 11.9444 25.9176 11.9721 25.9176 12C25.9176 12.0198 25.9172 12.0394 25.9163 12.0589C25.9173 12.2066 25.9173 12.3681 25.9173 12.5428V26.7234C25.9173 27.6118 25.9174 28.3536 25.8678 28.9597C25.8161 29.5919 25.7043 30.1857 25.4181 30.7473C24.9784 31.6103 24.2756 32.3117 23.4138 32.7508C22.8522 33.037 22.2585 33.1488 21.6262 33.2005C21.02 33.25 20.2783 33.25 19.3898 33.25L6.61153 33.25C5.72303 33.25 4.98096 33.25 4.37455 33.2005C3.74211 33.1488 3.14794 33.037 2.58616 32.7508C1.72305 32.311 1.0226 31.609 0.58354 30.7473C0.297159 30.1852 0.18529 29.591 0.133553 28.9579C0.0839526 28.3509 0.0839673 27.608 0.083985 26.7177V7.28297C0.0839673 6.39268 0.0839526 5.64944 0.133548 5.04223C0.185268 4.40901 0.297095 3.81435 0.583539 3.25217C1.02296 2.38976 1.72375 1.68897 2.58616 1.24956C3.14834 0.963111 3.743 0.851283 4.37621 0.799564C4.98343 0.749968 5.72666 0.749983 6.61695 0.750001ZM23.1799 10.75C23.1578 10.7077 23.1342 10.666 23.1091 10.6251C22.998 10.4438 22.8391 10.2729 22.2217 9.65552L17.0126 4.44638C16.3943 3.82812 16.223 3.66812 16.0422 3.55734C16.0013 3.53228 15.9596 3.50867 15.9173 3.48656V6.66667C15.9173 7.62072 15.9183 8.2609 15.9586 8.75385C15.9977 9.23213 16.0674 9.46083 16.1444 9.61183C16.3447 10.0049 16.6636 10.3241 17.0545 10.5233C17.205 10.6 17.4335 10.6697 17.9115 10.7088C18.404 10.749 19.0433 10.75 19.9955 10.75H23.1799ZM13.4173 3.25V6.71742C13.4173 7.60765 13.4173 8.35058 13.4669 8.95749C13.5186 9.59056 13.6305 10.1848 13.9169 10.7468C14.3557 11.6081 15.056 12.3108 15.9195 12.7508C16.4813 13.037 17.0754 13.1488 17.7079 13.2005C18.3143 13.25 19.0563 13.25 19.9448 13.25H23.4173V26.6726C23.4173 27.6249 23.4163 28.2638 23.3761 28.7559C23.3371 29.2333 23.2674 29.4616 23.1906 29.6123C22.9912 30.0037 22.6715 30.3232 22.2788 30.5233C22.1281 30.6001 21.8998 30.6697 21.4224 30.7088C20.9303 30.749 20.2914 30.75 19.3391 30.75L6.66222 30.75C5.70999 30.75 5.07064 30.749 4.57816 30.7088C4.10021 30.6697 3.8717 30.6 3.72113 30.5233C3.32983 30.3239 3.01115 30.005 2.81106 29.6123C2.73412 29.4613 2.66434 29.2326 2.62525 28.7543C2.58496 28.2613 2.58399 27.621 2.58399 26.667V7.33366C2.58399 6.37962 2.58496 5.73907 2.62525 5.24574C2.66436 4.76693 2.73419 4.53801 2.81106 4.38715C3.01079 3.99515 3.32913 3.67681 3.72114 3.47707C3.872 3.4002 4.10091 3.33037 4.57973 3.29127C5.07305 3.25097 5.71361 3.25 6.66764 3.25H13.4173Z" fill="black"/>
</svg>
