<svg width="41" height="40" viewBox="0 0 41 40" fill="none" xmlns="http://www.w3.org/2000/svg">
<path fill-rule="evenodd" clip-rule="evenodd" d="M14.7169 7.44949C15.205 7.93765 15.205 8.7291 14.7169 9.21726L11.8508 12.0834H32.1663C32.8567 12.0834 33.4163 12.643 33.4163 13.3334C33.4163 14.0237 32.8567 14.5834 32.1663 14.5834H11.8508L14.7169 17.4495C15.205 17.9376 15.205 18.7291 14.7169 19.2173C14.2287 19.7054 13.4373 19.7054 12.9491 19.2173L7.94912 14.2173C7.46097 13.7291 7.46097 12.9376 7.94912 12.4495L12.9491 7.44949C13.4373 6.96134 14.2287 6.96134 14.7169 7.44949ZM26.2825 20.7828C26.7706 20.2947 27.5621 20.2947 28.0502 20.7828L33.0502 25.7828C33.5384 26.271 33.5384 27.0624 33.0502 27.5506L28.0502 32.5506C27.5621 33.0387 26.7706 33.0387 26.2825 32.5506C25.7943 32.0624 25.7943 31.271 26.2825 30.7828L29.1486 27.9167H8.83301C8.14265 27.9167 7.58301 27.3571 7.58301 26.6667C7.58301 25.9764 8.14265 25.4167 8.83301 25.4167H29.1486L26.2825 22.5506C25.7943 22.0624 25.7943 21.271 26.2825 20.7828Z" fill="black"/>
</svg>
