<svg width="24" height="24" viewBox="0 0 24 24" fill="none" xmlns="http://www.w3.org/2000/svg">
<path fill-rule="evenodd" clip-rule="evenodd" d="M14.25 4C14.25 3.58579 14.5858 3.25 15 3.25H20C20.4142 3.25 20.75 3.58579 20.75 4V9C20.75 9.41421 20.4142 9.75 20 9.75C19.5858 9.75 19.25 9.41421 19.25 9V5.81066L13.5303 11.5303C13.2374 11.8232 12.7626 11.8232 12.4697 11.5303C12.1768 11.2374 12.1768 10.7626 12.4697 10.4697L18.1893 4.75H15C14.5858 4.75 14.25 4.41421 14.25 4ZM8.16978 4.25L10.0002 4.25C10.4144 4.25 10.7502 4.58579 10.7502 5C10.7502 5.41421 10.4144 5.75 10.0002 5.75H8.2002C7.62777 5.75 7.24344 5.75058 6.94745 5.77476C6.66016 5.79822 6.52281 5.84012 6.43229 5.88624C6.19709 6.00608 6.00608 6.19709 5.88624 6.43229C5.84012 6.52281 5.79822 6.66016 5.77476 6.94745C5.75058 7.24344 5.75 7.62777 5.75 8.2002V15.8002C5.75 16.3726 5.75058 16.7568 5.77476 17.0526C5.79821 17.3396 5.84008 17.4768 5.88624 17.5674C6.0063 17.803 6.19751 17.9943 6.43229 18.114C6.52263 18.16 6.65973 18.2018 6.9465 18.2253C7.24198 18.2494 7.62558 18.25 8.19691 18.25H15.8031C16.3744 18.25 16.7578 18.2494 17.0531 18.2253C17.3395 18.2019 17.4765 18.16 17.5669 18.114C17.8023 17.9941 17.9942 17.8021 18.114 17.5671C18.16 17.4767 18.2018 17.3397 18.2253 17.0532C18.2494 16.7579 18.25 16.3744 18.25 15.8031V14C18.25 13.5858 18.5858 13.25 19 13.25C19.4142 13.25 19.75 13.5858 19.75 14V15.8335C19.75 16.3666 19.75 16.8117 19.7203 17.1754C19.6893 17.5548 19.6222 17.9111 19.4505 18.2481C19.1868 18.7657 18.7652 19.1869 18.2479 19.4505C17.9109 19.6222 17.5547 19.6893 17.1753 19.7203C16.8116 19.75 16.3666 19.75 15.8336 19.75H8.16649C7.63341 19.75 7.18817 19.75 6.82433 19.7203C6.44487 19.6893 6.08837 19.6222 5.7513 19.4505C5.23344 19.1866 4.81317 18.7654 4.54973 18.2484C4.3779 17.9111 4.31078 17.5546 4.27974 17.1747C4.24998 16.8106 4.24999 16.3648 4.25 15.8306V8.16978C4.24999 7.63561 4.24998 7.18966 4.27974 6.82534C4.31077 6.44541 4.37787 6.08861 4.54973 5.7513C4.81338 5.23386 5.23386 4.81338 5.7513 4.54973C6.08861 4.37787 6.44541 4.31077 6.82534 4.27974C7.18966 4.24998 7.63561 4.24999 8.16978 4.25Z" fill="black"/>
</svg>
