<svg width="30" height="28" viewBox="0 0 30 28" fill="none" xmlns="http://www.w3.org/2000/svg">
<path fill-rule="evenodd" clip-rule="evenodd" d="M15.0004 7.66662C11.5026 7.66662 8.66708 10.5021 8.66708 13.9999C8.66708 17.4978 11.5026 20.3333 15.0004 20.3333C18.2323 20.3333 20.8988 17.9125 21.2855 14.7852C21.2911 14.7405 21.2961 14.6957 21.3007 14.6508C21.3226 14.4368 21.3337 14.2197 21.3337 13.9999C21.3337 10.7689 18.9142 8.10297 15.7882 7.71513L15.7202 7.70707C15.484 7.68035 15.2438 7.66662 15.0004 7.66662ZM15.0004 9.66662C12.6072 9.66662 10.6671 11.6067 10.6671 13.9999C10.6671 16.3932 12.6072 18.3333 15.0004 18.3333C17.3936 18.3333 19.3337 16.3932 19.3337 13.9999C19.3337 11.6067 17.3936 9.66662 15.0004 9.66662Z" fill="#FE0103"/>
<path fill-rule="evenodd" clip-rule="evenodd" d="M11.6113 0.518348C11.0996 0.403549 10.5708 0.400586 10.0594 0.507402C9.47704 0.629038 8.94749 0.936946 8.27382 1.32865L8.17625 1.38536C8.16786 1.38991 8.15953 1.39459 8.15126 1.39939L7.50105 1.77677L7.4866 1.78538L7.37577 1.84962C6.70752 2.23675 6.18077 2.54191 5.788 2.984C5.44165 3.37383 5.18303 3.83266 5.02833 4.32976C4.85155 4.89782 4.86226 5.51014 4.87596 6.29336L4.87816 6.42042L4.88768 6.98663C4.88839 7.02876 4.88935 7.0631 4.89003 7.0871L4.89035 7.09871L4.89096 7.12606C4.88697 7.38986 4.81869 7.65183 4.69166 7.88872C4.68093 7.90874 4.6687 7.93014 4.62278 8.00964L4.58712 8.07148C4.56682 8.10672 4.56091 8.11697 4.5531 8.12956C4.41234 8.35635 4.21969 8.54567 3.99093 8.68207C3.97618 8.69086 3.96242 8.69848 3.9133 8.72568L3.86888 8.75028L3.38679 9.01743L3.26813 9.08311C2.58302 9.46209 2.04546 9.75946 1.64139 10.1979C1.28629 10.5832 1.01826 11.0399 0.854711 11.537C0.667822 12.1051 0.669629 12.7208 0.671942 13.5088L0.672288 13.6363L0.673991 14.3858L0.674213 14.502C0.675575 15.2913 0.676633 15.9044 0.864661 16.4708C1.02813 16.9632 1.29397 17.4175 1.64805 17.8015C2.0498 18.2372 2.58244 18.533 3.26236 18.9106L3.38015 18.976L3.85794 19.2418L3.90297 19.2669C3.95831 19.2976 3.97339 19.306 3.98967 19.3158C4.21649 19.4524 4.40776 19.6414 4.54723 19.8667C4.56022 19.8877 4.57362 19.9108 4.62315 19.9974L4.6557 20.0542C4.68154 20.0992 4.68896 20.1122 4.69699 20.1274C4.81847 20.3574 4.88429 20.6144 4.88877 20.8777C4.8892 20.9026 4.88896 20.9303 4.88733 21.0267L4.87816 21.57L4.87597 21.6964C4.86218 22.483 4.8514 23.0978 5.0293 23.6677C5.18502 24.1665 5.44536 24.626 5.79333 25.016C6.18915 25.4596 6.72031 25.7651 7.39621 26.1539L7.51545 26.2225L8.17372 26.6018L8.29168 26.6699C8.96564 27.059 9.49463 27.3643 10.0756 27.4846C10.5856 27.5901 11.1128 27.5861 11.6218 27.4718C12.2003 27.342 12.7245 27.0275 13.3911 26.6277L13.5089 26.5571L13.9807 26.2746C14.0576 26.2285 14.0817 26.2144 14.1027 26.2027C14.335 26.0736 14.5932 26.0021 14.858 25.9936C14.8811 25.9929 14.9061 25.9928 14.9992 25.9928C15.0925 25.9928 15.1174 25.9929 15.1405 25.9936C15.4068 26.0022 15.6671 26.0743 15.899 26.2035C15.9143 26.2121 15.9317 26.2224 15.9941 26.2599L16.4956 26.561L16.6122 26.631C17.2826 27.0342 17.8083 27.3503 18.3897 27.4808C18.8994 27.5952 19.4285 27.6 19.9418 27.4928C20.5241 27.3712 21.0544 27.0629 21.7276 26.6714L21.8467 26.6022L22.5067 26.2192L22.6249 26.1507C23.2935 25.7633 23.8207 25.4579 24.2136 25.0157C24.5596 24.6263 24.8186 24.1677 24.9735 23.6701C25.1487 23.1071 25.138 22.5002 25.1245 21.7345L25.1221 21.5991L25.1122 21.0131C25.1109 20.9312 25.1109 20.9007 25.1113 20.8742C25.1152 20.6072 25.1831 20.3451 25.3088 20.1106C25.3195 20.0907 25.403 19.9491 25.4488 19.8697C25.5895 19.643 25.7825 19.4534 26.0113 19.317C26.0291 19.3063 26.0485 19.2954 26.1148 19.2586L26.1323 19.2492L26.6143 18.982L26.7347 18.9154C27.4188 18.537 27.9567 18.2395 28.3605 17.8014C28.7156 17.4161 28.9834 16.9598 29.1469 16.4627C29.3323 15.8992 29.3304 15.2881 29.3281 14.5159L29.3277 14.3791L29.3259 13.6136L29.3257 13.4774C29.3245 12.7006 29.3236 12.0908 29.137 11.5286C28.973 11.0346 28.7055 10.5807 28.3525 10.1979C27.9514 9.76288 27.4187 9.46708 26.7413 9.09097L26.6217 9.02449L26.6075 9.01677L26.1311 8.75172C26.0559 8.70989 26.0308 8.69545 26.0091 8.68245C25.7809 8.54575 25.5893 8.35735 25.4497 8.13264C25.4427 8.12135 25.4378 8.11284 25.4222 8.08565L25.3789 8.0106C25.3324 7.93009 25.3199 7.90808 25.309 7.88784C25.1832 7.65289 25.1154 7.39146 25.1113 7.12613C25.1109 7.09909 25.1109 7.06767 25.1122 6.98488L25.1218 6.41787L25.1242 6.28117C25.1378 5.50797 25.1485 4.8979 24.9719 4.33213C24.8161 3.83313 24.5555 3.37363 24.2077 2.98387C23.8111 2.53947 23.2796 2.23371 22.601 1.84331L22.4862 1.77725L21.8278 1.39783L21.7089 1.3292C21.0355 0.940495 20.5064 0.635024 19.9257 0.514844C19.4146 0.40906 18.8877 0.414094 18.3797 0.52814C17.8018 0.657884 17.2789 0.97152 16.6142 1.37025L16.5184 1.4277C16.5096 1.43259 16.5009 1.43762 16.4923 1.44277L16.0205 1.72526C15.9419 1.77232 15.9191 1.78579 15.8986 1.79719C15.6673 1.92576 15.4088 1.99714 15.1429 2.00567C15.1198 2.00641 15.0949 2.00653 15.0017 2.00653C14.9089 2.00653 14.8822 2.00641 14.8594 2.00567C14.5931 1.99711 14.334 1.92539 14.1022 1.79618C14.0876 1.78802 14.0751 1.78051 14.0303 1.75361L13.9808 1.72384L13.506 1.43881L13.3877 1.36771C12.7185 0.965243 12.1922 0.64869 11.6113 0.518348ZM11.1734 2.46983C10.9422 2.41796 10.7021 2.41631 10.4683 2.46515C10.2431 2.5122 10.0093 2.63395 9.15872 3.12759C9.15042 3.13241 9.14205 3.13711 9.13362 3.14168L8.51228 3.5023L8.49779 3.51094C7.65478 4.00021 7.43475 4.14172 7.28314 4.31237C7.12612 4.4891 7.0085 4.6975 6.938 4.92405C6.86968 5.14358 6.86141 5.40818 6.87787 6.38677L6.8874 6.95299C6.88791 6.98314 6.88854 7.00582 6.8892 7.02952L6.8896 7.0441C6.89033 7.07064 6.89141 7.11075 6.89075 7.15513C6.88204 7.7438 6.73013 8.31936 6.45426 8.83384C6.42669 8.88525 6.39769 8.93545 6.36087 8.99918L6.35461 9.01002L6.33422 9.04542C6.31089 9.08598 6.28771 9.12627 6.26499 9.16373L6.25241 9.18424C5.94324 9.68238 5.51929 10.0993 5.01523 10.3999C4.97023 10.4267 4.92144 10.4537 4.86974 10.4822L4.83831 10.4996L4.35622 10.7668C3.49406 11.2446 3.26843 11.3836 3.11204 11.5533C2.95094 11.7281 2.82902 11.9357 2.75454 12.1621C2.68232 12.3816 2.67005 12.6475 2.67228 13.6318L2.67399 14.3813C2.6762 15.3572 2.69028 15.6222 2.7628 15.8407C2.83791 16.0669 2.95918 16.2731 3.1184 16.4458C3.27394 16.6145 3.49695 16.7524 4.35244 17.2283L4.83023 17.4941L4.86361 17.5126C4.91997 17.5439 4.9725 17.573 5.02139 17.6025C5.52073 17.9032 5.94123 18.3187 6.24786 18.8142C6.2812 18.868 6.31246 18.9227 6.35219 18.9921L6.35891 19.0038L6.37937 19.0395C6.41002 19.0928 6.4396 19.1443 6.46545 19.1933C6.73509 19.7038 6.8787 20.2695 6.88848 20.8436C6.8896 20.9091 6.88852 20.9729 6.88705 21.0604L6.87787 21.6038C6.8613 22.5856 6.8697 22.8516 6.93844 23.0717C7.00924 23.2985 7.12749 23.5072 7.28561 23.6844C7.43888 23.8562 7.66161 23.9984 8.51402 24.4896L9.17229 24.869C10.0221 25.3587 10.256 25.4795 10.4809 25.5261C10.7133 25.5742 10.9529 25.5722 11.1837 25.5204C11.4077 25.4701 11.6399 25.3451 12.4815 24.8411L12.9532 24.5587C13.0256 24.5153 13.0771 24.4846 13.1309 24.4547C13.6407 24.1713 14.21 24.0134 14.7939 23.9947C14.853 23.9928 14.9118 23.9928 14.9865 23.9928H15.0121C15.0869 23.9928 15.1456 23.9928 15.2048 23.9947C15.789 24.0135 16.3613 24.1715 16.8727 24.4566C16.9199 24.4829 16.9656 24.5103 17.0149 24.5399L17.5251 24.8462C18.3697 25.3533 18.6025 25.4788 18.8275 25.5293C19.0606 25.5816 19.301 25.5835 19.5329 25.5351C19.758 25.4881 19.9926 25.3659 20.8428 24.8724L21.5028 24.4894C22.3463 23.9998 22.5667 23.8581 22.7184 23.6873C22.8758 23.5102 22.9935 23.3018 23.0638 23.0758C23.1311 22.8595 23.1387 22.5995 23.1224 21.6327L23.1125 21.0467C23.111 20.9571 23.1107 20.9023 23.1115 20.8445C23.1202 20.2588 23.2689 19.6826 23.5462 19.1655C23.5737 19.1142 23.6028 19.0638 23.6395 19.0004L23.6458 18.9894C23.6919 18.9097 23.7198 18.8629 23.7495 18.8151C23.851 18.6515 23.9649 18.4967 24.0899 18.3519C24.1163 18.3213 24.1432 18.2912 24.1706 18.2615C24.4086 18.0036 24.6833 17.7802 24.9869 17.5992C25.0366 17.5696 25.0865 17.5419 25.1493 17.5071L25.1603 17.501L25.1779 17.4915L25.6449 17.2327C26.5074 16.7547 26.7335 16.6155 26.8899 16.4459C27.051 16.2711 27.1726 16.064 27.2471 15.8376C27.3184 15.6209 27.3299 15.3588 27.3277 14.3837L27.3259 13.6181C27.3237 12.6388 27.3111 12.3765 27.2388 12.1588C27.1643 11.9341 27.0425 11.7276 26.8822 11.5537C26.7277 11.3861 26.5058 11.2488 25.6611 10.7788L25.6471 10.7711L25.1588 10.4995C25.0824 10.457 25.0329 10.429 24.9813 10.3982C24.4813 10.0987 24.0591 9.68434 23.7508 9.18797C23.7244 9.14551 23.6963 9.09649 23.6694 9.04972L23.6471 9.01099L23.6405 8.99958C23.6034 8.93534 23.5738 8.88416 23.546 8.83211C23.27 8.31687 23.1205 7.74228 23.1115 7.15669C23.1107 7.0982 23.111 7.04222 23.1125 6.95124L23.1221 6.38422C23.1385 5.40821 23.1309 5.14633 23.0628 4.92819C22.992 4.70163 22.8737 4.49284 22.7154 4.31547C22.562 4.14356 22.3392 4.00084 21.4877 3.51012L20.8293 3.13071C19.9793 2.6409 19.7453 2.51988 19.5204 2.47334C19.289 2.42544 19.0496 2.42753 18.8178 2.47957C18.5943 2.52974 18.3634 2.65408 17.5242 3.15657C17.5155 3.16175 17.5068 3.1668 17.498 3.17171L17.0455 3.44265C16.9762 3.48418 16.9241 3.51535 16.8705 3.54517C16.3597 3.82917 15.7897 3.98594 15.207 4.00464C15.1479 4.00654 15.0891 4.00654 15.0145 4.00653H14.9889C14.9148 4.00654 14.8542 4.00654 14.7951 4.00464C14.2109 3.98585 13.6399 3.82819 13.1284 3.54311C13.0823 3.51742 13.0343 3.48852 12.9839 3.45814L12.9514 3.43856L12.4766 3.15353C12.2327 3.00715 12.0398 2.89251 11.8834 2.80228L11.8476 2.78171C11.4873 2.57522 11.3284 2.5046 11.1734 2.46983Z" fill="#FE0103"/>
</svg>