<svg width="40" height="40" viewBox="0 0 40 40" fill="none" xmlns="http://www.w3.org/2000/svg">
<path fill-rule="evenodd" clip-rule="evenodd" d="M10.283 7.08331H29.7178C30.608 7.0833 31.3508 7.08328 31.9575 7.13288C32.5905 7.18463 33.1845 7.29653 33.7465 7.58287C34.6075 8.0216 35.3107 8.72173 35.7508 9.58549C36.037 10.1473 36.1488 10.7414 36.2005 11.3739C36.25 11.9803 36.25 12.7223 36.25 13.6108V26.3892C36.25 27.2776 36.25 28.0194 36.2005 28.6255C36.1488 29.2578 36.037 29.8515 35.7508 30.4131C35.3114 31.2755 34.6089 31.978 33.7465 32.4175C33.1848 32.7036 32.5911 32.8154 31.9588 32.8671C31.3527 32.9167 30.611 32.9167 29.7226 32.9166H10.2775C9.38901 32.9167 8.64695 32.9167 8.04054 32.8671C7.40811 32.8154 6.81395 32.7037 6.25217 32.4175C5.38841 31.9773 4.68828 31.2742 4.24955 30.4131C3.96322 29.8512 3.85132 29.2572 3.79957 28.6242C3.74997 28.0174 3.74998 27.2746 3.75 26.3844V13.6163C3.74998 12.726 3.74997 11.9828 3.79956 11.3755C3.85128 10.7423 3.96311 10.1477 4.24955 9.58549C4.68897 8.72308 5.38977 8.02229 6.25217 7.58287C6.81435 7.29642 7.40901 7.1846 8.04223 7.13288C8.64944 7.08328 9.39268 7.0833 10.283 7.08331ZM8.24574 9.62458C7.76693 9.66369 7.53801 9.73352 7.38715 9.81038C6.99515 10.0101 6.67681 10.3285 6.47707 10.7205C6.4002 10.8713 6.33038 11.1002 6.29127 11.5791C6.25097 12.0724 6.25 12.7129 6.25 13.667V26.3336C6.25 27.2877 6.25097 27.9277 6.29126 28.4205C6.33034 28.8985 6.4001 29.1271 6.47707 29.2782C6.6775 29.6715 6.9965 29.9909 7.38715 30.1899C7.53771 30.2667 7.76622 30.3364 8.24416 30.3754C8.73664 30.4157 9.37597 30.4166 10.3282 30.4166H29.6718C30.6241 30.4166 31.263 30.4157 31.7551 30.3754C32.2325 30.3364 32.4608 30.2667 32.6115 30.1899C33.0035 29.9902 33.3236 29.6702 33.5233 29.2782C33.6001 29.1274 33.6698 28.8992 33.7088 28.4217C33.749 27.9297 33.75 27.2907 33.75 26.3385V13.6615C33.75 12.7093 33.749 12.0699 33.7088 11.5775C33.6697 11.0995 33.6 10.871 33.5233 10.7205C33.3242 10.3298 33.0049 10.0108 32.6115 9.81038C32.4604 9.73341 32.2318 9.66365 31.7538 9.62457C31.2611 9.58429 30.6211 9.58331 29.667 9.58331H10.3337C9.37963 9.58331 8.73907 9.58429 8.24574 9.62458ZM10.7064 15.8664C11.1483 15.3361 11.9366 15.2644 12.4669 15.7064L17.4669 19.873C17.7519 20.1105 17.9167 20.4623 17.9167 20.8333C17.9167 21.2043 17.7519 21.5561 17.4669 21.7936L12.4669 25.9603C11.9366 26.4022 11.1483 26.3306 10.7064 25.8002C10.2644 25.2699 10.3361 24.4817 10.8664 24.0397L14.7141 20.8333L10.8664 17.6269C10.3361 17.185 10.2644 16.3968 10.7064 15.8664ZM18.75 25C18.75 24.3096 19.3096 23.75 20 23.75H28.3333C29.0237 23.75 29.5833 24.3096 29.5833 25C29.5833 25.6903 29.0237 26.25 28.3333 26.25H20C19.3096 26.25 18.75 25.6903 18.75 25Z" fill="black"/>
</svg>
