<svg width="26" height="22" viewBox="0 0 26 22" fill="none" xmlns="http://www.w3.org/2000/svg">
<path fill-rule="evenodd" clip-rule="evenodd" d="M5.22637 0.667969H20.7742C21.4864 0.667955 22.0806 0.667943 22.566 0.707626C23.0724 0.749025 23.5476 0.838543 23.9972 1.06761C24.686 1.4186 25.2486 1.9787 25.6006 2.66971C25.8296 3.11913 25.919 3.59446 25.9604 4.1004C26 4.58553 26 5.17918 26 5.88996V16.1126C26 16.8234 26 17.4168 25.9604 17.9017C25.919 18.4075 25.8296 18.8825 25.6006 19.3318C25.2491 20.0217 24.6871 20.5837 23.9972 20.9353C23.5479 21.1642 23.0729 21.2537 22.5671 21.295C22.0822 21.3347 21.4888 21.3347 20.7781 21.3346H5.22199C4.51121 21.3347 3.91756 21.3347 3.43244 21.295C2.92649 21.2537 2.45116 21.1643 2.00174 20.9353C1.31073 20.5832 0.750628 20.0207 0.399644 19.3318C0.170575 18.8822 0.0810563 18.4071 0.0396572 17.9007C-2.55307e-05 17.4152 -1.36896e-05 16.821 5.36068e-07 16.1089V5.89434C-1.36896e-05 5.18211 -2.54512e-05 4.58752 0.0396512 4.10175C0.0810267 3.59518 0.170489 3.11945 0.399644 2.66971C0.751179 1.97978 1.31181 1.41915 2.00174 1.06761C2.45148 0.838457 2.92721 0.748996 3.43378 0.70762C3.91955 0.667943 4.51414 0.667955 5.22637 0.667969ZM3.5966 2.70098C3.21354 2.73227 3.03041 2.78813 2.90972 2.84963C2.59612 3.00941 2.34145 3.26409 2.18166 3.57769C2.12016 3.69838 2.0643 3.88151 2.03301 4.26456C2.00078 4.65922 2 5.17167 2 5.9349V16.0682C2 16.8315 2.00078 17.3435 2.03301 17.7377C2.06427 18.1201 2.12008 18.303 2.18166 18.4238C2.342 18.7385 2.5972 18.994 2.90972 19.1533C3.03017 19.2146 3.21297 19.2704 3.59533 19.3017C3.98931 19.3339 4.50078 19.3346 5.26255 19.3346H20.7375C21.4992 19.3346 22.0104 19.3339 22.4041 19.3017C22.786 19.2704 22.9686 19.2147 23.0892 19.1533C23.4028 18.9935 23.6588 18.7374 23.8186 18.4238C23.8801 18.3033 23.9358 18.1206 23.967 17.7387C23.9992 17.345 24 16.8339 24 16.0721V5.93052C24 5.16875 23.9992 4.65728 23.967 4.2633C23.9358 3.88094 23.88 3.69814 23.8186 3.57769C23.6594 3.26517 23.4039 3.00997 23.0892 2.84963C22.9683 2.78805 22.7855 2.73224 22.4031 2.70098C22.0088 2.66875 21.4969 2.66797 20.7336 2.66797H5.26693C4.5037 2.66797 3.99126 2.66875 3.5966 2.70098ZM5.56511 7.69445C5.91868 7.27018 6.54924 7.21285 6.97352 7.56642L10.9735 10.8997C11.2015 11.0897 11.3333 11.3712 11.3333 11.668C11.3333 11.9648 11.2015 12.2462 10.9735 12.4362L6.97352 15.7695C6.54924 16.1231 5.91868 16.0658 5.56511 15.6415C5.21155 15.2172 5.26887 14.5866 5.69315 14.2331L8.77128 11.668L5.69315 9.10286C5.26887 8.74929 5.21155 8.11873 5.56511 7.69445ZM12 15.0013C12 14.449 12.4477 14.0013 13 14.0013H19.6667C20.219 14.0013 20.6667 14.449 20.6667 15.0013C20.6667 15.5536 20.219 16.0013 19.6667 16.0013H13C12.4477 16.0013 12 15.5536 12 15.0013Z" fill="#FE0103"/>
</svg>