<svg width="26" height="27" viewBox="0 0 26 27" fill="none" xmlns="http://www.w3.org/2000/svg">
<path fill-rule="evenodd" clip-rule="evenodd" d="M5.85161 1.0252C6.20661 1.44828 6.15143 2.07903 5.72835 2.43404L1.64278 5.86224C1.21971 6.21724 0.58895 6.16206 0.233948 5.73898C-0.121053 5.31591 -0.0658695 4.68515 0.357205 4.33015L4.44278 0.901948C4.86585 0.546946 5.49661 0.60213 5.85161 1.0252ZM20.1532 1.0252C20.5082 0.60213 21.139 0.546946 21.5621 0.901947L25.6476 4.33015C26.0707 4.68515 26.1259 5.31591 25.7709 5.73898C25.4159 6.16206 24.7851 6.21724 24.362 5.86224L20.2765 2.43404C19.8534 2.07903 19.7982 1.44828 20.1532 1.0252ZM13 5.33466C7.66124 5.33466 3.33333 9.66257 3.33333 15.0013C3.33333 20.3401 7.66124 24.668 13 24.668C18.3387 24.668 22.6667 20.3401 22.6667 15.0013C22.6667 9.66257 18.3387 5.33466 13 5.33466ZM1.33333 15.0013C1.33333 8.558 6.55667 3.33466 13 3.33466C19.4433 3.33466 24.6667 8.558 24.6667 15.0013C24.6667 21.4446 19.4433 26.668 13 26.668C6.55667 26.668 1.33333 21.4446 1.33333 15.0013ZM13 7.33466C13.5523 7.33466 14 7.78237 14 8.33466V14.0013H19.6667C20.2189 14.0013 20.6667 14.449 20.6667 15.0013C20.6667 15.5536 20.2189 16.0013 19.6667 16.0013H13C12.4477 16.0013 12 15.5536 12 15.0013V8.33466C12 7.78237 12.4477 7.33466 13 7.33466Z" fill="#7F7A84"/>
</svg>
