<svg width="16" height="20" viewBox="0 0 16 20" fill="none" xmlns="http://www.w3.org/2000/svg">
<path fill-rule="evenodd" clip-rule="evenodd" d="M4.16978 0.25L8.67722 0.250001C8.79783 0.250001 8.90791 0.250001 9.00683 0.250901C9.29702 0.253542 9.55188 0.263073 9.81393 0.325983C10.0951 0.393487 10.3631 0.504974 10.6087 0.655442C10.8878 0.826506 11.121 1.05994 11.4166 1.35592C11.4335 1.3728 11.4505 1.38988 11.4678 1.40717L14.5933 4.53265C14.6093 4.54867 14.6252 4.56449 14.6408 4.58013C14.9393 4.87834 15.1723 5.11111 15.344 5.39132C15.4944 5.63677 15.6061 5.90497 15.6736 6.18625C15.7333 6.4349 15.7452 6.67713 15.7486 6.95013C15.7496 6.96661 15.7502 6.98324 15.7502 7C15.7502 7.01185 15.7499 7.02364 15.7494 7.03536C15.75 7.12396 15.75 7.22083 15.75 7.32568V15.834C15.75 16.3671 15.75 16.8121 15.7203 17.1758C15.6893 17.5552 15.6222 17.9114 15.4505 18.2484C15.1866 18.7662 14.7649 19.187 14.2479 19.4505C13.9109 19.6222 13.5547 19.6893 13.1753 19.7203C12.8116 19.75 12.3666 19.75 11.8335 19.75H4.1665C3.63341 19.75 3.18817 19.75 2.82433 19.7203C2.44487 19.6893 2.08837 19.6222 1.75131 19.4505C1.23344 19.1866 0.81317 18.7654 0.549733 18.2484C0.377905 17.9111 0.310783 17.5546 0.279741 17.1747C0.249981 16.8106 0.24999 16.3648 0.25 15.8306V4.16978C0.24999 3.63561 0.249981 3.18966 0.279738 2.82534C0.31077 2.44541 0.377866 2.08861 0.549733 1.7513C0.813385 1.23386 1.23386 0.813385 1.7513 0.549733C2.08861 0.377866 2.44541 0.31077 2.82534 0.279738C3.18966 0.249981 3.63561 0.24999 4.16978 0.25ZM14.1076 6.25C14.0943 6.2246 14.0801 6.1996 14.0651 6.17507C13.9984 6.06631 13.9031 5.96372 13.5327 5.59332L10.4072 2.46783C10.0362 2.09687 9.93339 2.00087 9.82492 1.9344C9.80039 1.91937 9.7754 1.9052 9.75 1.89193V3.8C9.75 4.37244 9.75058 4.75654 9.77476 5.05231C9.79821 5.33928 9.84008 5.4765 9.88624 5.5671C10.0064 5.80296 10.1977 5.99446 10.4323 6.11397C10.5226 6.16 10.6597 6.20184 10.9465 6.22527C11.242 6.24942 11.6256 6.25 12.1969 6.25H14.1076ZM8.25 1.75V3.83045C8.24999 4.36459 8.24998 4.81035 8.27974 5.17449C8.31079 5.55434 8.37791 5.91086 8.54973 6.24809C8.81305 6.76487 9.2332 7.1865 9.7513 7.45048C10.0884 7.62223 10.4449 7.68928 10.8243 7.72029C11.1882 7.75002 11.6334 7.75001 12.1665 7.75H14.25V15.8036C14.25 16.3749 14.2494 16.7583 14.2253 17.0535C14.2019 17.34 14.16 17.477 14.114 17.5674C13.9943 17.8022 13.8025 17.9939 13.5669 18.114C13.4765 18.16 13.3395 18.2019 13.0531 18.2253C12.7578 18.2494 12.3744 18.25 11.8031 18.25H4.19691C3.62559 18.25 3.24198 18.2494 2.9465 18.2253C2.65973 18.2018 2.52263 18.16 2.43229 18.114C2.19751 17.9943 2.0063 17.803 1.88624 17.5674C1.84008 17.4768 1.79821 17.3396 1.77476 17.0526C1.75058 16.7568 1.75 16.3726 1.75 15.8002V4.2002C1.75 3.62777 1.75058 3.24344 1.77476 2.94745C1.79822 2.66016 1.84012 2.52281 1.88624 2.43229C2.00608 2.19709 2.19709 2.00608 2.43229 1.88624C2.52281 1.84012 2.66016 1.79822 2.94745 1.77476C3.24344 1.75058 3.62778 1.75 4.2002 1.75H8.25ZM8 9.25C8.41422 9.25 8.75 9.58579 8.75 10V14.5986L10.584 13.376C10.9286 13.1462 11.3943 13.2393 11.624 13.584C11.8538 13.9286 11.7607 14.3943 11.416 14.624L8.41603 16.624C8.1641 16.792 7.8359 16.792 7.58398 16.624L4.58398 14.624C4.23933 14.3943 4.1462 13.9286 4.37596 13.584C4.60573 13.2393 5.07138 13.1462 5.41603 13.376L7.25 14.5986V10C7.25 9.58579 7.58579 9.25 8 9.25Z" fill="white"/>
</svg>
