<svg width="40" height="40" viewBox="0 0 40 40" fill="none" xmlns="http://www.w3.org/2000/svg">
<path fill-rule="evenodd" clip-rule="evenodd" d="M13.3333 9.58331C11.2623 9.58331 9.58333 11.2622 9.58333 13.3333C9.58333 14.4438 10.0645 15.4403 10.8336 16.1287C11.348 16.5891 11.3918 17.3794 10.9314 17.8938C10.471 18.4082 9.68077 18.452 9.16636 17.9916C7.88971 16.8489 7.08333 15.1845 7.08333 13.3333C7.08333 9.88153 9.88155 7.08331 13.3333 7.08331C14.9333 7.08331 16.3954 7.68613 17.5003 8.67505C18.0147 9.13546 18.0585 9.9257 17.5981 10.4401C17.1377 10.9545 16.3474 10.9983 15.833 10.5379C15.1687 9.94334 14.2946 9.58331 13.3333 9.58331ZM22.4997 8.67505C23.6046 7.68613 25.0667 7.08331 26.6667 7.08331C30.1184 7.08331 32.9167 9.88153 32.9167 13.3333C32.9167 15.1845 32.1103 16.8489 30.8336 17.9916C30.3192 18.452 29.529 18.4082 29.0686 17.8938C28.6082 17.3794 28.6519 16.5891 29.1664 16.1287C29.9355 15.4403 30.4167 14.4438 30.4167 13.3333C30.4167 11.2622 28.7377 9.58331 26.6667 9.58331C25.7054 9.58331 24.8312 9.94334 24.167 10.5379C23.6526 10.9983 22.8623 10.9545 22.4019 10.4401C21.9415 9.9257 21.9853 9.13546 22.4997 8.67505ZM20 14.5833C17.9289 14.5833 16.25 16.2622 16.25 18.3333C16.25 20.4044 17.9289 22.0833 20 22.0833C22.0711 22.0833 23.75 20.4044 23.75 18.3333C23.75 16.2622 22.0711 14.5833 20 14.5833ZM13.75 18.3333C13.75 14.8815 16.5482 12.0833 20 12.0833C23.4518 12.0833 26.25 14.8815 26.25 18.3333C26.25 21.7851 23.4518 24.5833 20 24.5833C16.5482 24.5833 13.75 21.7851 13.75 18.3333ZM11.2091 23.433C11.3842 24.1008 10.9848 24.7841 10.317 24.9591C8.98974 25.3071 7.93285 25.8617 7.23214 26.4919C6.53484 27.1189 6.25 27.757 6.25 28.3339C6.25 29.0243 5.69036 29.5839 5 29.5839C4.30964 29.5839 3.75 29.0243 3.75 28.3339C3.75 26.8605 4.49357 25.5924 5.56047 24.633C6.62398 23.6766 8.06709 22.9645 9.68302 22.5408C10.3508 22.3658 11.0341 22.7652 11.2091 23.433ZM28.7909 23.433C28.9659 22.7652 29.6492 22.3658 30.317 22.5408C31.9329 22.9645 33.376 23.6766 34.4395 24.633C35.5064 25.5924 36.25 26.8605 36.25 28.3339C36.25 29.0243 35.6904 29.5839 35 29.5839C34.3096 29.5839 33.75 29.0243 33.75 28.3339C33.75 27.757 33.4652 27.1189 32.7679 26.4919C32.0672 25.8617 31.0103 25.3071 29.683 24.9591C29.0152 24.7841 28.6158 24.1008 28.7909 23.433ZM13.4643 28.7259C15.1975 27.686 17.5112 27.0833 20 27.0833C22.4888 27.0833 24.8025 27.686 26.5357 28.7259C28.244 29.7509 29.5833 31.341 29.5833 33.3333C29.5833 34.0237 29.0237 34.5833 28.3333 34.5833C27.643 34.5833 27.0833 34.0237 27.0833 33.3333C27.0833 32.5642 26.5572 31.6543 25.2494 30.8696C23.9666 30.0999 22.1136 29.5833 20 29.5833C17.8864 29.5833 16.0334 30.0999 14.7506 30.8696C13.4428 31.6543 12.9167 32.5642 12.9167 33.3333C12.9167 34.0237 12.357 34.5833 11.6667 34.5833C10.9763 34.5833 10.4167 34.0237 10.4167 33.3333C10.4167 31.341 11.756 29.7509 13.4643 28.7259Z" fill="black"/>
</svg>
