<svg width="26" height="23" viewBox="0 0 26 23" fill="none" xmlns="http://www.w3.org/2000/svg">
<path fill-rule="evenodd" clip-rule="evenodd" d="M7.66667 2.66797C6.00981 2.66797 4.66667 4.01111 4.66667 5.66797C4.66667 6.55637 5.05157 7.35356 5.66691 7.90431C6.07844 8.27264 6.11346 8.90483 5.74514 9.31636C5.37681 9.72788 4.74461 9.76291 4.33309 9.39458C3.31177 8.48047 2.66667 7.1489 2.66667 5.66797C2.66667 2.90655 4.90524 0.667969 7.66667 0.667969C8.94662 0.667969 10.1163 1.15022 11.0002 1.94136C11.4118 2.30968 11.4468 2.94188 11.0785 3.35341C10.7101 3.76493 10.0779 3.79995 9.66642 3.43163C9.135 2.95599 8.43566 2.66797 7.66667 2.66797ZM14.9998 1.94136C15.8837 1.15022 17.0534 0.667969 18.3333 0.667969C21.0948 0.667969 23.3333 2.90655 23.3333 5.66797C23.3333 7.1489 22.6882 8.48047 21.6669 9.39458C21.2554 9.76291 20.6232 9.72788 20.2549 9.31636C19.8865 8.90483 19.9216 8.27264 20.3331 7.90431C20.9484 7.35356 21.3333 6.55637 21.3333 5.66797C21.3333 4.01111 19.9902 2.66797 18.3333 2.66797C17.5643 2.66797 16.865 2.95599 16.3336 3.43163C15.9221 3.79995 15.2899 3.76493 14.9215 3.35341C14.5532 2.94188 14.5882 2.30969 14.9998 1.94136ZM13 6.66797C11.3431 6.66797 10 8.01111 10 9.66797C10 11.3248 11.3431 12.668 13 12.668C14.6569 12.668 16 11.3248 16 9.66797C16 8.01111 14.6569 6.66797 13 6.66797ZM8 9.66797C8 6.90654 10.2386 4.66797 13 4.66797C15.7614 4.66797 18 6.90654 18 9.66797C18 12.4294 15.7614 14.668 13 14.668C10.2386 14.668 8 12.4294 8 9.66797ZM5.96731 13.7477C6.10736 14.282 5.78782 14.8286 5.25358 14.9686C4.19179 15.247 3.34628 15.6907 2.78572 16.1948C2.22787 16.6965 2 17.2069 2 17.6685C2 18.2208 1.55228 18.6685 1 18.6685C0.447715 18.6685 0 18.2208 0 17.6685C0 16.4897 0.594859 15.4752 1.44838 14.7077C2.29918 13.9426 3.45367 13.3729 4.74642 13.034C5.28065 12.8939 5.82726 13.2135 5.96731 13.7477ZM20.0327 13.7477C20.1727 13.2135 20.7193 12.8939 21.2536 13.034C22.5463 13.3729 23.7008 13.9426 24.5516 14.7077C25.4051 15.4752 26 16.4897 26 17.6685C26 18.2208 25.5523 18.6685 25 18.6685C24.4477 18.6685 24 18.2208 24 17.6685C24 17.2069 23.7721 16.6965 23.2143 16.1948C22.6537 15.6907 21.8082 15.247 20.7464 14.9686C20.2122 14.8286 19.8926 14.282 20.0327 13.7477ZM7.77146 17.982C9.15801 17.1501 11.009 16.668 13 16.668C14.991 16.668 16.842 17.1501 18.2285 17.982C19.5952 18.802 20.6667 20.0741 20.6667 21.668C20.6667 22.2203 20.219 22.668 19.6667 22.668C19.1144 22.668 18.6667 22.2203 18.6667 21.668C18.6667 21.0527 18.2458 20.3248 17.1996 19.697C16.1732 19.0813 14.6909 18.668 13 18.668C11.3091 18.668 9.82675 19.0813 8.80045 19.697C7.75424 20.3248 7.33333 21.0527 7.33333 21.668C7.33333 22.2203 6.88562 22.668 6.33333 22.668C5.78105 22.668 5.33333 22.2203 5.33333 21.668C5.33333 20.0741 6.40481 18.802 7.77146 17.982Z" fill="#FE0103"/>
</svg>