<svg width="75" height="24" viewBox="0 0 75 24" fill="none" xmlns="http://www.w3.org/2000/svg">
<g clip-path="url(#clip0_1461_198062)">
<path d="M48.8381 0.0371094C43.5182 0.0371094 38.764 2.75477 38.764 7.77586C38.764 13.5341 47.1957 13.9318 47.1957 16.8246C47.1957 18.0426 45.7794 19.133 43.3604 19.133C39.9275 19.133 37.3616 17.6094 37.3616 17.6094L36.2638 22.6763C36.2638 22.6763 39.2195 23.9632 43.1438 23.9632C48.9602 23.9632 53.537 21.1121 53.537 16.0051C53.537 9.92052 45.0702 9.53462 45.0702 6.84964C45.0702 5.89549 46.2329 4.85003 48.6449 4.85003C51.3664 4.85003 53.5868 5.95803 53.5868 5.95803L54.6613 1.06433C54.6613 1.06433 52.2453 0.0371094 48.8381 0.0371094ZM0.165561 0.406446L0.0367432 1.14512C0.0367432 1.14512 2.27486 1.54882 4.29065 2.35412C6.88615 3.27756 7.07104 3.81513 7.50816 5.48482L12.2715 23.5823H18.6567L28.4937 0.406446H22.1231L15.8023 16.1638L13.223 2.80713C12.9864 1.27847 11.7883 0.406446 10.3217 0.406446H0.165561ZM31.0554 0.406446L26.0579 23.5823H32.1328L37.1128 0.406446H31.0554ZM64.9374 0.406446C63.4725 0.406446 62.6964 1.1794 62.1268 2.53013L53.2267 23.5823H59.5973L60.8299 20.0736H68.5911L69.3406 23.5823H74.9617L70.0579 0.406446H64.9374ZM65.7659 6.66785L67.6543 15.3646H62.5952L65.7659 6.66785Z" fill="#1434CB"/>
</g>
<defs>
<clipPath id="clip0_1461_198062">
<rect width="75" height="24" fill="white"/>
</clipPath>
</defs>
</svg>
